<?xml version="1.0" standalone="no"?>
<!DOCTYPE svg PUBLIC "-//W3C//DTD SVG 1.1//EN" "http://www.w3.org/Graphics/SVG/1.1/DTD/svg11.dtd" >
<svg xmlns="http://www.w3.org/2000/svg" xmlns:xlink="http://www.w3.org/1999/xlink" version="1.1">
<metadata>
Created by FontForge 20170924 at Fri Jun 15 10:23:59 2018
 By www-data
Pavel Korzhenko (c) 2018
</metadata>
<defs>
<font id="Afterglow-Regular" horiz-adv-x="597" >
  <font-face 
    font-family="Afterglow"
    font-weight="400"
    font-stretch="normal"
    units-per-em="1000"
    panose-1="0 0 5 0 0 0 0 0 0 0"
    ascent="800"
    descent="-200"
    x-height="460"
    cap-height="700"
    bbox="-1258 -1606 4292 1375"
    underline-thickness="50"
    underline-position="-100"
    unicode-range="U+0020-E0B3"
  />
<missing-glyph horiz-adv-x="570" 
d="M467 -260h-361v1140h361v-1140zM192 804v-38h74v-42h-76v-38h190v38h-76v42h76v38h-188zM190 657v-119h190v39h-76v80h-114zM266 577h-38v41h38v-41zM190 507v-37h76v-43h-76v-37h114v80h76v37h-190zM342 439v-75h-152v-39h190v114h-38zM266 300v-64h38v26h38v-53h-114
v91h-38v-129h190v129h-114zM190 103v-129h190v129h-190zM342 11h-114v54h114v-54zM190 -53v-37h80l-80 -54v-37h190v37h-117l80 54h37v37h-190z" />
    <glyph glyph-name="f_b.liga" unicode="fb" horiz-adv-x="882" 
d="M864 232q0 -105 -67 -180q-30 -30 -68.5 -47.5t-79.5 -17.5q-61 0 -109 37q-15 12 -24 24v-46h-178v9l30 6q19 4 30.5 18.5t11.5 33.5v499v4q-13 8 -21 19t-8 23q17 4 26.5 16.5t9.5 30.5q0 23 -13.5 46t-40 38t-61.5 15q-111 0 -111 -140v-160h168v-30h-168v-363
q0 -19 11.5 -33.5t30.5 -18.5l30 -6v-9h-250v9l30 6q19 4 30.5 18.5t11.5 33.5v363h-72v30h72v160q0 41 26.5 79t78 62t122.5 24q54 0 101 -21t75 -54t28 -65v-208q21 18 62 32q24 8 59 8q45 0 86 -16.5t72 -47.5q69 -69 69 -181zM716.5 139q9.5 41 9.5 93q0 108 -37 160
q-32 45 -79 45q-29 0 -54.5 -16t-39.5 -39v-273q18 -35 46 -58.5t59 -23.5q39 0 69 45q17 26 26.5 67z" />
    <glyph glyph-name="f_h.liga" unicode="fh" horiz-adv-x="888" 
d="M893 9v-9h-244v9l25 6q18 5 29.5 18.5t11.5 32.5v259q0 62 -22.5 96t-62.5 34q-24 0 -51.5 -16t-45.5 -41.5t-18 -52.5v-279q0 -19 11.5 -32.5t29.5 -18.5l25 -6v-9h-244v9l30 6q19 4 30.5 18.5t11.5 33.5l1 505q-13 8 -21 19t-8 23l3 1q16 4 24.5 16.5t8.5 29.5
q0 23 -13.5 46t-40 38t-61.5 15q-111 0 -111 -140v-160h168v-30h-168v-363q0 -19 11.5 -33.5t30.5 -18.5l30 -6v-9h-250v9l30 6q19 4 30.5 18.5t11.5 33.5v363h-72v30h72v160q0 41 26.5 79t78 62t122.5 24q54 0 101 -21t75 -54t28 -65v-2l-1 -220q22 28 58 45t75 17
q37 0 69 -11t54 -30q50 -44 50 -109v-268q0 -19 11.5 -33.5t30.5 -18.5z" />
    <glyph glyph-name="f_i.liga" unicode="fi" horiz-adv-x="588" 
d="M593 9v-9h-250v9l30 6q19 4 30.5 18.5t11.5 33.5v326q0 37 -42 37h-182v-363q0 -19 11.5 -33.5t30.5 -18.5l30 -6v-9h-250v9l30 6q19 4 30.5 18.5t11.5 33.5v363h-72v30h72v160q0 41 26.5 79t78 62t122.5 24q68 0 116 -25.5t72.5 -67.5t24.5 -91q0 -82 -71 -82
q-25 0 -47 20.5t-22 40.5q21 4 33.5 19t12.5 39q0 29 -14 57t-43.5 46.5t-71.5 18.5q-111 0 -111 -140v-160h330v-393q0 -19 11.5 -33.5t30.5 -18.5z" />
    <glyph glyph-name="f_j.liga" unicode="fj" horiz-adv-x="604" 
d="M520 -115q0 -61 -48 -98t-118 -37q-68 0 -114 33.5t-46 86.5q0 32 20 57t62 25q25 0 44.5 -16t19.5 -35q-18 -4 -29 -21t-11 -40q0 -27 16 -46t41 -19q35 0 46 27t11 83v508q0 37 -42 37h-181v-363q0 -19 11.5 -33.5t30.5 -18.5l30 -6v-9h-250v9l30 6q19 4 30.5 18.5
t11.5 33.5v363h-72v30h72v160q0 41 26.5 79t78 62t122.5 24q68 0 116 -25.5t72.5 -67.5t24.5 -91q0 -82 -71 -82q-25 0 -47 20.5t-22 40.5q21 4 33.5 19t12.5 39q0 29 -14 57t-43.5 46.5t-71.5 18.5q-111 0 -111 -140v-160h329v-575z" />
    <glyph glyph-name="f_k.liga" unicode="fk" horiz-adv-x="828" 
d="M881 9v-9h-256v9q14 3 21.5 14.5t7.5 27.5q0 27 -19 53l-92 130l-28 -23v-145q0 -19 11.5 -32.5t29.5 -18.5l25 -6v-9h-244v9l30 6q19 4 30.5 18.5t11.5 33.5l1 505q-13 8 -21 19t-8 23q17 4 26.5 16.5t9.5 30.5q0 23 -13.5 46t-40 38t-61.5 15q-111 0 -111 -140v-160
h168v-30h-168v-363q0 -19 11.5 -33.5t30.5 -18.5l30 -6v-9h-250v9l30 6q19 4 30.5 18.5t11.5 33.5v363h-72v30h72v160q0 41 26.5 79t78 62t122.5 24q54 0 101 -21t75 -54t28 -65v-1l-1 -402l86 72q36 32 56.5 66.5t20.5 60.5q0 18 -10.5 29t-30.5 11q4 21 23 37.5t49 16.5
t47.5 -17.5t17.5 -50.5q0 -29 -32 -62.5t-96 -85.5q3 2 -31 -25l156 -217q37 -52 101 -66z" />
    <glyph glyph-name="f_l.liga" unicode="fl" horiz-adv-x="582" 
d="M587 9v-9h-250v9l30 6q19 4 30.5 18.5t11.5 33.5l1 505q-13 8 -21 19t-8 23q17 4 26.5 16.5t9.5 30.5q0 23 -13.5 46t-40 38t-61.5 15q-111 0 -111 -140v-160h168v-30h-168v-363q0 -19 11.5 -33.5t30.5 -18.5l30 -6v-9h-250v9l30 6q19 4 30.5 18.5t11.5 33.5v363h-72v30
h72v160q0 41 26.5 79t78 62t122.5 24q54 0 101 -21t75 -54t28 -65v-1l-1 -577q0 -19 11.5 -33.5t30.5 -18.5z" />
    <glyph glyph-name="i_j.liga" unicode="ij" horiz-adv-x="516" 
d="M92.5 540.5q-15.5 15.5 -15.5 34.5t15.5 34.5t34.5 15.5t34.5 -15.5t15.5 -34.5t-15.5 -34.5t-34.5 -15.5t-34.5 15.5zM350.5 540.5q-15.5 15.5 -15.5 34.5t15.5 34.5t34.5 15.5t34.5 -15.5t15.5 -34.5t-15.5 -34.5t-34.5 -15.5t-34.5 15.5zM446 -115q0 -61 -48 -98
t-118 -37q-68 0 -114 33.5t-46 86.5q0 32 20 57t62 25q25 0 44.5 -16t19.5 -35q-18 -4 -29 -21t-11 -40q0 -27 16 -46t41 -19q35 0 46 27t11 83v508q0 20 -12 33.5t-30 13.5h-113v-373q0 -19 11.5 -33.5t30.5 -18.5l30 -6v-9h-250v9l30 6q19 4 30.5 18.5t11.5 33.5v326
q0 19 -11.5 33.5t-30.5 18.5l-30 6v9h439v-575z" />
    <glyph glyph-name=".notdef" horiz-adv-x="570" 
d="M467 -260h-361v1140h361v-1140zM192 804v-38h74v-42h-76v-38h190v38h-76v42h76v38h-188zM190 657v-119h190v39h-76v80h-114zM266 577h-38v41h38v-41zM190 507v-37h76v-43h-76v-37h114v80h76v37h-190zM342 439v-75h-152v-39h190v114h-38zM266 300v-64h38v26h38v-53h-114
v91h-38v-129h190v129h-114zM190 103v-129h190v129h-190zM342 11h-114v54h114v-54zM190 -53v-37h80l-80 -54v-37h190v37h-117l80 54h37v37h-190z" />
    <glyph glyph-name="space" unicode=" " horiz-adv-x="240" 
 />
    <glyph glyph-name="A" unicode="A" horiz-adv-x="616" 
d="M401 205h-257l-43 -113q-5 -13 -5 -23q0 -18 11.5 -32t30.5 -20l26 -8v-9h-206v9l2 1q40 12 69.5 38.5t43.5 65.5l224 601h29l238 -602q16 -43 45.5 -69.5t67.5 -34.5v-9h-283v9q34 6 48 15t14 26q0 15 -10 41zM151 224h242l-125 319z" />
    <glyph glyph-name="A.ss01" unicode="&#xe000;" horiz-adv-x="616" 
d="M-742 341.5q45 76.5 121.5 121.5t167.5 45q73 0 135 -36t98 -98t36 -135q0 -60 -29 -110t-79 -79t-110 -29q-36 0 -66 16.5t-30 37.5q0 9 6 18q10 14 21 14q10 0 19.5 -9t22.5 -26q19 -23 27 -27q53 0 97.5 26t70.5 70.5t26 97.5q0 66 -33 122.5t-89.5 89.5t-122.5 33
q-84 0 -155.5 -41.5t-113 -113t-41.5 -155.5q0 -106 52.5 -198t142.5 -147t195 -55q100 0 179.5 30t154 118.5t136.5 255.5l200 537h29l238 -602q16 -43 45.5 -69.5t67.5 -34.5v-9h-283v9q34 6 48 15t14 26q0 15 -10 41l-45 114h-257l-19 -49q-62 -161 -141 -250.5
t-165.5 -122.5t-191.5 -33q-112 0 -207.5 58t-151 155.5t-55.5 210.5q0 91 45 167.5zM151 224h242l-125 319z" />
    <glyph glyph-name="A.ss02" unicode="&#xe001;" horiz-adv-x="616" 
d="M609.5 43.5q29.5 -26.5 67.5 -34.5v-9h-283v9q34 6 48 15t14 26q0 15 -10 41l-15 39h-1q-33 86 -90 148.5t-134 96.5l-57 -152q26 -24 40.5 -55.5t14.5 -67.5q0 -55 -27.5 -101.5t-74.5 -74t-103 -27.5q-68 0 -125.5 34t-91.5 91.5t-34 125.5q0 83 36 146.5t101 98.5
t150 35q79 0 146 -23l116 310h29l238 -602q16 -43 45.5 -69.5zM378 264l-110 279l-55 -150q95 -40 165 -129zM175 386q-68 22 -140 22q-80 0 -140.5 -32.5t-93.5 -91.5t-33 -136q0 -63 31 -116t84 -84t116 -31q48 0 89 22.5t66 60.5h-196v9l2 1q40 12 69.5 38.5t43.5 65.5
l41 110q-36 21 -75 21q-4 -1 -11.5 -4.5t-11.5 -5.5q-28 -15 -39 -15q-7 0 -11 5t-4 10q0 14 25.5 22t51.5 8q44 0 82 -22zM173 155.5q-11 26.5 -31 46.5l-41 -110q-5 -13 -5 -23q0 -18 11.5 -32t30.5 -20l22 -7q24 43 24 90q0 29 -11 55.5z" />
    <glyph glyph-name="A.ss03" unicode="&#xe002;" horiz-adv-x="616" 
d="M1705 -60q11 0 17 -12.5t6 -32.5q0 -40 -19 -69q-74 -113 -241 -177t-386 -64q-119 0 -243 29t-234.5 70.5t-277.5 112.5q-199 86 -321 128q-140 -178 -366 -178q-107 0 -179 34.5t-72 102.5q0 64 67 98t184 34q153 0 351 -65q61 83 103 196l203 568h29l238 -602
q16 -43 45.5 -69.5t67.5 -34.5v-9h-283v9q34 6 48 15t14 26q0 15 -10 41l-45 114h-257l-30 -80q-39 -107 -96 -183q69 -24 139.5 -52.5t176.5 -73.5q166 -70 275.5 -111.5t232 -70.5t240.5 -29q215 0 377 61.5t233 170.5q5 7 5 19q0 14 -9 34q-1 4 -4 12.5t-3 15.5
q0 14 14 20q3 2 10 2zM151 224h242l-125 319zM-22 -66q-193 62 -338 62q-107 0 -169 -29.5t-62 -82.5q0 -59 66.5 -88t164.5 -29q202 0 338 167z" />
    <glyph glyph-name="A.ss04" unicode="&#xe003;" horiz-adv-x="616" 
d="M1558.5 927.5q146.5 -85.5 232 -231t85.5 -318.5q0 -215 -106.5 -397.5t-289 -289t-398.5 -106.5q-119 0 -243 29t-234.5 70.5t-277.5 112.5q-199 86 -321 128q-140 -178 -366 -178q-107 0 -179 34.5t-72 102.5q0 64 67 98t184 34q153 0 351 -65q61 83 103 196l203 568
h29l238 -602q16 -43 45.5 -69.5t67.5 -34.5v-9h-283v9q34 6 48 15t14 26q0 15 -10 41l-45 114h-257l-30 -80q-39 -107 -96 -183q69 -24 139.5 -52.5t176.5 -73.5q166 -70 275.5 -111.5t232 -70.5t240.5 -29q210 0 388 104t282 281.5t104 387.5q0 167 -83 308.5t-225 224
t-310 82.5q-134 0 -246.5 -66t-178.5 -178.5t-66 -246.5q0 -106 52.5 -195t141.5 -141.5t195 -52.5q15 0 37 20q17 15 26 15q7 0 14 -9q4 -4 4 -10q0 -14 -26 -25t-55 -11q-111 0 -205 55t-149 149t-55 205q0 139 69 256t186 186t256 69q174 0 320.5 -85.5zM151 224h242
l-125 319zM-22 -66q-193 62 -338 62q-107 0 -169 -29.5t-62 -82.5q0 -59 66.5 -88t164.5 -29q202 0 338 167z" />
    <glyph glyph-name="A.ss05" unicode="&#xe004;" horiz-adv-x="616" 
d="M1286.5 166q63.5 -37 100.5 -100t37 -138q0 -95 -45 -173.5t-127.5 -124t-189.5 -45.5q-120 0 -243 29.5t-234 72t-271 112.5q-109 47 -175 74.5t-134 50.5q-72 -92 -165 -134.5t-200 -42.5t-179 34.5t-72 102.5q0 64 67 98t184 34q157 0 350 -66q62 82 104 197l203 568
h29l238 -602q16 -43 45.5 -69.5t67.5 -34.5v-9h-283v9q34 6 48 15t14 26q0 15 -10 41l-45 114h-257l-30 -80q-39 -104 -96 -184q59 -20 129 -49t113 -48t62 -27q162 -70 270 -112t230 -71t240 -29q101 0 179 43t120.5 116.5t42.5 163.5q0 69 -34.5 127.5t-93 93t-128.5 34.5
q-55 0 -101.5 -27.5t-73.5 -74t-27 -101.5q0 -43 21.5 -79.5t58 -58t79.5 -21.5q11 0 21 8t22 23q7 8 14.5 15t13.5 7q5 0 11 -6q7 -9 7 -15q0 -19 -27.5 -35.5t-61.5 -16.5q-48 0 -89 24.5t-65.5 65.5t-24.5 89q0 61 30 112t81 81t111 30q75 0 138.5 -37zM151 224h242
l-125 319zM-177 -192q86 41 154 126q-189 62 -337 62q-107 0 -169 -29.5t-62 -82.5q0 -59 66.5 -88t164.5 -29q97 0 183 41z" />
    <glyph glyph-name="A.ss06" unicode="&#xe005;" horiz-adv-x="616" 
d="M-431 121.5q26 43.5 69.5 69.5t95.5 26q42 0 78 -21t57 -56.5t21 -77.5q0 -34 -17 -63t-46 -46t-63 -17q-26 0 -48 11t-22 27q0 9 5 15q4 6 10 6q7 0 15.5 -8.5l9.5 -9.5q7 -8 15 -14.5t15 -6.5q44 0 75 31t31 75q0 37 -18.5 68t-49.5 49t-68 18q-47 0 -86 -23t-62 -62
t-23 -86q0 -60 29 -109.5t78.5 -78.5t109.5 -29q80 0 141 57t104 143.5t91 217.5l181 488h29l238 -602q16 -43 45.5 -69.5t67.5 -34.5v-9h-283v9q34 6 48 15t14 26q0 15 -10 41l-45 114h-257q-53 -134 -98 -218.5t-110.5 -141t-155.5 -56.5q-64 0 -118.5 32t-86.5 86.5
t-32 118.5q0 52 26 95.5zM151 224h242l-125 319z" />
    <glyph glyph-name="A.ss07" unicode="&#xe006;" horiz-adv-x="616" 
d="M2447 -155q24 -10 24 -25q0 -8 -6 -15t-13 -7q-8 0 -27 15q-24 22 -43 22q-101 0 -210 -16.5t-209.5 -40t-259.5 -65.5q-167 -45 -285 -72.5t-249.5 -46.5t-259.5 -19q-267 0 -480 47t-349.5 125t-184.5 171q-68 29 -107.5 91t-39.5 139q0 82 38 146t106 99t153 35
q75 0 137 -21l115 308h29l238 -602q16 -43 45.5 -69.5t67.5 -34.5v-9h-283v9q34 6 48 15t14 26q0 15 -10 41l-15 39h-1q-35 89 -91 152t-132 95l-66 -176q29 -23 44 -57.5t15 -74.5q0 -80 -53.5 -126t-147.5 -46q-39 0 -77 11q53 -86 186.5 -157t338.5 -113.5t462 -42.5
q127 0 257 19t245 46t286 72q163 43 263 66.5t209.5 40t212.5 16.5q41 0 65 -10zM214 396q95 -40 162 -128l-108 275zM-201.5 29q30.5 -54 84.5 -83q-14 36 -12 73q0 64 23.5 113t62 75.5t82.5 26.5q38 0 73 -15l63 170q-62 19 -130 19q-80 0 -143 -32.5t-98.5 -91.5
t-35.5 -136q0 -65 30.5 -119zM168 131q-12 29 -34 50l-33 -89q-5 -13 -5 -23q0 -18 11.5 -32t30.5 -20l26 -8v-9h-206v9l2 1q40 12 69.5 38.5t43.5 65.5l32 86q-30 14 -66 14q-41 0 -74.5 -23.5t-53.5 -67.5t-20 -104q-1 -42 17 -85q43 -17 91 -17q86 0 133.5 40t47.5 112
q0 33 -12 62z" />
    <glyph glyph-name="Aacute" unicode="&#xc1;" horiz-adv-x="616" 
d="M401 205h-257l-43 -113q-5 -13 -5 -23q0 -18 11.5 -32t30.5 -20l26 -8v-9h-206v9l2 1q40 12 69.5 38.5t43.5 65.5l224 601h29l238 -602q16 -43 45.5 -69.5t67.5 -34.5v-9h-283v9q34 6 48 15t14 26q0 15 -10 41zM151 224h242l-125 319zM290 870h108l-120 -120h-36z" />
    <glyph glyph-name="Abreve" unicode="&#x102;" horiz-adv-x="616" 
d="M401 205h-257l-43 -113q-5 -13 -5 -23q0 -18 11.5 -32t30.5 -20l26 -8v-9h-206v9l2 1q40 12 69.5 38.5t43.5 65.5l224 601h29l238 -602q16 -43 45.5 -69.5t67.5 -34.5v-9h-283v9q34 6 48 15t14 26q0 15 -10 41zM151 224h242l-125 319zM169 855h77q-1 -5 -1 -28
q0 -25 15.5 -40t38.5 -15t38.5 15t15.5 40q0 24 -1 28h77q2 -10 2 -18q0 -36 -33.5 -58t-98.5 -22t-98.5 22t-33.5 58q0 8 2 18z" />
    <glyph glyph-name="Acircumflex" unicode="&#xc2;" horiz-adv-x="616" 
d="M401 205h-257l-43 -113q-5 -13 -5 -23q0 -18 11.5 -32t30.5 -20l26 -8v-9h-206v9l2 1q40 12 69.5 38.5t43.5 65.5l224 601h29l238 -602q16 -43 45.5 -69.5t67.5 -34.5v-9h-283v9q34 6 48 15t14 26q0 15 -10 41zM151 224h242l-125 319zM189 750l-17 12l125 118l125 -118
l-17 -12l-108 60z" />
    <glyph glyph-name="Adieresis" unicode="&#xc4;" horiz-adv-x="616" 
d="M401 205h-257l-43 -113q-5 -13 -5 -23q0 -18 11.5 -32t30.5 -20l26 -8v-9h-206v9l2 1q40 12 69.5 38.5t43.5 65.5l224 601h29l238 -602q16 -43 45.5 -69.5t67.5 -34.5v-9h-283v9q34 6 48 15t14 26q0 15 -10 41zM151 224h242l-125 319zM254.5 760.5
q-15.5 -15.5 -34.5 -15.5t-34.5 15.5t-15.5 34.5t15.5 34.5t34.5 15.5t34.5 -15.5t15.5 -34.5t-15.5 -34.5zM419.5 760.5q-15.5 -15.5 -34.5 -15.5t-34.5 15.5t-15.5 34.5t15.5 34.5t34.5 15.5t34.5 -15.5t15.5 -34.5t-15.5 -34.5z" />
    <glyph glyph-name="Agrave" unicode="&#xc0;" horiz-adv-x="616" 
d="M401 205h-257l-43 -113q-5 -13 -5 -23q0 -18 11.5 -32t30.5 -20l26 -8v-9h-206v9l2 1q40 12 69.5 38.5t43.5 65.5l224 601h29l238 -602q16 -43 45.5 -69.5t67.5 -34.5v-9h-283v9q34 6 48 15t14 26q0 15 -10 41zM151 224h242l-125 319zM315 750h-36l-120 120h108z" />
    <glyph glyph-name="Amacron" unicode="&#x100;" horiz-adv-x="616" 
d="M401 205h-257l-43 -113q-5 -13 -5 -23q0 -18 11.5 -32t30.5 -20l26 -8v-9h-206v9l2 1q40 12 69.5 38.5t43.5 65.5l224 601h29l238 -602q16 -43 45.5 -69.5t67.5 -34.5v-9h-283v9q34 6 48 15t14 26q0 15 -10 41zM151 224h242l-125 319zM417 815v-35h-230v35h230z" />
    <glyph glyph-name="Aogonek" unicode="&#x104;" horiz-adv-x="616" 
d="M401 205h-257l-43 -113q-5 -13 -5 -23q0 -18 11.5 -32t30.5 -20l26 -8v-9h-206v9l2 1q40 12 69.5 38.5t43.5 65.5l224 601h29l238 -602q16 -43 45.5 -69.5t67.5 -34.5v-9h-283v9q34 6 48 15t14 26q0 15 -10 41zM151 224h242l-125 319zM447 -22q19 10 53 22h40
q-45 -21 -76 -53q-14 -16 -14 -32q0 -15 11 -25t29 -10t32 12q5 3 13 13v-25q-11 -11 -36 -17q-12 -3 -29 -3q-37 0 -56 15.5t-19 39.5q0 34 52 63z" />
    <glyph glyph-name="Aring" unicode="&#xc5;" horiz-adv-x="616" 
d="M401 205h-257l-43 -113q-5 -13 -5 -23q0 -18 11.5 -32t30.5 -20l26 -8v-9h-206v9l2 1q40 12 69.5 38.5t43.5 65.5l224 601h29l238 -602q16 -43 45.5 -69.5t67.5 -34.5v-9h-283v9q34 6 48 15t14 26q0 15 -10 41zM151 224h242l-125 319zM378.5 716q-27.5 -21 -68.5 -21
t-68.5 21t-27.5 54t27.5 54t68.5 21t68.5 -21t27.5 -54t-27.5 -54zM340.5 810.5q-11.5 14.5 -30.5 14.5q-18 0 -30 -14.5t-12 -40.5t12 -40.5t30 -14.5q19 0 30.5 14.5t11.5 40.5t-11.5 40.5z" />
    <glyph glyph-name="Atilde" unicode="&#xc3;" horiz-adv-x="616" 
d="M401 205h-257l-43 -113q-5 -13 -5 -23q0 -18 11.5 -32t30.5 -20l26 -8v-9h-206v9l2 1q40 12 69.5 38.5t43.5 65.5l224 601h29l238 -602q16 -43 45.5 -69.5t67.5 -34.5v-9h-283v9q34 6 48 15t14 26q0 15 -10 41zM151 224h242l-125 319zM443 855q0 -50 -22 -75t-56 -25
q-16 0 -29 7t-30 21q-18 15 -27.5 21t-21.5 6q-19 0 -30.5 -11.5t-11.5 -33.5h-18q0 50 22 75t56 25q16 0 30.5 -7t29.5 -20q4 -3 13.5 -11.5t18 -12.5t16.5 -4q19 0 30.5 11.5t11.5 33.5h18z" />
    <glyph glyph-name="AE" unicode="&#xc6;" horiz-adv-x="982" 
d="M917.5 669.5q-13.5 -21.5 -13.5 -43.5q0 -24 12 -41.5t31 -17.5q-3 -21 -26.5 -34.5t-57.5 -13.5q-35 0 -54 21.5t-19 52.5q0 15 6.5 30.5t7.5 18.5q9 18 9 26q0 6 -4.5 9t-16.5 3h-171v-300h20q43 0 70 19t56 61l7 10h12v-200h-12l-7 10q-29 42 -56 61t-70 19h-20v-340
h171q12 0 16.5 3t4.5 9q0 8 -9 26q-1 3 -7.5 18.5t-6.5 30.5q0 31 19 52.5t54 21.5q34 0 57.5 -13.5t26.5 -34.5q-19 0 -31 -17.5t-12 -41.5q0 -22 13.5 -43.5t36.5 -21.5v-9h-531v9l35 7q19 4 31 18t12 34v137h-265l-71 -113q-16 -25 -16 -44q0 -23 24 -31l23 -8l-4 -9
h-212l4 9l2 1q107 28 154 104l362 586h452v-9q-23 0 -36.5 -21.5zM501 224l1 190l-1 229l-251 -419h251z" />
    <glyph glyph-name="B" unicode="B" 
d="M24 0v9l35 7q19 4 31 18t12 34v564q0 20 -12 34t-31 18l-35 7v9h239q59 0 105.5 -10.5t77.5 -28.5q62 -38 62 -96q0 -39 -32 -68q-24 -22 -68 -38q-44 -15 -100 -19q82 -6 145 -31q70 -30 101 -64q45 -52 45 -120q0 -47 -23.5 -87.5t-68.5 -71.5q-44 -31 -107 -48.5
t-137 -17.5h-239zM222 450h41q60 1 92.5 30.5t32.5 84.5t-32.5 85t-92.5 30h-41v-230zM222 430v-410h41q89 0 145 52q28 28 43 67t15 86t-15 86t-43 67q-56 52 -145 52h-41z" />
    <glyph glyph-name="B.ss01" unicode="&#xe007;" 
d="M599 225q0 -47 -23.5 -87.5t-68.5 -71.5q-63 -43 -152 -58v-10q0 -78 -38 -143.5t-103.5 -103.5t-142.5 -38q-96 0 -177.5 48t-129 130t-47.5 178q0 99 54.5 184.5t143.5 138.5t187 60v180q0 20 -12 34t-31 18l-35 7v9h239q59 0 105.5 -10.5t77.5 -28.5q62 -38 62 -96
q0 -39 -32 -68q-24 -22 -68 -38q-44 -15 -100 -19q82 -6 145 -31q70 -30 101 -64q45 -52 45 -120zM222 450h41q60 1 92.5 30.5t32.5 84.5t-32.5 85t-92.5 30h-41v-230zM335 5q-38 -5 -72 -5h-239v9l35 7q19 4 31 18t12 34v137q-60 -8 -101 -54.5t-41 -109.5q0 -35 17.5 -65
t47.5 -47.5t65 -17.5q10 0 18 5t19 15q15 13 21 13q5 0 9 -4q7 -7 7 -14q0 -14 -23 -24.5t-51 -10.5q-41 0 -75.5 20t-54.5 54.5t-20 75.5q0 47 21.5 87t58.5 66t82 32v206q-93 -7 -177.5 -57.5t-136 -131.5t-51.5 -174q0 -91 45 -168t121.5 -122.5t167.5 -45.5
q72 0 132.5 35.5t96 96.5t35.5 133v7zM451 139q15 39 15 86t-15 86t-43 67q-56 52 -145 52h-41v-224q51 -23 85.5 -68.5t44.5 -101.5q30 13 56 36q28 28 43 67zM222 20h41q37 0 70 9q-7 50 -37 90.5t-74 64.5v-164z" />
    <glyph glyph-name="B.ss02" unicode="&#xe008;" 
d="M599 225q0 -47 -23.5 -87.5t-68.5 -71.5q-44 -31 -107 -48.5t-137 -17.5q-145 0 -248.5 51t-155.5 130t-52 159q0 52 23 95t68 68t109 25q52 0 95 -30v134q0 20 -12 34t-31 18l-35 7v9h239q59 0 105.5 -10.5t77.5 -28.5q62 -38 62 -96q0 -39 -32 -68q-24 -22 -68 -38
q-44 -15 -100 -19q82 -6 145 -31q70 -30 101 -64q45 -52 45 -120zM222 450h41q60 1 92.5 30.5t32.5 84.5t-32.5 85t-92.5 30h-41v-230zM451 139q15 39 15 86t-15 86t-43 67q-56 52 -145 52h-41v-372l-120 30v157q-30 -16 -64 -16q-45 0 -77 32t-32 77q0 37 26 63t63 26
q23 0 42.5 -9.5t19.5 -21.5q0 -7 -7 -13q-4 -3 -7 -3q-6 0 -17 11q-9 8 -15.5 12t-15.5 4q-29 0 -49 -20t-20 -49q0 -37 26 -63t63 -26q36 0 64 19v204q-19 17 -43.5 26.5t-51.5 9.5q-86 0 -133 -48t-47 -121q0 -75 49.5 -148.5t148.5 -122t238 -48.5q89 0 145 52
q28 28 43 67z" />
    <glyph glyph-name="B.ss03" unicode="&#xe009;" 
d="M2414 -161q25 -17 25 -32q0 -13 -18 -23q-6 -2 -8 -2q-8 0 -16 8t-18 22q-13 17 -21.5 26.5t-19.5 13.5q-166 63 -318 63q-95 0 -179.5 -20.5t-210.5 -63.5q-97 -33 -165 -52.5t-152 -33t-178 -13.5q-152 0 -278 43t-220 107t-191 151q-80 -33 -183 -33
q-59 0 -111.5 18.5t-84.5 54.5t-32 85q0 45 30.5 69.5t88.5 24.5q39 0 79.5 -21t80.5 -54t106 -93q46 57 46 141q0 47 -15 86t-43 67q-56 52 -145 52h-41v-162l-120 20v344q0 20 -12 34t-31 18l-35 7v9h239q59 0 105.5 -10.5t77.5 -28.5q62 -38 62 -96q0 -39 -32 -68
q-24 -22 -68 -38q-44 -15 -100 -19q82 -6 145 -31q70 -30 101 -64q45 -52 45 -120q0 -47 -23.5 -87.5t-68.5 -71.5q-17 -13 -41 -24q95 -84 187.5 -146t214 -103t267.5 -41q92 0 176 14t152.5 34t164.5 53q128 44 214 65t182 21q156 0 324 -67q41 -16 66 -33zM263 450
q60 1 92.5 30.5t32.5 84.5t-32.5 85t-92.5 30h-41v-230h41zM405 70q-68 61 -103.5 91t-73.5 50.5t-74 20.5q-39 0 -69 -16t-30 -58q0 -40 28 -71.5t75.5 -49t104.5 -17.5q88 0 142 50z" />
    <glyph glyph-name="B.ss04" unicode="&#xe00a;" 
d="M1611.5 1074.5q146.5 -85.5 232 -231t85.5 -318.5q0 -215 -106.5 -397.5t-289 -289t-398.5 -106.5q-152 0 -278 43t-220 107t-191 151q-80 -33 -183 -33q-41 0 -95.5 19.5t-93.5 55.5t-39 83q0 45 30.5 69.5t88.5 24.5q39 0 79.5 -21t80.5 -54t106 -93q46 57 46 141
q0 47 -15 86t-43 67q-56 52 -145 52h-41v-162l-120 20v344q0 20 -12 34t-31 18l-35 7v9h239q59 0 105.5 -10.5t77.5 -28.5q62 -38 62 -96q0 -39 -32 -68q-24 -22 -68 -38q-44 -15 -100 -19q82 -6 145 -31q70 -30 101 -64q45 -52 45 -120q0 -47 -23.5 -87.5t-68.5 -71.5
q-17 -13 -41 -24q95 -84 187.5 -146t214 -103t267.5 -41q210 0 388 104t282 281.5t104 387.5q0 167 -83 308.5t-225 224t-310 82.5q-134 0 -246.5 -66t-178.5 -178.5t-66 -246.5q0 -106 52.5 -195t141.5 -141.5t195 -52.5q15 0 37 20q17 15 26 15q7 0 14 -9q4 -4 4 -10
q0 -14 -26 -25t-55 -11q-111 0 -205 55t-149 149t-55 205q0 139 69 256t186 186t256 69q174 0 320.5 -85.5zM263 450q60 1 92.5 30.5t32.5 84.5t-32.5 85t-92.5 30h-41v-230h41zM405 70q-68 61 -103.5 91t-73.5 50.5t-74 20.5q-39 0 -69 -16t-30 -58q0 -38 35 -70t84 -50
t89 -18q88 0 142 50z" />
    <glyph glyph-name="B.ss05" unicode="&#xe00b;" 
d="M1339.5 313q63.5 -37 100.5 -100t37 -138q0 -95 -48.5 -173.5t-137.5 -124t-206 -45.5q-151 0 -271.5 42t-208 105t-174.5 148q-76 -27 -168 -27q-41 0 -95.5 19.5t-93.5 55.5t-39 83q0 45 30.5 69.5t88.5 24.5q38 0 76 -20.5t73 -51.5t94 -89l15 -15q26 27 40 65.5
t14 83.5q0 47 -15 86t-43 67q-56 52 -145 52h-41v-162l-120 20v344q0 20 -12 34t-31 18l-35 7v9h239q59 0 105.5 -10.5t77.5 -28.5q62 -38 62 -96q0 -39 -32 -68q-24 -22 -68 -38q-44 -15 -100 -19q82 -6 145 -31q70 -30 101 -64q45 -52 45 -120q0 -47 -23.5 -87.5
t-68.5 -71.5q-25 -17 -55 -30q85 -82 171 -143t202.5 -101t259.5 -40q111 0 195.5 43t130.5 116.5t46 163.5q0 69 -34.5 127.5t-93 93t-128.5 34.5q-55 0 -101.5 -27.5t-73.5 -74t-27 -101.5q0 -43 21.5 -79.5t58 -58t79.5 -21.5q11 0 21 8t22 23q7 8 14.5 15t13.5 7
q5 0 11 -6q7 -9 7 -15q0 -19 -27.5 -35.5t-61.5 -16.5q-48 0 -89 24.5t-65.5 65.5t-24.5 89q0 61 30 112t81 81t111 30q75 0 138.5 -37zM263 450q60 1 92.5 30.5t32.5 84.5t-32.5 85t-92.5 30h-41v-230h41zM90 88q35 -32 84 -50t89 -18q79 0 133 42q-65 65 -98 96t-70 52.5
t-74 21.5q-39 0 -69 -16t-30 -58q0 -38 35 -70z" />
    <glyph glyph-name="C" unicode="C" horiz-adv-x="577" 
d="M586 190q-9 -87 -80 -147q-32 -27 -75 -42.5t-90 -15.5q-65 0 -123 23.5t-101 67.5q-100 102 -100 274q0 173 99 275q41 43 97.5 66.5t116.5 23.5q87 0 142.5 -29t80 -69t24.5 -74q0 -33 -20.5 -62.5t-61.5 -29.5q-25 0 -44.5 16t-19.5 35q18 4 29 19.5t11 31.5
q0 52 -27 97t-103 45q-81 0 -130 -71q-60 -88 -60 -274q0 -189 61 -273q26 -37 61 -54.5t81 -17.5q32 0 66 14t64 39q29 24 48.5 58.5t24.5 73.5h29z" />
    <glyph glyph-name="C.ss01" unicode="&#xe00c;" horiz-adv-x="577" 
d="M900 998q139 -85 217.5 -230.5t78.5 -319.5q0 -191 -85 -330t-225.5 -211t-303.5 -72q-157 0 -287 72t-204 190.5t-74 252.5q0 99 33 175q-3 23 -3 47q0 137 76 255t201 187t264 69q173 0 312 -85zM876 -76q136 69 218 203.5t82 320.5q0 169 -76 309.5t-210.5 223
t-301.5 82.5q-135 0 -255 -66.5t-193 -179t-73 -245.5v-12q20 35 49 65q41 43 97.5 66.5t116.5 23.5q87 0 142.5 -29t80 -69t24.5 -74q0 -33 -20.5 -62.5t-61.5 -29.5q-25 0 -44.5 16t-19.5 35q18 4 29 19.5t11 31.5q0 52 -27 97t-103 45q-81 0 -130 -71q-60 -88 -60 -274
v-20q54 -69 133.5 -108t171.5 -39q15 0 37 20q17 15 26 15q7 0 14 -9q4 -4 4 -10q0 -14 -26 -25t-55 -11q-88 0 -167 35.5t-136 98.5q9 -132 63 -232t147.5 -155t218.5 -55q158 0 294 69z" />
    <glyph glyph-name="C.ss02" unicode="&#xe00d;" horiz-adv-x="577" 
d="M116 625q41 43 97.5 66.5t116.5 23.5q87 0 142.5 -29t80 -69t24.5 -74q0 -33 -20.5 -62.5t-61.5 -29.5q-25 0 -44.5 16t-19.5 35q18 4 29 19.5t11 31.5q0 52 -27 97t-103 45q-81 0 -130 -71q-60 -88 -60 -274q0 -150 73 -271.5t219.5 -192.5t357.5 -71q127 0 241 21.5
t207.5 53t224.5 83.5q124 48 205 76t177 47t199 19q93 0 171.5 -46t124.5 -125t46 -172q0 -75 -37 -138t-100.5 -100t-138.5 -37q-60 0 -111 30t-81 81t-30 112q0 48 24.5 89t65.5 65.5t89 24.5q34 0 61.5 -16.5t27.5 -35.5q0 -6 -7 -15q-6 -6 -11 -6q-6 0 -13.5 7t-14.5 15
q-12 15 -22 23t-21 8q-43 0 -79.5 -21.5t-58 -58t-21.5 -79.5q0 -55 27 -101.5t73.5 -74t101.5 -27.5q70 0 128.5 34.5t93 93t34.5 127.5q0 88 -43.5 162t-117 117.5t-161.5 43.5q-101 0 -196.5 -19t-177 -47t-202.5 -75q-131 -52 -225 -83.5t-209.5 -53.5t-243.5 -22
q-235 0 -413.5 80.5t-274.5 209t-96 265.5q0 173 99 275z" />
    <glyph glyph-name="C.ss03" unicode="&#xe00e;" horiz-adv-x="577" 
d="M2453.5 8.5q182.5 -106.5 289 -289t106.5 -397.5q0 -173 -85.5 -318.5t-232 -231t-320.5 -85.5q-139 0 -256 69t-186 186t-69 256q0 111 55 205t149 149t205 55q29 0 55 -11t26 -25q0 -6 -4 -10q-7 -9 -15 -9t-25 15q-22 20 -37 20q-106 0 -195 -52.5t-141.5 -141.5
t-52.5 -195q0 -134 66 -246.5t178.5 -178.5t246.5 -66q168 0 310 82.5t225 224t83 308.5q0 210 -104 387.5t-282 281.5t-388 104q-101 0 -196.5 -19t-177 -47t-202.5 -75q-131 -52 -225 -83.5t-209.5 -53.5t-243.5 -22q-235 0 -413.5 80.5t-274.5 209t-96 265.5
q0 173 99 275q41 43 97.5 66.5t116.5 23.5q87 0 142.5 -29t80 -69t24.5 -74q0 -33 -20.5 -62.5t-61.5 -29.5q-25 0 -44.5 16t-19.5 35q18 4 29 19.5t11 31.5q0 52 -27 97t-103 45q-81 0 -130 -71q-60 -88 -60 -274q0 -150 73 -271.5t219.5 -192.5t357.5 -71q127 0 241 21.5
t207.5 53t224.5 83.5q124 48 205 76t177 47t199 19q216 0 398.5 -106.5z" />
    <glyph glyph-name="Cacute" unicode="&#x106;" horiz-adv-x="577" 
d="M586 190q-9 -87 -80 -147q-32 -27 -75 -42.5t-90 -15.5q-65 0 -123 23.5t-101 67.5q-100 102 -100 274q0 173 99 275q41 43 97.5 66.5t116.5 23.5q87 0 142.5 -29t80 -69t24.5 -74q0 -33 -20.5 -62.5t-61.5 -29.5q-25 0 -44.5 16t-19.5 35q18 4 29 19.5t11 31.5
q0 52 -27 97t-103 45q-81 0 -130 -71q-60 -88 -60 -274q0 -189 61 -273q26 -37 61 -54.5t81 -17.5q32 0 66 14t64 39q29 24 48.5 58.5t24.5 73.5h29zM290 875h108l-120 -120h-36z" />
    <glyph glyph-name="Ccaron" unicode="&#x10c;" horiz-adv-x="577" 
d="M586 190q-9 -87 -80 -147q-32 -27 -75 -42.5t-90 -15.5q-65 0 -123 23.5t-101 67.5q-100 102 -100 274q0 173 99 275q41 43 97.5 66.5t116.5 23.5q87 0 142.5 -29t80 -69t24.5 -74q0 -33 -20.5 -62.5t-61.5 -29.5q-25 0 -44.5 16t-19.5 35q18 4 29 19.5t11 31.5
q0 52 -27 97t-103 45q-81 0 -130 -71q-60 -88 -60 -274q0 -189 61 -273q26 -37 61 -54.5t81 -17.5q32 0 66 14t64 39q29 24 48.5 58.5t24.5 73.5h29zM335 820l108 60l17 -12l-125 -118l-125 118l17 12z" />
    <glyph glyph-name="Ccedilla" unicode="&#xc7;" horiz-adv-x="577" 
d="M586 190q-9 -87 -80 -147q-32 -27 -75 -42.5t-90 -15.5q-65 0 -123 23.5t-101 67.5q-100 102 -100 274q0 173 99 275q41 43 97.5 66.5t116.5 23.5q87 0 142.5 -29t80 -69t24.5 -74q0 -33 -20.5 -62.5t-61.5 -29.5q-25 0 -44.5 16t-19.5 35q18 4 29 19.5t11 31.5
q0 52 -27 97t-103 45q-81 0 -130 -71q-60 -88 -60 -274q0 -189 61 -273q26 -37 61 -54.5t81 -17.5q32 0 66 14t64 39q29 24 48.5 58.5t24.5 73.5h29zM250 0h25v-35q37 0 56 -16.5t19 -43.5q0 -28 -21.5 -44t-68.5 -16q-15 0 -29 2l-11 3v21l9 -3q9 -3 21 -3q22 0 33.5 12
t11.5 28q0 20 -11.5 32.5t-33.5 12.5v50z" />
    <glyph glyph-name="D" unicode="D" horiz-adv-x="668" 
d="M256 700q86 0 160 -24t126 -69q58 -48 87 -113t29 -144q0 -162 -116 -258q-53 -44 -126.5 -68t-159.5 -24h-232v9l35 7q19 4 31 18t12 34v564q0 20 -12 34t-31 18l-35 7v9h232zM222 680v-660h34q119 0 190 77q38 40 58 105t20 148t-20 148t-58 105q-71 77 -190 77h-34z
" />
    <glyph glyph-name="D.ss01" unicode="&#xe00f;" horiz-adv-x="668" 
d="M629 494q29 -65 29 -144q0 -162 -116 -258q-122 -102 -326 -102q-98 0 -174 41.5t-118 111.5t-42 151q0 61 29.5 114t79.5 85.5t111 36.5v102q0 20 -12 34t-31 18l-35 7v9h232q86 0 160 -24t126 -69q58 -48 87 -113zM504 202q20 65 20 148t-20 148t-58 105
q-71 77 -190 77h-34v-179q40 -26 64 -69t24 -93q0 -45 -24 -82.5t-64 -57.5v-165l-120 24v138q-33 15 -53 46t-20 68q0 26 9 48.5t22 22.5q5 0 9 -3q8 -6 8 -11q0 -6 -11 -19q-17 -21 -17 -38q0 -30 14.5 -54t38.5 -38v292q-55 -4 -101 -34t-72.5 -78t-26.5 -104
q0 -76 39 -141.5t110.5 -104t164.5 -38.5q71 0 128.5 19.5t101.5 67.5q38 40 58 105zM222 222q31 18 49.5 48.5t18.5 68.5q0 41 -18.5 77t-49.5 60v-254z" />
    <glyph glyph-name="D.ss02" unicode="&#xe010;" horiz-adv-x="668" 
d="M2367 -171q25 -17 25 -32q0 -13 -18 -23q-6 -2 -8 -2q-8 0 -16 8t-18 22q-13 17 -21.5 26.5t-19.5 13.5q-168 66 -320 66q-94 0 -179 -21t-209 -64q-95 -33 -163.5 -53t-153 -34t-178.5 -14q-151 0 -275.5 42t-218.5 105.5t-189 148.5q-84 -28 -189 -28
q-59 0 -111.5 18.5t-84.5 54.5t-32 85q0 45 30.5 69.5t88.5 24.5q38 0 78.5 -20.5t80 -52.5t102.5 -90l27 -25q28 19 51 43q38 40 58 105t20 148t-20 148t-58 105q-71 77 -190 77h-34v-436q-53 37 -120 34v354q0 20 -12 34t-31 18l-35 7v9h232q86 0 160 -24t126 -69
q58 -48 87 -113t29 -144q0 -162 -116 -258q-50 -42 -115 -67q94 -82 186 -142.5t212 -100.5t263 -40q92 0 176 14t152.5 34t164.5 53q128 44 214 65t182 21q152 0 324 -67q41 -16 66 -33zM376 43l-30 28q-61 55 -96.5 84t-72 48t-70.5 19q-39 0 -69 -16t-30 -58
q0 -40 28 -71.5t75.5 -49t104.5 -17.5q97 0 160 33z" />
    <glyph glyph-name="D.ss03" unicode="&#xe011;" horiz-adv-x="668" 
d="M1564.5 1064.5q146.5 -85.5 232 -231t85.5 -318.5q0 -215 -106.5 -397.5t-289 -289t-398.5 -106.5q-151 0 -275.5 42t-218.5 105.5t-189 148.5q-84 -28 -189 -28q-41 0 -95.5 19.5t-93.5 55.5t-39 83q0 45 30.5 69.5t88.5 24.5q38 0 78.5 -20.5t80 -52.5t102.5 -90
l27 -25q28 19 51 43q38 40 58 105t20 148t-20 148t-58 105q-71 77 -190 77h-34v-436q-53 37 -120 34v354q0 20 -12 34t-31 18l-35 7v9h232q86 0 160 -24t126 -69q58 -48 87 -113t29 -144q0 -162 -116 -258q-50 -42 -115 -67q94 -82 186 -142.5t212 -100.5t263 -40
q210 0 388 104t282 281.5t104 387.5q0 167 -83 308.5t-225 224t-310 82.5q-134 0 -246.5 -66t-178.5 -178.5t-66 -246.5q0 -106 52.5 -195t141.5 -141.5t195 -52.5q15 0 37 20q17 15 26 15q7 0 14 -9q4 -4 4 -10q0 -14 -26 -25t-55 -11q-111 0 -205 55t-149 149t-55 205
q0 139 69 256t186 186t256 69q174 0 320.5 -85.5zM376 43l-30 28q-61 55 -96.5 84t-72 48t-70.5 19q-39 0 -69 -16t-30 -58q0 -38 35 -70t84 -50t89 -18q97 0 160 33z" />
    <glyph glyph-name="D.ss04" unicode="&#xe012;" horiz-adv-x="668" 
d="M1292.5 303q63.5 -37 100.5 -100t37 -138q0 -92 -56 -171t-146.5 -125.5t-189.5 -46.5q-139 0 -255.5 42t-204.5 104.5t-179 147.5q-84 -26 -183 -26q-41 0 -95.5 19.5t-93.5 55.5t-39 83q0 45 30.5 69.5t88.5 24.5q39 0 79 -21t79 -54t101 -92l25 -23q29 16 55 45
q38 40 58 105t20 148t-20 148t-58 105q-71 77 -190 77h-34v-436q-53 37 -120 34v354q0 20 -12 34t-31 18l-35 7v9h232q86 0 160 -24t126 -69q58 -48 87 -113t29 -144q0 -162 -116 -258q-53 -44 -121 -69q89 -82 175.5 -142t198 -99.5t243.5 -39.5q93 0 179.5 43.5t139.5 118
t53 161.5q0 69 -34.5 127.5t-93 93t-128.5 34.5q-55 0 -101.5 -27.5t-73.5 -74t-27 -101.5q0 -43 21.5 -79.5t58 -58t79.5 -21.5q11 0 21 8t22 23q7 8 14.5 15t13.5 7q5 0 11 -6q7 -9 7 -15q0 -19 -27.5 -35.5t-61.5 -16.5q-48 0 -89 24.5t-65.5 65.5t-24.5 89q0 61 30 112
t81 81t111 30q75 0 138.5 -37zM372 41l-21 20q-60 58 -96.5 89t-74 51.5t-73.5 20.5q-39 0 -69 -16t-30 -58q0 -38 35 -70t84 -50t89 -18q91 0 156 31z" />
    <glyph glyph-name="Eth" unicode="&#xd0;" horiz-adv-x="668" 
d="M629 494q29 -65 29 -144q0 -162 -116 -258q-53 -44 -126.5 -68t-159.5 -24h-232v9l35 7q19 4 31 18t12 34v272h-77v20h77v272q0 20 -12 34t-31 18l-35 7v9h232q86 0 160 -24t126 -69q58 -48 87 -113zM504 202q20 65 20 148t-20 148t-58 105q-71 77 -190 77h-34v-320h88
v-20h-88v-320h34q119 0 190 77q38 40 58 105z" />
    <glyph glyph-name="Dcaron" unicode="&#x10e;" horiz-adv-x="668" 
d="M256 700q86 0 160 -24t126 -69q58 -48 87 -113t29 -144q0 -162 -116 -258q-53 -44 -126.5 -68t-159.5 -24h-232v9l35 7q19 4 31 18t12 34v564q0 20 -12 34t-31 18l-35 7v9h232zM222 680v-660h34q119 0 190 77q38 40 58 105t20 148t-20 148t-58 105q-71 77 -190 77h-34z
M305 819l108 60l17 -12l-125 -118l-125 118l17 12z" />
    <glyph glyph-name="Dcroat" unicode="&#x110;" horiz-adv-x="668" 
d="M629 494q29 -65 29 -144q0 -162 -116 -258q-53 -44 -126.5 -68t-159.5 -24h-232v9l35 7q19 4 31 18t12 34v272h-77v20h77v272q0 20 -12 34t-31 18l-35 7v9h232q86 0 160 -24t126 -69q58 -48 87 -113zM504 202q20 65 20 148t-20 148t-58 105q-71 77 -190 77h-34v-320h88
v-20h-88v-320h34q119 0 190 77q38 40 58 105z" />
    <glyph glyph-name="E" unicode="E" 
d="M573 117.5q-8 -25.5 -8 -54.5q0 -24 6 -39t18 -15v-9h-565v9l35 7q19 4 31 18t12 34v564q0 20 -12 34t-31 18l-35 7v9h565v-9q-12 0 -18 -15t-6 -39q0 -29 8 -54.5t19 -25.5q-20 -14 -37 -14q-22 0 -35.5 19.5t-30.5 59.5q-11 29 -20.5 43.5t-21.5 14.5h-186
q-17 0 -28 -15.5t-11 -35.5v-249h20q46 0 88 21.5t68 58.5l7 10h12v-200h-12l-7 10q-26 37 -68 58.5t-88 21.5h-20v-284q0 -24 16 -40t40 -16h169q12 0 21.5 14.5t20.5 43.5q17 40 30.5 59.5t35.5 19.5q17 0 37 -14q-11 0 -19 -25.5z" />
    <glyph glyph-name="E.ss01" unicode="&#xe013;" 
d="M586 190q-9 -87 -80 -147q-31 -27 -79 -42.5t-96 -15.5q-96 0 -167.5 25.5t-109 70t-37.5 99.5q0 81 64 133t212 67q-89 21 -149 67t-60 103q0 49 32.5 87t85 58t111.5 20q86 0 141.5 -26t80 -61.5t24.5 -64.5q0 -33 -20.5 -62.5t-61.5 -29.5q-25 0 -44.5 16t-19.5 35
q18 4 29 25.5t11 45.5q0 22 -11.5 45t-40.5 40t-78 17q-64 0 -104.5 -35t-40.5 -90q0 -40 30 -83.5t83 -72.5t119 -29l1 -20q-92 0 -150 -26t-84 -68t-26 -91q0 -175 193 -175q34 0 72.5 14t67.5 39q29 24 48.5 58.5t24.5 73.5h29z" />
    <glyph glyph-name="E.ss02" unicode="&#xe014;" 
d="M528 75q-38 -52 -103 -75q-2 -76 -40.5 -139.5t-103 -100.5t-140.5 -37q-95 0 -176.5 53t-129.5 139.5t-48 183.5q0 103 42.5 185t114 135t158.5 73q-18 27 -18 58q0 49 32.5 87t85 58t111.5 20q86 0 141.5 -26t80 -61.5t24.5 -64.5q0 -33 -20.5 -62.5t-61.5 -29.5
q-25 0 -44.5 16t-19.5 35q18 4 29 25.5t11 45.5q0 22 -11.5 45t-40.5 40t-78 17q-64 0 -104.5 -35t-40.5 -90q0 -32 20 -67h2q82 0 167.5 -37t142 -106t56.5 -160q0 -73 -38 -125zM506 88.5q31 46.5 31 111.5q0 83 -49.5 146.5t-125 98.5t-151.5 38q32 -43 83.5 -70.5
t115.5 -27.5l1 -20q-109 0 -171 -36.5t-81 -94.5q18 3 36 3q61 0 112 -28.5t83 -78t35 -109.5q50 21 81 67.5zM269.5 -223.5q59.5 33.5 95.5 91t40 126.5q-34 -9 -74 -9q-108 0 -184.5 32t-108.5 86q-8 -26 -8 -52q0 -35 17.5 -65t47.5 -47.5t65 -17.5q10 0 18 5t19 15
q15 13 21 13q5 0 9 -4q7 -7 7 -14q0 -14 -23 -24.5t-51 -10.5q-41 0 -75.5 20t-54.5 54.5t-20 75.5q0 39 16 77q-9 24 -9 52q0 81 64 133t212 67q-57 14 -103.5 38t-74.5 56q-84 -17 -154 -67t-112 -129t-42 -179q0 -91 45 -173.5t122 -132.5t167 -50q69 0 128.5 33.5z
M151 180q0 -175 193 -175q33 0 61 9q-1 56 -30 102.5t-76.5 73.5t-103.5 27q-19 0 -41 -5q-3 -16 -3 -32z" />
    <glyph glyph-name="E.ss03" unicode="&#xe015;" 
d="M515 51q30 -54 30 -115q0 -78 -38.5 -143.5t-103.5 -103.5t-142 -38q-97 0 -178 48t-128.5 130t-47.5 179q0 95 50 177t132 135.5t176 66.5q-79 25 -130 68t-51 95q0 49 32.5 87t85 58t111.5 20q86 0 141.5 -26t80 -61.5t24.5 -64.5q0 -33 -20.5 -62.5t-61.5 -29.5
q-25 0 -44.5 16t-19.5 35q18 4 29 25.5t11 45.5q0 22 -11.5 45t-40.5 40t-78 17q-64 0 -104.5 -35t-40.5 -90q0 -40 30 -83.5t83 -72.5t119 -29l1 -20q-92 0 -150 -26t-84 -68t-26 -91q0 -53 17 -87q25 33 64 52.5t83 19.5q55 0 104 -24.5t81 -67.5q22 23 37.5 53.5
t19.5 63.5h29q-9 -82 -71 -139zM392.5 -293.5q60.5 35.5 96.5 95.5t36 132q0 54 -27 103q-31 -24 -76.5 -38t-90.5 -14q-100 0 -177 29q-4 -16 -4 -37q0 -35 17.5 -64.5t47.5 -46.5t65 -17q10 0 18 5t19 15q15 13 21 13q5 0 9 -4q6 -8 6 -14q0 -14 -22.5 -24.5t-50.5 -10.5
q-41 0 -75 20t-54.5 54.5t-20.5 75.5q0 26 5 43q-57 27 -87.5 68t-30.5 90q0 37 11 64q-47 -50 -74 -111t-27 -128q0 -91 45 -167.5t121.5 -121.5t167.5 -45q71 0 131.5 35.5zM237 125.5q-36 -19.5 -58 -52.5q46 -68 165 -68q34 0 72.5 14t67.5 39l1 1q-30 40 -74.5 63
t-95.5 23q-42 0 -78 -19.5z" />
    <glyph glyph-name="E.ss04" unicode="&#xe016;" 
d="M554.5 270.5q31.5 -33.5 31.5 -80.5q0 -51 -36 -98.5t-95.5 -77t-123.5 -29.5q-114 0 -192 36q-123 -117 -266 -187t-337 -70q-117 0 -206 45.5t-137.5 124t-48.5 173.5q0 75 37 138t100.5 100t138.5 37q60 0 111 -30t81 -81t30 -112q0 -48 -24.5 -89t-65.5 -65.5
t-89 -24.5q-34 0 -61.5 16.5t-27.5 35.5q0 6 7 15q6 6 11 6q6 0 13.5 -7t14.5 -15q12 -15 22 -23t21 -8q43 0 79.5 21.5t58 58t21.5 79.5q0 55 -27 101.5t-73.5 74t-101.5 27.5q-70 0 -128.5 -34.5t-93 -93t-34.5 -127.5q0 -90 46 -163.5t130.5 -116.5t195.5 -43
q186 0 324.5 67t258.5 179q-49 27 -75.5 65.5t-26.5 84.5q0 81 64 133t212 67q-89 21 -149 67t-60 103q0 49 32.5 87t85 58t111.5 20q86 0 141.5 -26t80 -61.5t24.5 -64.5q0 -33 -20.5 -62.5t-61.5 -29.5q-25 0 -44.5 16t-19.5 35q18 4 29 25.5t11 45.5q0 22 -11.5 45
t-40.5 40t-78 17q-64 0 -104.5 -35t-40.5 -90q0 -40 30 -83.5t83 -72.5t119 -29l1 -20q-92 0 -150 -26t-84 -68t-26 -91q0 -57 22 -97l51 52q57 59 93 92.5t74 55t76 21.5q56 0 87.5 -33.5zM447 30.5q52 25.5 85.5 68.5t33.5 91q0 30 -16 51t-39 32t-44 11
q-35 0 -70.5 -20.5t-70 -52.5t-88.5 -90l-54 -56q47 -60 160 -60q51 0 103 25.5z" />
    <glyph glyph-name="E.ss05" unicode="&#xe017;" 
d="M554.5 270.5q31.5 -33.5 31.5 -80.5q0 -51 -36 -98.5t-95.5 -77t-123.5 -29.5q-114 0 -192 36q-123 -117 -266 -187t-337 -70q-216 0 -398.5 106.5t-289 289t-106.5 397.5q0 173 85.5 318.5t232 231t320.5 85.5q139 0 256 -69t186 -186t69 -256q0 -111 -55 -205
t-149 -149t-205 -55q-29 0 -55 11t-26 25q0 6 4 10q7 9 14 9q9 0 26 -15q22 -20 37 -20q106 0 195 52.5t141.5 141.5t52.5 195q0 134 -66 246.5t-178.5 178.5t-246.5 66q-168 0 -310 -82.5t-225 -224t-83 -308.5q0 -210 104 -387.5t282 -281.5t388 -104q186 0 324.5 67
t258.5 179q-49 27 -75.5 65.5t-26.5 84.5q0 81 64 133t212 67q-89 21 -149 67t-60 103q0 49 32.5 87t85 58t111.5 20q86 0 141.5 -26t80 -61.5t24.5 -64.5q0 -33 -20.5 -62.5t-61.5 -29.5q-25 0 -44.5 16t-19.5 35q18 4 29 25.5t11 45.5q0 22 -11.5 45t-40.5 40t-78 17
q-64 0 -104.5 -35t-40.5 -90q0 -40 30 -83.5t83 -72.5t119 -29l1 -20q-92 0 -150 -26t-84 -68t-26 -91q0 -57 22 -97l51 52q57 59 93 92.5t74 55t76 21.5q56 0 87.5 -33.5zM447 30.5q52 25.5 85.5 68.5t33.5 91q0 30 -16 51t-39 32t-44 11q-35 0 -70.5 -20.5t-70 -52.5
t-88.5 -90l-54 -56q47 -60 160 -60q51 0 103 25.5z" />
    <glyph glyph-name="E.ss06" unicode="&#xe018;" 
d="M3967 1172q4 -5 4 -13q0 -13 -7.5 -29.5t-20.5 -29.5q-90 -94 -238 -161.5t-339 -103t-410 -35.5q-141 0 -316.5 33.5t-354 83.5t-456.5 135q-321 98 -540.5 158.5t-452 102.5t-435.5 42q-274 0 -505 -45.5t-400 -130.5q112 -26 202 -98.5t141.5 -176.5t51.5 -223
q0 -111 -55 -205t-149 -149t-205 -55q-105 0 -194 52.5t-141.5 141.5t-52.5 194q0 155 88.5 284.5t253.5 224.5q-27 3 -56 3q-168 0 -310 -82.5t-225 -224t-83 -308.5q0 -210 104 -387.5t282 -281.5t388 -104q186 0 324.5 67t258.5 179q-49 27 -75.5 65.5t-26.5 84.5
q0 81 64 133t212 67q-89 21 -149 67t-60 103q0 49 32.5 87t85 58t111.5 20q86 0 141.5 -26t80 -61.5t24.5 -64.5q0 -33 -20.5 -62.5t-61.5 -29.5q-25 0 -44.5 16t-19.5 35q18 4 29 25.5t11 45.5q0 22 -11.5 45t-40.5 40t-78 17q-64 0 -104.5 -35t-40.5 -90q0 -40 30 -83.5
t83 -72.5t119 -29l1 -20q-92 0 -150 -26t-84 -68t-26 -91q0 -57 22 -97l51 52q57 59 93 92.5t74 55t76 21.5q56 0 87.5 -33.5t31.5 -80.5q0 -51 -36 -98.5t-95.5 -77t-123.5 -29.5q-114 0 -192 36q-123 -117 -266 -187t-337 -70q-216 0 -398.5 106.5t-289 289t-106.5 397.5
q0 173 85.5 318.5t232 231t320.5 85.5q46 0 85 -7q173 92 411.5 141t524.5 49q204 0 438 -42t454 -102.5t543 -159.5q285 -87 459 -135.5t347.5 -82t313.5 -33.5q216 0 404.5 35t334 101t234.5 158q6 9 6 32q0 16 3.5 23.5t16.5 7.5q8 0 12 -5zM-181.5 903
q-52.5 103 -144.5 172t-206 89q-171 -92 -262.5 -220.5t-91.5 -283.5q0 -100 49.5 -184.5t134 -134t184.5 -49.5q106 0 195 52.5t141.5 141.5t52.5 195q0 119 -52.5 222zM396.5 263.5q-35.5 -20.5 -70 -52.5t-88.5 -90l-54 -56q47 -60 160 -60q51 0 103 25.5t85.5 68.5
t33.5 91q0 30 -16 51t-39 32t-44 11q-35 0 -70.5 -20.5z" />
    <glyph glyph-name="E.ss07" unicode="&#xe019;" 
d="M1508.5 170q63.5 -37 100.5 -100t37 -138q0 -93 -46 -172t-124.5 -125t-171.5 -46q-155 0 -279 32t-214 77.5t-208 119.5q-99 62 -167 98t-152 60t-182 24h-78v9l35 7q19 4 31 18t12 34v564q0 20 -12 34t-31 18l-35 7v9h561v-9q-23 0 -36.5 -21.5t-13.5 -43.5
q0 -24 12 -41.5t31 -17.5q-3 -21 -26.5 -34.5t-57.5 -13.5q-35 0 -54 21.5t-19 52.5q0 15 6.5 30.5t7.5 18.5q9 18 9 26q0 6 -4.5 9t-16.5 3h-201v-300h20q46 0 88 21.5t68 58.5l7 10h12v-200h-12l-7 10q-26 37 -68 58.5t-88 21.5h-20v-344q144 -10 253 -44t182.5 -76
t169.5 -110q86 -61 146.5 -95.5t143 -58t187.5 -23.5q88 0 161.5 43.5t117 117.5t43.5 162q0 69 -34.5 127.5t-93 93t-128.5 34.5q-55 0 -101.5 -27.5t-73.5 -74t-27 -101.5q0 -43 21.5 -79.5t58 -58t79.5 -21.5q11 0 21 8t22 23q7 8 14.5 15t13.5 7q5 0 11 -6q7 -9 7 -15
q0 -19 -27.5 -35.5t-61.5 -16.5q-48 0 -89 24.5t-65.5 65.5t-24.5 89q0 61 30 112t81 81t111 30q75 0 138.5 -37z" />
    <glyph glyph-name="E.ss08" unicode="&#xe01a;" 
d="M1780.5 931.5q146.5 -85.5 232 -231t85.5 -318.5q0 -215 -106.5 -397.5t-289 -289t-398.5 -106.5q-155 0 -279 32t-214 77.5t-208 119.5q-99 62 -167 98t-152 60t-182 24h-78v9l35 7q19 4 31 18t12 34v564q0 20 -12 34t-31 18l-35 7v9h561v-9q-23 0 -36.5 -21.5
t-13.5 -43.5q0 -24 12 -41.5t31 -17.5q-3 -21 -26.5 -34.5t-57.5 -13.5q-35 0 -54 21.5t-19 52.5q0 15 6.5 30.5t7.5 18.5q9 18 9 26q0 6 -4.5 9t-16.5 3h-201v-300h20q46 0 88 21.5t68 58.5l7 10h12v-200h-12l-7 10q-26 37 -68 58.5t-88 21.5h-20v-344q144 -10 253 -44
t182.5 -76t169.5 -110q86 -61 146.5 -95.5t143 -58t187.5 -23.5q210 0 388 104t282 281.5t104 387.5q0 167 -83 308.5t-225 224t-310 82.5q-134 0 -246.5 -66t-178.5 -178.5t-66 -246.5q0 -106 52.5 -195t141.5 -141.5t195 -52.5q15 0 37 20q17 15 26 15q7 0 14 -9
q4 -4 4 -10q0 -14 -26 -25t-55 -11q-111 0 -205 55t-149 149t-55 205q0 139 69 256t186 186t256 69q174 0 320.5 -85.5z" />
    <glyph glyph-name="E.ss09" unicode="&#xe01b;" 
d="M24 9l35 7q19 4 31 18t12 34v564q0 20 -12 34t-31 18l-35 7v9h561v-9q-23 0 -36.5 -21.5t-13.5 -43.5q0 -24 12 -41.5t31 -17.5q-3 -21 -26.5 -34.5t-57.5 -13.5q-35 0 -54 21.5t-19 52.5q0 15 6.5 30.5t7.5 18.5q9 18 9 26q0 6 -4.5 9t-16.5 3h-201v-300h20
q46 0 88 21.5t68 58.5l7 10h12v-200h-12l-7 10q-26 37 -68 58.5t-88 21.5h-20v-340h201q12 0 16.5 3t4.5 9q0 8 -9 26q-1 3 -7.5 18.5t-6.5 30.5q0 31 19 52.5t54 21.5q34 0 57.5 -13.5t26.5 -34.5q-19 0 -31 -17.5t-12 -41.5q0 -22 13.5 -43.5t36.5 -21.5v-9h-561v9z" />
    <glyph glyph-name="E.ss10" unicode="&#xe01c;" 
d="M1508.5 170q63.5 -37 100.5 -100t37 -138q0 -93 -46 -172t-124.5 -125t-171.5 -46q-155 0 -279 32t-214 77.5t-208 119.5q-99 62 -167 98t-152 60t-182 24h-78v9l35 7q19 4 31 18t12 34v564q0 20 -12 34t-31 18l-35 7v9h565v-9q-12 0 -18 -15t-6 -39q0 -29 8 -54.5
t19 -25.5q-20 -14 -37 -14q-22 0 -35.5 19.5t-30.5 59.5q-11 29 -20.5 43.5t-21.5 14.5h-225v-300h20q46 0 88 21.5t68 58.5l7 10h12v-200h-12l-7 10q-26 37 -68 58.5t-88 21.5h-20v-344q144 -10 253 -44t182.5 -76t169.5 -110q86 -61 146.5 -95.5t143 -58t187.5 -23.5
q88 0 161.5 43.5t117 117.5t43.5 162q0 69 -34.5 127.5t-93 93t-128.5 34.5q-55 0 -101.5 -27.5t-73.5 -74t-27 -101.5q0 -43 21.5 -79.5t58 -58t79.5 -21.5q11 0 21 8t22 23q7 8 14.5 15t13.5 7q5 0 11 -6q7 -9 7 -15q0 -19 -27.5 -35.5t-61.5 -16.5q-48 0 -89 24.5
t-65.5 65.5t-24.5 89q0 61 30 112t81 81t111 30q75 0 138.5 -37z" />
    <glyph glyph-name="E.ss11" unicode="&#xe01d;" 
d="M1780.5 931.5q146.5 -85.5 232 -231t85.5 -318.5q0 -215 -106.5 -397.5t-289 -289t-398.5 -106.5q-155 0 -279 32t-214 77.5t-208 119.5q-99 62 -167 98t-152 60t-182 24h-78v9l35 7q19 4 31 18t12 34v564q0 20 -12 34t-31 18l-35 7v9h565v-9q-12 0 -18 -15t-6 -39
q0 -29 8 -54.5t19 -25.5q-20 -14 -37 -14q-22 0 -35.5 19.5t-30.5 59.5q-11 29 -20.5 43.5t-21.5 14.5h-225v-300h20q46 0 88 21.5t68 58.5l7 10h12v-200h-12l-7 10q-26 37 -68 58.5t-88 21.5h-20v-344q144 -10 253 -44t182.5 -76t169.5 -110q86 -61 146.5 -95.5t143 -58
t187.5 -23.5q210 0 388 104t282 281.5t104 387.5q0 167 -83 308.5t-225 224t-310 82.5q-134 0 -246.5 -66t-178.5 -178.5t-66 -246.5q0 -106 52.5 -195t141.5 -141.5t195 -52.5q15 0 37 20q17 15 26 15q7 0 14 -9q4 -4 4 -10q0 -14 -26 -25t-55 -11q-111 0 -205 55t-149 149
t-55 205q0 139 69 256t186 186t256 69q174 0 320.5 -85.5z" />
    <glyph glyph-name="Eacute" unicode="&#xc9;" 
d="M573 117.5q-8 -25.5 -8 -54.5q0 -24 6 -39t18 -15v-9h-565v9l35 7q19 4 31 18t12 34v564q0 20 -12 34t-31 18l-35 7v9h565v-9q-12 0 -18 -15t-6 -39q0 -29 8 -54.5t19 -25.5q-20 -14 -37 -14q-22 0 -35.5 19.5t-30.5 59.5q-11 29 -20.5 43.5t-21.5 14.5h-186
q-17 0 -28 -15.5t-11 -35.5v-249h20q46 0 88 21.5t68 58.5l7 10h12v-200h-12l-7 10q-26 37 -68 58.5t-88 21.5h-20v-284q0 -24 16 -40t40 -16h169q12 0 21.5 14.5t20.5 43.5q17 40 30.5 59.5t35.5 19.5q17 0 37 -14q-11 0 -19 -25.5zM327 870h108l-120 -120h-36z" />
    <glyph glyph-name="Ecaron" unicode="&#x11a;" 
d="M573 117.5q-8 -25.5 -8 -54.5q0 -24 6 -39t18 -15v-9h-565v9l35 7q19 4 31 18t12 34v564q0 20 -12 34t-31 18l-35 7v9h565v-9q-12 0 -18 -15t-6 -39q0 -29 8 -54.5t19 -25.5q-20 -14 -37 -14q-22 0 -35.5 19.5t-30.5 59.5q-11 29 -20.5 43.5t-21.5 14.5h-186
q-17 0 -28 -15.5t-11 -35.5v-249h20q46 0 88 21.5t68 58.5l7 10h12v-200h-12l-7 10q-26 37 -68 58.5t-88 21.5h-20v-284q0 -24 16 -40t40 -16h169q12 0 21.5 14.5t20.5 43.5q17 40 30.5 59.5t35.5 19.5q17 0 37 -14q-11 0 -19 -25.5zM330 820l108 60l17 -12l-125 -118
l-125 118l17 12z" />
    <glyph glyph-name="Ecircumflex" unicode="&#xca;" 
d="M573 117.5q-8 -25.5 -8 -54.5q0 -24 6 -39t18 -15v-9h-565v9l35 7q19 4 31 18t12 34v564q0 20 -12 34t-31 18l-35 7v9h565v-9q-12 0 -18 -15t-6 -39q0 -29 8 -54.5t19 -25.5q-20 -14 -37 -14q-22 0 -35.5 19.5t-30.5 59.5q-11 29 -20.5 43.5t-21.5 14.5h-186
q-17 0 -28 -15.5t-11 -35.5v-249h20q46 0 88 21.5t68 58.5l7 10h12v-200h-12l-7 10q-26 37 -68 58.5t-88 21.5h-20v-284q0 -24 16 -40t40 -16h169q12 0 21.5 14.5t20.5 43.5q17 40 30.5 59.5t35.5 19.5q17 0 37 -14q-11 0 -19 -25.5zM222 756l-17 12l125 118l125 -118
l-17 -12l-108 60z" />
    <glyph glyph-name="Edieresis" unicode="&#xcb;" 
d="M573 117.5q-8 -25.5 -8 -54.5q0 -24 6 -39t18 -15v-9h-565v9l35 7q19 4 31 18t12 34v564q0 20 -12 34t-31 18l-35 7v9h565v-9q-12 0 -18 -15t-6 -39q0 -29 8 -54.5t19 -25.5q-20 -14 -37 -14q-22 0 -35.5 19.5t-30.5 59.5q-11 29 -20.5 43.5t-21.5 14.5h-186
q-17 0 -28 -15.5t-11 -35.5v-249h20q46 0 88 21.5t68 58.5l7 10h12v-200h-12l-7 10q-26 37 -68 58.5t-88 21.5h-20v-284q0 -24 16 -40t40 -16h169q12 0 21.5 14.5t20.5 43.5q17 40 30.5 59.5t35.5 19.5q17 0 37 -14q-11 0 -19 -25.5zM264.5 775.5q-15.5 -15.5 -34.5 -15.5
t-34.5 15.5t-15.5 34.5t15.5 34.5t34.5 15.5t34.5 -15.5t15.5 -34.5t-15.5 -34.5zM429.5 775.5q-15.5 -15.5 -34.5 -15.5t-34.5 15.5t-15.5 34.5t15.5 34.5t34.5 15.5t34.5 -15.5t15.5 -34.5t-15.5 -34.5z" />
    <glyph glyph-name="Edotaccent" unicode="&#x116;" 
d="M573 117.5q-8 -25.5 -8 -54.5q0 -24 6 -39t18 -15v-9h-565v9l35 7q19 4 31 18t12 34v564q0 20 -12 34t-31 18l-35 7v9h565v-9q-12 0 -18 -15t-6 -39q0 -29 8 -54.5t19 -25.5q-20 -14 -37 -14q-22 0 -35.5 19.5t-30.5 59.5q-11 29 -20.5 43.5t-21.5 14.5h-186
q-17 0 -28 -15.5t-11 -35.5v-249h20q46 0 88 21.5t68 58.5l7 10h12v-200h-12l-7 10q-26 37 -68 58.5t-88 21.5h-20v-284q0 -24 16 -40t40 -16h169q12 0 21.5 14.5t20.5 43.5q17 40 30.5 59.5t35.5 19.5q17 0 37 -14q-11 0 -19 -25.5zM346.5 770.5q-15.5 -15.5 -34.5 -15.5
t-34.5 15.5t-15.5 34.5t15.5 34.5t34.5 15.5t34.5 -15.5t15.5 -34.5t-15.5 -34.5z" />
    <glyph glyph-name="Egrave" unicode="&#xc8;" 
d="M573 117.5q-8 -25.5 -8 -54.5q0 -24 6 -39t18 -15v-9h-565v9l35 7q19 4 31 18t12 34v564q0 20 -12 34t-31 18l-35 7v9h565v-9q-12 0 -18 -15t-6 -39q0 -29 8 -54.5t19 -25.5q-20 -14 -37 -14q-22 0 -35.5 19.5t-30.5 59.5q-11 29 -20.5 43.5t-21.5 14.5h-186
q-17 0 -28 -15.5t-11 -35.5v-249h20q46 0 88 21.5t68 58.5l7 10h12v-200h-12l-7 10q-26 37 -68 58.5t-88 21.5h-20v-284q0 -24 16 -40t40 -16h169q12 0 21.5 14.5t20.5 43.5q17 40 30.5 59.5t35.5 19.5q17 0 37 -14q-11 0 -19 -25.5zM355 750h-36l-120 120h108z" />
    <glyph glyph-name="Emacron" unicode="&#x112;" 
d="M573 117.5q-8 -25.5 -8 -54.5q0 -24 6 -39t18 -15v-9h-565v9l35 7q19 4 31 18t12 34v564q0 20 -12 34t-31 18l-35 7v9h565v-9q-12 0 -18 -15t-6 -39q0 -29 8 -54.5t19 -25.5q-20 -14 -37 -14q-22 0 -35.5 19.5t-30.5 59.5q-11 29 -20.5 43.5t-21.5 14.5h-186
q-17 0 -28 -15.5t-11 -35.5v-249h20q46 0 88 21.5t68 58.5l7 10h12v-200h-12l-7 10q-26 37 -68 58.5t-88 21.5h-20v-284q0 -24 16 -40t40 -16h169q12 0 21.5 14.5t20.5 43.5q17 40 30.5 59.5t35.5 19.5q17 0 37 -14q-11 0 -19 -25.5zM387 825v-35h-230v35h230z" />
    <glyph glyph-name="Eogonek" unicode="&#x118;" 
d="M573 117.5q-8 -25.5 -8 -54.5q0 -24 6 -39t18 -15v-9h-565v9l35 7q19 4 31 18t12 34v564q0 20 -12 34t-31 18l-35 7v9h565v-9q-12 0 -18 -15t-6 -39q0 -29 8 -54.5t19 -25.5q-20 -14 -37 -14q-22 0 -35.5 19.5t-30.5 59.5q-11 29 -20.5 43.5t-21.5 14.5h-186
q-17 0 -28 -15.5t-11 -35.5v-249h20q46 0 88 21.5t68 58.5l7 10h12v-200h-12l-7 10q-26 37 -68 58.5t-88 21.5h-20v-284q0 -24 16 -40t40 -16h169q12 0 21.5 14.5t20.5 43.5q17 40 30.5 59.5t35.5 19.5q17 0 37 -14q-11 0 -19 -25.5zM247 -22q19 10 53 22h40
q-45 -21 -76 -53q-14 -16 -14 -32q0 -15 11 -25t29 -10t32 12q5 3 13 13v-25q-11 -11 -36 -17q-12 -3 -29 -3q-37 0 -56 15.5t-19 39.5q0 34 52 63z" />
    <glyph glyph-name="F" unicode="F" horiz-adv-x="564" 
d="M571 676q-6 -15 -6 -39q0 -29 8 -54.5t19 -25.5q-20 -14 -37 -14q-22 0 -35.5 19.5t-30.5 59.5q-11 29 -20.5 43.5t-21.5 14.5h-186q-17 0 -28 -15.5t-11 -35.5v-249h20q46 0 88 21.5t68 58.5l7 10h12v-200h-12l-7 10q-26 37 -68 58.5t-88 21.5h-20v-292q0 -20 12 -34
t31 -18l35 -7v-9h-276v9l35 7q19 4 31 18t12 34v564q0 20 -12 34t-31 18l-35 7v9h565v-9q-12 0 -18 -15z" />
    <glyph glyph-name="F.ss01" unicode="&#xe01e;" horiz-adv-x="564" 
d="M1582 1065q85 -46 134.5 -124.5t49.5 -172.5q0 -75 -37 -138t-100.5 -100t-138.5 -37q-60 0 -111 30t-81 81t-30 112q0 48 24.5 89t65.5 65.5t89 24.5q34 0 61.5 -16.5t27.5 -35.5q0 -6 -7 -15q-6 -6 -11 -6q-6 0 -13.5 7t-14.5 15q-12 15 -22 23t-21 8
q-43 0 -79.5 -21.5t-58 -58t-21.5 -79.5q0 -55 27 -101.5t73.5 -74t101.5 -27.5q70 0 128.5 34.5t93 93t34.5 127.5q0 88 -46.5 162t-127.5 117.5t-178 43.5q-98 0 -179 -23.5t-144.5 -59.5t-154.5 -97q-113 -75 -199 -120.5t-210 -78t-285 -32.5v-300h20q46 0 88 21.5
t68 58.5l7 10h12v-200h-12l-7 10q-26 37 -68 58.5t-88 21.5h-20v-292q0 -20 12 -34t31 -18l35 -7v-9h-276v9l35 7q19 4 31 18t12 34v564q0 20 -12 34t-31 18l-3 1q-61 9 -137 32.5t-146 60.5t-111 84l16 14q45 -53 128.5 -93t169 -61.5t131.5 -21.5h115q104 0 198 27
t172.5 66.5t192.5 106.5q122 71 204.5 112t185.5 70t219 29q103 0 188 -46z" />
    <glyph glyph-name="F.ss02" unicode="&#xe01f;" horiz-adv-x="564" 
d="M552.5 669.5q-13.5 -21.5 -13.5 -43.5q0 -24 12 -41.5t31 -17.5q-3 -21 -26.5 -34.5t-57.5 -13.5q-35 0 -54 21.5t-19 52.5q0 15 6.5 30.5t7.5 18.5q9 18 9 26q0 6 -4.5 9t-16.5 3h-205v-300h20q46 0 88 21.5t68 58.5l7 10h12v-200h-12l-7 10q-26 37 -68 58.5t-88 21.5
h-20v-223q68 -24 110.5 -83t42.5 -133q0 -78 -38 -143.5t-103.5 -103.5t-142.5 -38q-96 0 -177.5 48t-129 130t-47.5 178q0 95 51 178.5t135 137t179 65.5v259q0 20 -12 34t-31 18l-35 7v9h565v-9q-23 0 -36.5 -21.5zM318 39.5q-37 52.5 -96 76.5v-48q0 -20 12 -34t31 -18
l35 -7v-9h-276v9l35 7q19 4 31 18t12 34v56q-53 -14 -87.5 -58.5t-34.5 -101.5q0 -35 17.5 -65t47.5 -47.5t65 -17.5q10 0 18 5t19 15q15 13 21 13q5 0 9 -4q7 -7 7 -14q0 -14 -23 -24.5t-51 -10.5q-41 0 -75.5 20t-54.5 54.5t-20 75.5q0 65 40 115.5t102 65.5v208
q-90 -12 -169.5 -63t-127.5 -129.5t-48 -168.5q0 -91 45 -168t121.5 -122.5t167.5 -45.5q72 0 132.5 35.5t96 96.5t35.5 133q0 66 -37 118.5z" />
    <glyph glyph-name="F.ss03" unicode="&#xe020;" horiz-adv-x="564" 
d="M1582 1065q85 -46 134.5 -124.5t49.5 -172.5q0 -75 -37 -138t-100.5 -100t-138.5 -37q-60 0 -111 30t-81 81t-30 112q0 48 24.5 89t65.5 65.5t89 24.5q34 0 61.5 -16.5t27.5 -35.5q0 -6 -7 -15q-6 -6 -11 -6q-6 0 -13.5 7t-14.5 15q-12 15 -22 23t-21 8
q-43 0 -79.5 -21.5t-58 -58t-21.5 -79.5q0 -55 27 -101.5t73.5 -74t101.5 -27.5q70 0 128.5 34.5t93 93t34.5 127.5q0 88 -46.5 162t-127.5 117.5t-178 43.5q-98 0 -179 -23.5t-144.5 -59.5t-154.5 -97q-113 -75 -199 -120.5t-210 -78t-285 -32.5v-300h20q46 0 88 21.5
t68 58.5l7 10h12v-200h-12l-7 10q-26 37 -68 58.5t-88 21.5h-20v-292q0 -20 12 -34t31 -18l35 -7v-9h-276v9l35 7q19 4 31 18t12 34v157q-27 -27 -61.5 -41.5t-73.5 -14.5q-64 0 -118.5 32t-86.5 86.5t-32 118.5q0 80 39.5 147.5t107 107t147.5 39.5h198q104 0 198 27
t172.5 66.5t192.5 106.5q122 71 204.5 112t185.5 70t219 29q103 0 188 -46zM42.5 206.5q35.5 17.5 59.5 47.5v199q-19 20 -44.5 31.5t-54.5 11.5q-44 0 -75 -31t-31 -75q0 -12 7.5 -20.5t21.5 -19.5q18 -14 18 -21q0 -6 -7 -12q-7 -5 -12 -5q-17 0 -32.5 27t-15.5 51
q0 34 17 63t46 46t63 17q56 0 99 -35v151q0 24 -11 38t-42 14h-25q-75 0 -137.5 -37.5t-99.5 -101.5t-37 -139q0 -59 29 -109t79 -79t109 -29q40 0 75.5 17.5z" />
    <glyph glyph-name="F.ss04" unicode="&#xe021;" horiz-adv-x="564" 
d="M1792.5 1004.5q182.5 -106.5 289 -289t106.5 -397.5q0 -173 -85.5 -318.5t-232 -231t-320.5 -85.5q-139 0 -256 69t-186 186t-69 256q0 111 55 205t149 149t205 55q29 0 55 -11t26 -25q0 -6 -4 -10q-7 -9 -14 -9q-9 0 -26 15q-22 20 -37 20q-106 0 -195 -52.5
t-141.5 -141.5t-52.5 -195q0 -134 66 -246.5t178.5 -178.5t246.5 -66q168 0 310 82.5t225 224t83 308.5q0 210 -104 387.5t-282 281.5t-388 104q-98 0 -179 -23.5t-144.5 -59.5t-154.5 -97q-113 -75 -199 -120.5t-210 -78t-285 -32.5v-300h20q46 0 88 21.5t68 58.5l7 10h12
v-200h-12l-7 10q-26 37 -68 58.5t-88 21.5h-20v-292q0 -20 12 -34t31 -18l35 -7v-9h-276v9l35 7q19 4 31 18t12 34v564q0 20 -12 34t-31 18l-3 1q-61 9 -137 32.5t-146 60.5t-111 84l16 14q45 -53 128.5 -93t169 -61.5t131.5 -21.5h115q104 0 198 27t172.5 66.5t192.5 106.5
q122 71 204.5 112t185.5 70t219 29q216 0 398.5 -106.5z" />
    <glyph glyph-name="F.ss05" unicode="&#xe022;" horiz-adv-x="564" 
d="M1792.5 1004.5q182.5 -106.5 289 -289t106.5 -397.5q0 -173 -85.5 -318.5t-232 -231t-320.5 -85.5q-139 0 -256 69t-186 186t-69 256q0 111 55 205t149 149t205 55q29 0 55 -11t26 -25q0 -6 -4 -10q-7 -9 -14 -9q-9 0 -26 15q-22 20 -37 20q-106 0 -195 -52.5
t-141.5 -141.5t-52.5 -195q0 -134 66 -246.5t178.5 -178.5t246.5 -66q168 0 310 82.5t225 224t83 308.5q0 210 -104 387.5t-282 281.5t-388 104q-98 0 -179 -23.5t-144.5 -59.5t-154.5 -97q-113 -75 -199 -120.5t-210 -78t-285 -32.5v-300h20q46 0 88 21.5t68 58.5l7 10h12
v-200h-12l-7 10q-26 37 -68 58.5t-88 21.5h-20v-292q0 -20 12 -34t31 -18l35 -7v-9h-276v9l35 7q19 4 31 18t12 34v157q-27 -27 -61.5 -41.5t-73.5 -14.5q-64 0 -118.5 32t-86.5 86.5t-32 118.5q0 80 39.5 147.5t107 107t147.5 39.5h198q104 0 198 27t172.5 66.5
t192.5 106.5q122 71 204.5 112t185.5 70t219 29q216 0 398.5 -106.5zM42.5 206.5q35.5 17.5 59.5 47.5v199q-19 20 -44.5 31.5t-54.5 11.5q-44 0 -75 -31t-31 -75q0 -12 7.5 -20.5t21.5 -19.5q18 -14 18 -21q0 -6 -7 -12q-7 -5 -12 -5q-17 0 -32.5 27t-15.5 51q0 34 17 63
t46 46t63 17q56 0 99 -35v151q0 24 -11 38t-42 14h-25q-75 0 -137.5 -37.5t-99.5 -101.5t-37 -139q0 -59 29 -109t79 -79t109 -29q40 0 75.5 17.5z" />
    <glyph glyph-name="F.ss06" unicode="&#xe023;" horiz-adv-x="564" 
d="M552.5 669.5q-13.5 -21.5 -13.5 -43.5q0 -24 12 -41.5t31 -17.5q-3 -21 -26.5 -34.5t-57.5 -13.5q-35 0 -54 21.5t-19 52.5q0 15 6.5 30.5t7.5 18.5q9 18 9 26q0 6 -4.5 9t-16.5 3h-205v-300h20q46 0 88 21.5t68 58.5l7 10h12v-200h-12l-7 10q-26 37 -68 58.5t-88 21.5
h-20v-292q0 -20 12 -34t31 -18l35 -7v-9h-276v9l35 7q19 4 31 18t12 34v564q0 20 -12 34t-31 18l-35 7v9h565v-9q-23 0 -36.5 -21.5z" />
    <glyph glyph-name="F.ss07" unicode="&#xe024;" horiz-adv-x="564" 
d="M571 676q-6 -15 -6 -39q0 -29 8 -54.5t19 -25.5q-20 -14 -37 -14q-22 0 -35.5 19.5t-30.5 59.5q-11 29 -20.5 43.5t-21.5 14.5h-225v-300h20q46 0 88 21.5t68 58.5l7 10h12v-200h-12l-7 10q-26 37 -68 58.5t-88 21.5h-20v-223q68 -24 110.5 -83t42.5 -133
q0 -78 -38 -143.5t-103.5 -103.5t-142.5 -38q-96 0 -177.5 48t-129 130t-47.5 178q0 95 51 178.5t135 137t179 65.5v259q0 20 -12 34t-31 18l-35 7v9h565v-9q-12 0 -18 -15zM318 39.5q-37 52.5 -96 76.5v-48q0 -20 12 -34t31 -18l35 -7v-9h-276v9l35 7q19 4 31 18t12 34v56
q-53 -14 -87.5 -58.5t-34.5 -101.5q0 -35 17.5 -65t47.5 -47.5t65 -17.5q10 0 18 5t19 15q15 13 21 13q5 0 9 -4q7 -7 7 -14q0 -14 -23 -24.5t-51 -10.5q-41 0 -75.5 20t-54.5 54.5t-20 75.5q0 65 40 115.5t102 65.5v208q-90 -12 -169.5 -63t-127.5 -129.5t-48 -168.5
q0 -91 45 -168t121.5 -122.5t167.5 -45.5q72 0 132.5 35.5t96 96.5t35.5 133q0 66 -37 118.5z" />
    <glyph glyph-name="G" unicode="G" horiz-adv-x="633" 
d="M122 625q41 43 97.5 66.5t116.5 23.5q87 0 142.5 -29t80 -69t24.5 -74q0 -33 -20.5 -62.5t-61.5 -29.5q-25 0 -44.5 16t-19.5 35q18 4 29 19.5t11 31.5q0 52 -27 97t-103 45q-80 0 -130 -71q-29 -43 -44.5 -113t-15.5 -161q0 -193 58 -278q23 -35 55.5 -53.5t67.5 -18.5
q62 0 103 56q48 67 48 209v55h-100v30h220v-85q0 -126 -84 -207q-35 -34 -84.5 -53.5t-102.5 -19.5q-59 0 -118 24.5t-99 66.5q-97 103 -97 274t98 275z" />
    <glyph glyph-name="G.ss01" unicode="&#xe025;" horiz-adv-x="623" 
d="M662 18q42 -59 42 -133q0 -78 -38 -143.5t-103.5 -103.5t-142.5 -38q-96 0 -177 47.5t-129 129t-48 177.5q0 76 33 148q-75 99 -75 248q0 171 98 275q41 43 97.5 66.5t116.5 23.5q87 0 142.5 -29t80 -69t24.5 -74q0 -33 -20.5 -62.5t-61.5 -29.5q-25 0 -44.5 16t-19.5 35
q18 4 29 19.5t11 31.5q0 52 -27 97t-103 45q-80 0 -130 -71q-29 -43 -44.5 -113t-15.5 -161q0 -80 11 -148q61 64 143 101t168 37h120v-75q0 -96 -47 -164q68 -24 110 -83zM311.5 282q-81.5 -38 -138.5 -104q15 -65 42 -106q39 -58 89 -70q20 47 62 77t93 34q20 63 20 152
v55q-86 0 -167.5 -38zM376.5 62q-33.5 -25 -51.5 -62h3q64 0 103 56q8 10 20 36q-41 -5 -74.5 -30zM552.5 -344.5q60.5 35.5 96 96.5t35.5 133q0 69 -40.5 123.5t-104.5 75.5q-12 -15 -24 -26q-35 -34 -84.5 -53.5t-102.5 -19.5h-9q-10 -30 -10 -57q0 -35 17.5 -65
t47.5 -47.5t65 -17.5q10 0 18 5t19 15q15 13 21 13q5 0 9 -4q7 -7 7 -14q0 -14 -23 -24.5t-51 -10.5q-41 0 -75.5 20t-54.5 54.5t-20 75.5q0 30 9 59q-50 5 -96 28t-81 61l-8 8q-27 -64 -27 -130q0 -91 45 -167.5t121.5 -121.5t167.5 -45q72 0 132.5 35.5z" />
    <glyph glyph-name="G.ss02" unicode="&#xe026;" horiz-adv-x="623" 
d="M1699 -293q25 -17 25 -32q0 -13 -18 -23q-6 -2 -8 -2q-8 0 -16 8t-18 22q-13 17 -21.5 26.5t-19.5 13.5q-166 63 -307 63q-87 0 -161 -20t-182 -61q-87 -33 -150.5 -53.5t-145.5 -34.5t-177 -14q-129 0 -227.5 47t-152 128t-54.5 179q0 76 33 148q-75 99 -75 248
q0 171 98 275q41 43 97.5 66.5t116.5 23.5q87 0 142.5 -29t80 -69t24.5 -74q0 -33 -20.5 -62.5t-61.5 -29.5q-25 0 -44.5 16t-19.5 35q18 4 29 19.5t11 31.5q0 52 -27 97t-103 45q-80 0 -130 -71q-29 -43 -44.5 -113t-15.5 -161q0 -80 11 -148q61 64 143 101t168 37h120v-75
q0 -129 -84 -207q-35 -34 -84.5 -53.5t-102.5 -19.5q-58 0 -112 24t-95 67l-8 8q-27 -64 -27 -130q1 -93 52 -169t144.5 -120.5t217.5 -44.5q94 0 175.5 14.5t145.5 35t151 54.5q110 42 185 62.5t163 20.5q145 0 313 -67q41 -16 66 -33zM311.5 282q-81.5 -38 -138.5 -104
q15 -65 42 -106q48 -72 113 -72q64 0 103 56q48 67 48 209v55q-86 0 -167.5 -38z" />
    <glyph glyph-name="G.ss03" unicode="&#xe027;" horiz-adv-x="623" 
d="M2136 -127q11 0 17 -12.5t6 -32.5q0 -40 -19 -69q-74 -113 -241 -177t-386 -64q-119 0 -243 29t-235.5 71t-277.5 113q-208 89 -321 127q-73 -83 -167.5 -130.5t-197.5 -47.5q-107 0 -179 34.5t-72 102.5q0 64 67 98t184 34q155 0 358 -67q76 91 117 210q-13 -18 -31 -34
q-35 -34 -84.5 -53.5t-102.5 -19.5q-58 0 -112 24t-95 67q-97 103 -97 274t98 275q41 43 97.5 66.5t116.5 23.5q87 0 142.5 -29t80 -69t24.5 -74q0 -33 -20.5 -62.5t-61.5 -29.5q-25 0 -44.5 16t-19.5 35q18 4 29 19.5t11 31.5q0 52 -27 97t-103 45q-80 0 -130 -71
q-29 -43 -44.5 -113t-15.5 -161q0 -193 58 -278q48 -72 113 -72q64 0 103 56q48 67 48 209v75h120v-75v-1q0 -101 -39.5 -203.5t-109.5 -185.5q116 -40 313 -125q164 -70 275 -112t234 -71t241 -29q215 0 377 61.5t233 170.5q5 7 5 19q0 10 -9 35q-1 4 -4 12.5t-3 14.5
q0 14 14 20q3 2 10 2zM257 -256q88 44 157 122q-192 63 -343 63q-107 0 -169 -29.5t-62 -82.5q0 -59 66.5 -88t164.5 -29t186 44z" />
    <glyph glyph-name="G.ss04" unicode="&#xe028;" horiz-adv-x="623" 
d="M1737.5 99q63.5 -37 100.5 -100t37 -138q0 -95 -45 -173.5t-127.5 -124t-189.5 -45.5q-119 0 -243 29t-235.5 71t-277.5 113q-208 89 -321 127q-73 -83 -167.5 -130.5t-197.5 -47.5q-107 0 -179 34.5t-72 102.5q0 64 67 98t184 34q155 0 358 -67q76 91 117 210
q-13 -18 -31 -34q-35 -34 -84.5 -53.5t-102.5 -19.5q-58 0 -112 24t-95 67q-97 103 -97 274t98 275q41 43 97.5 66.5t116.5 23.5q87 0 142.5 -29t80 -69t24.5 -74q0 -33 -20.5 -62.5t-61.5 -29.5q-25 0 -44.5 16t-19.5 35q18 4 29 19.5t11 31.5q0 52 -27 97t-103 45
q-80 0 -130 -71q-29 -43 -44.5 -113t-15.5 -161q0 -193 58 -278q48 -72 113 -72q64 0 103 56q48 67 48 209v75h120v-75v-1q0 -101 -39.5 -203.5t-109.5 -185.5q116 -40 313 -125q164 -70 275 -112t234 -71t241 -29q101 0 179 43t120.5 116.5t42.5 163.5q0 69 -34.5 127.5
t-93 93t-128.5 34.5q-55 0 -101.5 -27.5t-73.5 -74t-27 -101.5q0 -43 21.5 -79.5t58 -58t79.5 -21.5q11 0 21 8t22 23q7 8 14.5 15t13.5 7q5 0 11 -6q7 -9 7 -15q0 -19 -27.5 -35.5t-61.5 -16.5q-48 0 -89 24.5t-65.5 65.5t-24.5 89q0 61 30 112t81 81t111 30
q75 0 138.5 -37zM257 -256q88 44 157 122q-192 63 -343 63q-107 0 -169 -29.5t-62 -82.5q0 -59 66.5 -88t164.5 -29t186 44z" />
    <glyph glyph-name="G.ss05" unicode="&#xe029;" horiz-adv-x="623" 
d="M1989.5 860.5q146.5 -85.5 232 -231t85.5 -318.5q0 -215 -106.5 -397.5t-289 -289t-398.5 -106.5q-119 0 -243 29t-235.5 71t-277.5 113q-208 89 -321 127q-73 -83 -167.5 -130.5t-197.5 -47.5q-107 0 -179 34.5t-72 102.5q0 64 67 98t184 34q155 0 358 -67
q76 91 117 210q-13 -18 -31 -34q-35 -34 -84.5 -53.5t-102.5 -19.5q-58 0 -112 24t-95 67q-97 103 -97 274t98 275q41 43 97.5 66.5t116.5 23.5q87 0 142.5 -29t80 -69t24.5 -74q0 -33 -20.5 -62.5t-61.5 -29.5q-25 0 -44.5 16t-19.5 35q18 4 29 19.5t11 31.5q0 52 -27 97
t-103 45q-80 0 -130 -71q-29 -43 -44.5 -113t-15.5 -161q0 -193 58 -278q48 -72 113 -72q64 0 103 56q48 67 48 209v75h120v-75v-1q0 -101 -39.5 -203.5t-109.5 -185.5q116 -40 313 -125q164 -70 275 -112t234 -71t241 -29q210 0 388 104t282 281.5t104 387.5
q0 167 -83 308.5t-225 224t-310 82.5q-134 0 -246.5 -66t-178.5 -178.5t-66 -246.5q0 -106 52.5 -195t141.5 -141.5t195 -52.5q15 0 37 20q17 15 26 15q7 0 14 -9q4 -4 4 -10q0 -14 -26 -25t-55 -11q-111 0 -205 55t-149 149t-55 205q0 139 69 256t186 186t256 69
q174 0 320.5 -85.5zM257 -256q88 44 157 122q-192 63 -343 63q-107 0 -169 -29.5t-62 -82.5q0 -59 66.5 -88t164.5 -29t186 44z" />
    <glyph glyph-name="G.ss06" unicode="&#xe02a;" horiz-adv-x="623" 
d="M2999 -71q0 -16 -24 -40.5t-63 -51.5q-233 -160 -529 -239.5t-650 -79.5q-165 0 -348.5 38.5t-347 91.5t-389.5 135q-151 54 -212 75q-73 -83 -167.5 -130.5t-197.5 -47.5q-107 0 -179 34.5t-72 102.5q0 64 67 98t184 34q155 0 358 -67q77 92 117 211q-12 -18 -31 -35
q-35 -34 -84.5 -53.5t-102.5 -19.5q-58 0 -112 24t-95 67q-97 103 -97 274t98 275q41 43 97.5 66.5t116.5 23.5q87 0 142.5 -29t80 -69t24.5 -74q0 -33 -20.5 -62.5t-61.5 -29.5q-25 0 -44.5 16t-19.5 35q18 4 29 19.5t11 31.5q0 52 -27 97t-103 45q-80 0 -130 -71
q-29 -43 -44.5 -113t-15.5 -161q0 -193 58 -278q48 -72 113 -72q64 0 103 56q48 67 48 209v75h120v-75v-1q0 -101 -39.5 -203.5t-109.5 -185.5l193 -69q224 -82 389.5 -136t350.5 -93t350 -39q688 0 1168 316q13 9 21.5 23t16.5 34t14 29.5t17 9.5q6 0 9 -1q20 -6 20 -20z
M257 -256q88 44 157 122q-192 63 -343 63q-107 0 -169 -29.5t-62 -82.5q0 -59 66.5 -88t164.5 -29t186 44z" />
    <glyph glyph-name="Gbreve" unicode="&#x11e;" horiz-adv-x="623" 
d="M122 625q41 43 97.5 66.5t116.5 23.5q87 0 142.5 -29t80 -69t24.5 -74q0 -33 -20.5 -62.5t-61.5 -29.5q-25 0 -44.5 16t-19.5 35q18 4 29 19.5t11 31.5q0 52 -27 97t-103 45q-80 0 -130 -71q-29 -43 -44.5 -113t-15.5 -161q0 -193 58 -278q23 -35 55.5 -53.5t67.5 -18.5
q62 0 103 56q48 67 48 209v55h-100v30h220v-85q0 -126 -84 -207q-35 -34 -84.5 -53.5t-102.5 -19.5q-59 0 -118 24.5t-99 66.5q-97 103 -97 274t98 275zM196 865h77q-1 -5 -1 -28q0 -25 15.5 -40t38.5 -15t38.5 15t15.5 40q0 24 -1 28h77q2 -10 2 -18q0 -36 -33.5 -58
t-98.5 -22t-98.5 22t-33.5 58q0 8 2 18z" />
    <glyph glyph-name="Gcommaaccent" unicode="&#x122;" horiz-adv-x="623" 
d="M122 625q41 43 97.5 66.5t116.5 23.5q87 0 142.5 -29t80 -69t24.5 -74q0 -33 -20.5 -62.5t-61.5 -29.5q-25 0 -44.5 16t-19.5 35q18 4 29 19.5t11 31.5q0 52 -27 97t-103 45q-80 0 -130 -71q-29 -43 -44.5 -113t-15.5 -161q0 -193 58 -278q23 -35 55.5 -53.5t67.5 -18.5
q62 0 103 56q48 67 48 209v55h-100v30h220v-85q0 -126 -84 -207q-35 -34 -84.5 -53.5t-102.5 -19.5q-59 0 -118 24.5t-99 66.5q-97 103 -97 274t98 275zM362.5 -87q14.5 -18 14.5 -61q0 -29 -13.5 -56t-38.5 -44t-57 -17v16q28 0 51.5 24.5t23.5 55.5q-3 -3 -14 -4t-16 -1
q-23 0 -36.5 13.5t-13.5 36.5t16 39t39 16q30 0 44.5 -18z" />
    <glyph glyph-name="H" unicode="H" horiz-adv-x="701" 
d="M222 360v-292q0 -20 12 -34t31 -18l35 -7v-9h-276v9l35 7q19 4 31 18t12 34v564q0 20 -12 34t-31 18l-35 7v9h276v-9l-35 -7q-19 -4 -31 -18t-12 -34v-252h257v252q0 20 -12 34t-31 18l-35 7v9h276v-9l-35 -7q-19 -4 -31 -18t-12 -34v-564q0 -20 12 -34t31 -18l35 -7v-9
h-276v9l35 7q19 4 31 18t12 34v292h-257z" />
    <glyph glyph-name="H.ss01" unicode="&#xe02b;" horiz-adv-x="701" 
d="M611 666q-12 -14 -12 -34v-564q0 -20 12 -34t31 -18l35 -7v-9h-276v9l35 7q19 4 31 18t12 34v292h-257v-220q68 -24 110.5 -83t42.5 -133q0 -78 -38 -143.5t-103.5 -103.5t-142.5 -38q-96 0 -177.5 48t-129 130t-47.5 178q0 95 51 178.5t135 137t179 65.5v256
q0 20 -12 34t-31 18l-35 7v9h276v-9l-35 -7q-19 -4 -31 -18t-12 -34v-252h257v252q0 20 -12 34t-31 18l-35 7v9h276v-9l-35 -7q-19 -4 -31 -18zM318 42.5q-37 52.5 -96 76.5v-51q0 -20 12 -34t31 -18l35 -7v-9h-276v9l35 7q19 4 31 18t12 34v59q-53 -14 -87.5 -58.5
t-34.5 -101.5q0 -35 17.5 -65t47.5 -47.5t65 -17.5q10 0 18 5t19 15q15 13 21 13q5 0 9 -4q7 -7 7 -14q0 -14 -23 -24.5t-51 -10.5q-41 0 -75.5 20t-54.5 54.5t-20 75.5q0 65 40 115.5t102 65.5v208q-90 -12 -169.5 -63t-127.5 -129.5t-48 -168.5q0 -91 45 -168
t121.5 -122.5t167.5 -45.5q72 0 132.5 35.5t96 96.5t35.5 133q0 66 -37 118.5z" />
    <glyph glyph-name="H.ss02" unicode="&#xe02c;" horiz-adv-x="701" 
d="M611 666q-12 -14 -12 -34v-564q0 -20 12 -34t31 -18l35 -7v-9h-276v9l35 7q19 4 31 18t12 34v125q0 72 -34 133t-93 98.5t-130 41.5v-372q33 18 53 50t20 70q-2 6 -6.5 14.5t-6.5 11.5q-15 23 -15 34q0 8 8 13q5 4 12 4q14 0 21 -23t7 -54q0 -47 -25.5 -85.5t-67.5 -56.5
v-4q0 -20 12 -34t31 -18l35 -7v-9h-276v9l35 7q19 4 31 18t12 34q-59 18 -96.5 68.5t-37.5 113.5q0 69 37 126.5t97 87.5v168q0 20 -12 34t-31 18l-35 7v9h276v-9l-35 -7q-19 -4 -31 -18t-12 -34v-145q87 -5 156.5 -56.5t100.5 -130.5v332q0 20 -12 34t-31 18l-35 7v9h276
v-9l-35 -7q-19 -4 -31 -18zM19.5 150q31.5 -44 82.5 -61v353q-52 -28 -83 -79t-31 -113q0 -56 31.5 -100z" />
    <glyph glyph-name="H.ss03" unicode="&#xe02d;" horiz-adv-x="701" 
d="M611 666q-12 -14 -12 -34v-564q0 -20 12 -34t31 -18l35 -7v-9h-276v9l35 7q19 4 31 18t12 34v100q-9 92 -80.5 156t-176.5 87v-241q37 -17 65 -45q38 -38 58 -87t20 -102q0 -52 -20 -101t-58 -87q-48 -48 -108.5 -72.5t-125.5 -24.5t-126 24.5t-109 72.5
q-59 59 -89.5 134.5t-30.5 155.5t30.5 156t89.5 136q53 53 127.5 81t156.5 30v191q0 20 -12 34t-31 18l-35 7v9h276v-9l-35 -7q-19 -4 -31 -18t-12 -34v-202q88 -19 157 -66.5t100 -116.5v385q0 20 -12 34t-31 18l-35 7v9h276v-9l-35 -7q-19 -4 -31 -18zM222 148v-80
q0 -20 12 -34t31 -18l35 -7v-9h-276v9l35 7q19 4 31 18t12 34v98q-63 -10 -107 -54q-9 -11 -13 -40q-3 -19 -7.5 -27.5t-16.5 -6.5q-16 3 -16 17q0 23 39 71q50 50 121 61v236q-78 -2 -148.5 -29t-121.5 -78q-57 -57 -86 -128.5t-29 -148.5t29 -148.5t86 -128.5
q45 -46 102 -69t118 -23t118.5 23.5t102.5 68.5q36 35 54.5 80.5t18.5 93.5t-18.5 94t-54.5 81q-23 23 -51 37z" />
    <glyph glyph-name="H.ss04" unicode="&#xe02e;" horiz-adv-x="701" 
d="M2567 -155q24 -10 24 -25q0 -8 -6 -15t-13 -7q-8 0 -27 15q-24 22 -43 22q-101 0 -210 -16.5t-209.5 -40t-259.5 -65.5q-167 -45 -285 -72.5t-249.5 -46.5t-259.5 -19q-332 0 -595.5 68t-414.5 197.5t-151 307.5q0 108 64 182t170 93v209q0 20 -12 34t-31 18l-35 7v9h276
v-9l-35 -7q-19 -4 -31 -18t-12 -34v-207q157 -19 257 -135v342q0 20 -12 34t-31 18l-35 7v9h276v-9l-35 -7q-19 -4 -31 -18t-12 -34v-564q0 -20 12 -34t31 -18l35 -7v-9h-276v9l35 7q19 4 31 18t12 34v190q-97 127 -257 147v-337q0 -20 12 -34t31 -18l35 -7v-9h-276v9l35 7
q19 4 31 18t12 34v334q-97 -17 -155.5 -85.5t-58.5 -168.5q0 -174 147.5 -299t406 -189.5t587.5 -64.5q127 0 257 19t245 46t286 72q163 43 263 66.5t209.5 40t212.5 16.5q41 0 65 -10z" />
    <glyph glyph-name="H.ss05" unicode="&#xe02f;" horiz-adv-x="701" 
d="M2691.5 -190.5q82.5 -45.5 127.5 -124t45 -173.5q0 -75 -37 -138t-100.5 -100t-138.5 -37q-60 0 -111 30t-81 81t-30 112q0 48 24.5 89t65.5 65.5t89 24.5q34 0 61.5 -16.5t27.5 -35.5q0 -6 -7 -15q-6 -6 -11 -6q-6 0 -13.5 7t-14.5 15q-12 15 -22 23t-21 8
q-43 0 -79.5 -21.5t-58 -58t-21.5 -79.5q0 -55 27 -101.5t73.5 -74t101.5 -27.5q70 0 128.5 34.5t93 93t34.5 127.5q0 90 -42.5 163.5t-120.5 116.5t-179 43t-210 -16.5t-209.5 -40t-259.5 -65.5q-167 -45 -285 -72.5t-249.5 -46.5t-259.5 -19q-332 0 -595.5 68
t-414.5 197.5t-151 307.5q0 108 64 182t170 93v209q0 20 -12 34t-31 18l-35 7v9h276v-9l-35 -7q-19 -4 -31 -18t-12 -34v-207q157 -19 257 -135v342q0 20 -12 34t-31 18l-35 7v9h276v-9l-35 -7q-19 -4 -31 -18t-12 -34v-564q0 -20 12 -34t31 -18l35 -7v-9h-276v9l35 7
q19 4 31 18t12 34v190q-97 127 -257 147v-337q0 -20 12 -34t31 -18l35 -7v-9h-276v9l35 7q19 4 31 18t12 34v334q-97 -17 -155.5 -85.5t-58.5 -168.5q0 -174 147.5 -299t406 -189.5t587.5 -64.5q127 0 257 19t245 46t286 72q163 43 263 66.5t209.5 40t212.5 16.5
q107 0 189.5 -45.5z" />
    <glyph glyph-name="H.ss06" unicode="&#xe030;" horiz-adv-x="701" 
d="M2900.5 -251.5q182.5 -106.5 289 -289t106.5 -397.5q0 -173 -85.5 -318.5t-232 -231t-320.5 -85.5q-139 0 -256 69t-186 186t-69 256q0 111 55 205t149 149t205 55q29 0 55 -11t26 -25q0 -6 -4 -10q-7 -9 -14 -9q-9 0 -26 15q-22 20 -37 20q-106 0 -195 -52.5
t-141.5 -141.5t-52.5 -195q0 -134 66 -246.5t178.5 -178.5t246.5 -66q168 0 310 82.5t225 224t83 308.5q0 210 -104 387.5t-282 281.5t-388 104q-101 0 -210 -16.5t-209.5 -40t-259.5 -65.5q-167 -45 -285 -72.5t-249.5 -46.5t-259.5 -19q-332 0 -595.5 68t-414.5 197.5
t-151 307.5q0 108 64 182t170 93v209q0 20 -12 34t-31 18l-35 7v9h276v-9l-35 -7q-19 -4 -31 -18t-12 -34v-207q157 -19 257 -135v342q0 20 -12 34t-31 18l-35 7v9h276v-9l-35 -7q-19 -4 -31 -18t-12 -34v-564q0 -20 12 -34t31 -18l35 -7v-9h-276v9l35 7q19 4 31 18t12 34
v190q-97 127 -257 147v-337q0 -20 12 -34t31 -18l35 -7v-9h-276v9l35 7q19 4 31 18t12 34v334q-97 -17 -155.5 -85.5t-58.5 -168.5q0 -174 147.5 -299t406 -189.5t587.5 -64.5q127 0 257 19t245 46t286 72q163 43 263 66.5t209.5 40t212.5 16.5q216 0 398.5 -106.5z" />
    <glyph glyph-name="I" unicode="I" horiz-adv-x="324" 
d="M233 666q-11 -14 -11 -34v-564q0 -20 12 -34t31 -18l35 -7v-9h-276v9l35 7q19 4 31 18t12 34v564q0 20 -12 34t-31 18l-35 7v9h276v-9l-39 -8q-17 -3 -28 -17z" />
    <glyph glyph-name="I.ss01" unicode="&#xe031;" horiz-adv-x="324" 
d="M233 666q-11 -14 -11 -34v-564q0 -20 12 -34t31 -18l35 -7v-9h-276v9l35 7q19 4 31 18t12 34v157q-27 -27 -61.5 -41.5t-73.5 -14.5q-64 0 -118.5 32t-86.5 86.5t-32 118.5q0 80 39.5 147.5t107 107t147.5 39.5h276v-9l-39 -8q-17 -3 -28 -17zM42.5 206.5
q35.5 17.5 59.5 47.5v199q-19 20 -44.5 31.5t-54.5 11.5q-44 0 -75 -31t-31 -75q0 -12 7.5 -20.5t21.5 -19.5q18 -14 18 -21q0 -6 -7 -12q-7 -5 -12 -5q-17 0 -32.5 27t-15.5 51q0 34 17 63t46 46t63 17q56 0 99 -35v151q0 20 -12 36t-31 16h-35q-75 0 -137.5 -37.5
t-99.5 -101.5t-37 -139q0 -59 29 -109t79 -79t109 -29q40 0 75.5 17.5z" />
    <glyph glyph-name="I.ss02" unicode="&#xe032;" horiz-adv-x="324" 
d="M300.5 51.5q28.5 -65.5 28.5 -138.5q0 -119 -59 -219.5t-160 -159.5t-220 -59q-148 0 -273 73.5t-198.5 198.5t-73.5 273q0 185 91.5 341t247.5 247.5t340 91.5h276v-9l-39 -8q-17 -3 -28 -17t-11 -34v-466q50 -49 78.5 -114.5zM100 -449q96 56 152.5 152t56.5 210
q0 43 -11 87h-274v9l35 7q19 4 31 18t12 34v153q-61 25 -126 25q-72 0 -132.5 -35.5t-96 -96t-35.5 -132.5q0 -11 7 -21.5t20 -24.5q21 -21 21 -32q0 -7 -5 -12q-7 -8 -16 -8q-18 0 -32.5 30.5t-14.5 67.5q0 77 38.5 142t103.5 103.5t142 38.5q66 0 126 -23v389q0 20 -12 36
t-31 16h-35q-179 0 -330.5 -89.5t-240 -242t-88.5 -332.5q0 -143 70.5 -263.5t191 -191t263.5 -70.5q114 0 210 56zM222 138v-70q0 -20 12 -34t31 -18l30 -6q-22 71 -73 128z" />
    <glyph glyph-name="I.ss03" unicode="&#xe033;" horiz-adv-x="324" 
d="M1540.5 223q63.5 -37 100.5 -100t37 -138q0 -95 -45 -173.5t-127.5 -124t-189.5 -45.5q-157 0 -321 55.5t-301.5 129.5t-324.5 188q-91 56 -147 89v-36q0 -20 12 -34t31 -18l35 -7v-9h-276q-58 0 -98 32.5t-40 85.5q0 45 30.5 69.5t89.5 24.5q37 0 96 -24v444
q0 20 -12 34t-31 18l-35 7v9h276v-9l-39 -8q-17 -3 -28 -17t-11 -34v-504q70 -40 166 -99q183 -112 320 -185.5t297 -127.5t311 -54q101 0 179 43t120.5 116.5t42.5 163.5q0 69 -34.5 127.5t-93 93t-128.5 34.5q-55 0 -101.5 -27.5t-73.5 -74t-27 -101.5q0 -43 21.5 -79.5
t58 -58t79.5 -21.5q11 0 21 8t22 23q7 8 14.5 15t13.5 7q5 0 11 -6q7 -9 7 -15q0 -19 -27.5 -35.5t-61.5 -16.5q-48 0 -89 24.5t-65.5 65.5t-24.5 89q0 61 30 112t81 81t111 30q75 0 138.5 -37zM102 166q-58 26 -96 26q-39 0 -69.5 -16t-30.5 -58q0 -41 32 -71.5t86 -30.5
h35q19 0 31 16t12 36v98z" />
    <glyph glyph-name="I.ss04" unicode="&#xe034;" horiz-adv-x="324" 
d="M1792.5 984.5q146.5 -85.5 232 -231t85.5 -318.5q0 -215 -106.5 -397.5t-289 -289t-398.5 -106.5q-157 0 -321 55.5t-301.5 129.5t-324.5 188q-91 56 -147 89v-36q0 -20 12 -34t31 -18l35 -7v-9h-276q-58 0 -98 32.5t-40 85.5q0 45 30.5 69.5t89.5 24.5q37 0 96 -24v444
q0 20 -12 34t-31 18l-35 7v9h276v-9l-39 -8q-17 -3 -28 -17t-11 -34v-504q70 -40 166 -99q183 -112 320 -185.5t297 -127.5t311 -54q210 0 388 104t282 281.5t104 387.5q0 167 -83 308.5t-225 224t-310 82.5q-134 0 -246.5 -66t-178.5 -178.5t-66 -246.5q0 -106 52.5 -195
t141.5 -141.5t195 -52.5q15 0 37 20q17 15 26 15q7 0 14 -9q4 -4 4 -10q0 -14 -26 -25t-55 -11q-111 0 -205 55t-149 149t-55 205q0 139 69 256t186 186t256 69q174 0 320.5 -85.5zM102 166q-58 26 -96 26q-39 0 -69.5 -16t-30.5 -58q0 -41 32 -71.5t86 -30.5h35q19 0 31 16
t12 36v98z" />
    <glyph glyph-name="I.ss05" unicode="&#xe035;" horiz-adv-x="324" 
d="M2351 -109q0 -13 -8 -29t-20 -30q-66 -70 -175 -138t-268 -115t-354 -47q-157 0 -343 66.5t-354.5 157t-394.5 225.5q-132 80 -212 124v-37q0 -20 12 -34t31 -18l35 -7v-9h-276q-58 0 -98 32.5t-40 85.5q0 45 30.5 69.5t89.5 24.5q35 0 96 -25v445q0 20 -12 34t-31 18
l-35 7v9h276v-9l-39 -8q-17 -3 -28 -17t-11 -34v-503q66 -36 236 -136q223 -133 389 -222t347 -154t332 -65q192 0 348.5 46.5t263 112.5t171.5 135q6 9 6 32q0 16 3.5 23.5t16.5 7.5q16 0 16 -18zM102 166q-63 26 -96 26q-39 0 -69.5 -16t-30.5 -58q0 -41 32 -71.5
t86 -30.5h35q19 0 31 16t12 36v98z" />
    <glyph glyph-name="Iacute" unicode="&#xcd;" horiz-adv-x="324" 
d="M233 666q-11 -14 -11 -34v-564q0 -20 12 -34t31 -18l35 -7v-9h-276v9l35 7q19 4 31 18t12 34v564q0 20 -12 34t-31 18l-35 7v9h276v-9l-39 -8q-17 -3 -28 -17zM162 870h108l-120 -120h-36z" />
    <glyph glyph-name="Icircumflex" unicode="&#xce;" horiz-adv-x="324" 
d="M233 666q-11 -14 -11 -34v-564q0 -20 12 -34t31 -18l35 -7v-9h-276v9l35 7q19 4 31 18t12 34v564q0 20 -12 34t-31 18l-35 7v9h276v-9l-39 -8q-17 -3 -28 -17zM57 755l-17 12l125 118l125 -118l-17 -12l-108 60z" />
    <glyph glyph-name="Idieresis" unicode="&#xcf;" horiz-adv-x="324" 
d="M233 666q-11 -14 -11 -34v-564q0 -20 12 -34t31 -18l35 -7v-9h-276v9l35 7q19 4 31 18t12 34v564q0 20 -12 34t-31 18l-35 7v9h276v-9l-39 -8q-17 -3 -28 -17zM112.5 775.5q-15.5 -15.5 -34.5 -15.5t-34.5 15.5t-15.5 34.5t15.5 34.5t34.5 15.5t34.5 -15.5t15.5 -34.5
t-15.5 -34.5zM277.5 775.5q-15.5 -15.5 -34.5 -15.5t-34.5 15.5t-15.5 34.5t15.5 34.5t34.5 15.5t34.5 -15.5t15.5 -34.5t-15.5 -34.5z" />
    <glyph glyph-name="Idotaccent" unicode="&#x130;" horiz-adv-x="324" 
d="M233 666q-11 -14 -11 -34v-564q0 -20 12 -34t31 -18l35 -7v-9h-276v9l35 7q19 4 31 18t12 34v564q0 20 -12 34t-31 18l-35 7v9h276v-9l-39 -8q-17 -3 -28 -17zM196.5 775.5q-15.5 -15.5 -34.5 -15.5t-34.5 15.5t-15.5 34.5t15.5 34.5t34.5 15.5t34.5 -15.5t15.5 -34.5
t-15.5 -34.5z" />
    <glyph glyph-name="Igrave" unicode="&#xcc;" horiz-adv-x="324" 
d="M233 666q-11 -14 -11 -34v-564q0 -20 12 -34t31 -18l35 -7v-9h-276v9l35 7q19 4 31 18t12 34v564q0 20 -12 34t-31 18l-35 7v9h276v-9l-39 -8q-17 -3 -28 -17zM200 750h-36l-120 120h108z" />
    <glyph glyph-name="Imacron" unicode="&#x12a;" horiz-adv-x="324" 
d="M233 666q-11 -14 -11 -34v-564q0 -20 12 -34t31 -18l35 -7v-9h-276v9l35 7q19 4 31 18t12 34v564q0 20 -12 34t-31 18l-35 7v9h276v-9l-39 -8q-17 -3 -28 -17zM279 825v-35h-230v35h230z" />
    <glyph glyph-name="Iogonek" unicode="&#x12e;" horiz-adv-x="324" 
d="M233 666q-11 -14 -11 -34v-564q0 -20 12 -34t31 -18l35 -7v-9h-276v9l35 7q19 4 31 18t12 34v564q0 20 -12 34t-31 18l-35 7v9h276v-9l-39 -8q-17 -3 -28 -17zM127 -22q19 10 53 22h40q-45 -21 -76 -53q-14 -16 -14 -32q0 -15 11 -25t29 -10t32 12q5 3 13 13v-25
q-11 -11 -36 -17q-12 -3 -29 -3q-37 0 -56 15.5t-19 39.5q0 34 52 63z" />
    <glyph glyph-name="Itilde" unicode="&#x128;" horiz-adv-x="324" 
d="M233 666q-11 -14 -11 -34v-564q0 -20 12 -34t31 -18l35 -7v-9h-276v9l35 7q19 4 31 18t12 34v564q0 20 -12 34t-31 18l-35 7v9h276v-9l-39 -8q-17 -3 -28 -17zM293 860q0 -50 -22 -75t-56 -25q-16 0 -29 7t-30 21q-18 15 -27.5 21t-21.5 6q-19 0 -30.5 -11.5t-11.5 -33.5
h-18q0 50 22 75t56 25q16 0 30.5 -7t29.5 -20q4 -3 13.5 -11.5t18 -12.5t16.5 -4q19 0 30.5 11.5t11.5 33.5h18z" />
    <glyph glyph-name="J" unicode="J" horiz-adv-x="592" 
d="M588 700v-9l-39 -8q-17 -3 -28 -17t-11 -34v-442q0 -99 -73 -152t-190 -53q-79 0 -130 27t-74 67t-23 78q0 40 19.5 68t61.5 28q27 0 48.5 -15t21.5 -37q-23 0 -34 -19t-11 -45q0 -27 12 -57.5t39.5 -52.5t71.5 -22q71 0 106 49.5t35 135.5v442q0 20 -12 34t-31 18l-35 7
v9h276z" />
    <glyph glyph-name="J.ss01" unicode="&#xe036;" horiz-adv-x="577" 
d="M573 700v-9l-39 -8q-17 -3 -28 -17t-11 -34v-442q0 -92 -73 -149q-36 -27 -88 -41.5t-113 -14.5q-87 0 -142.5 27t-79.5 66.5t-24 78.5q0 40 19.5 68t61.5 28q27 0 48.5 -15t21.5 -37q-23 0 -34 -19t-11 -45q0 -28 13 -58t45 -52t85 -22q64 0 106 44q45 47 45 141v68
q-54 -46 -125 -46q-64 0 -118.5 32t-86.5 86.5t-32 118.5q0 70 37 127.5t102 90.5t145 33h276zM318.5 246.5q32.5 14.5 56.5 39.5v220q-40 33 -89 33q-44 0 -75 -31t-31 -75q0 -12 7.5 -20.5t21.5 -19.5q18 -14 18 -21q0 -6 -7 -12q-7 -5 -12 -5q-17 0 -32.5 27t-15.5 51
q0 34 17 63t46 46t63 17q50 0 89 -28v101q0 20 -12 36t-31 16h-35q-75 0 -135 -31t-94.5 -85t-34.5 -119q0 -59 29 -109t79 -79t109 -29q36 0 68.5 14.5z" />
    <glyph glyph-name="J.ss02" unicode="&#xe037;" horiz-adv-x="577" 
d="M573 700v-9l-39 -8q-17 -3 -28 -17t-11 -34v-442q0 -92 -73 -149q-8 -7 -19 -13q47 -48 73 -111.5t26 -133.5q0 -119 -59 -219.5t-160 -159.5t-220 -59q-150 0 -274.5 74t-197.5 207t-73 304q0 259 112 432.5t290 255.5t377 82h276zM456.5 -88.5q-25.5 60.5 -71.5 106.5
q-71 -33 -165 -33q-82 0 -134.5 24.5t-81.5 63.5q-55 -37 -87 -95t-32 -126q0 -11 7 -21.5t20 -24.5q21 -21 21 -32q0 -7 -5 -12q-7 -8 -16 -8q-18 0 -32.5 30.5t-14.5 67.5q0 73 34.5 135.5t93.5 101.5q-18 32 -18 68q0 40 19.5 68t61.5 28q27 0 48.5 -15t21.5 -37
q-23 0 -34 -19t-11 -45v-9q35 8 68 8q109 0 200 -62q26 46 26 116v442q0 20 -12 36t-31 16h-35q-194 0 -367 -80.5t-282.5 -250.5t-109.5 -423q0 -166 70 -294.5t190 -199.5t265 -71q114 0 210 56t152.5 152t56.5 210q0 68 -25.5 128.5zM149 116q-31 0 -65 -8
q9 -42 42.5 -72.5t97.5 -30.5t106 44l8 9q-87 58 -189 58z" />
    <glyph glyph-name="J.ss03" unicode="&#xe038;" horiz-adv-x="577" 
d="M2551.5 562q8.5 -18 8.5 -32q0 -12 -6 -19t-16 -7q-13 0 -16.5 10t-3.5 32q0 29 -6 38q-65 69 -171.5 135t-263 112.5t-348.5 46.5q-152 0 -326 -38.5t-327.5 -90t-371.5 -132.5q-145 -55 -209 -77v-350q0 -92 -73 -149q-36 -27 -88 -41.5t-113 -14.5q-87 0 -142.5 27
t-79.5 66.5t-24 78.5q0 40 19.5 68t61.5 28q27 0 48.5 -15t21.5 -37q-23 0 -34 -19t-11 -45q0 -28 13 -58t45 -52t85 -22q64 0 106 44q45 47 45 141v313q-63 -15 -96 -15q-59 0 -89.5 24.5t-30.5 69.5q0 53 40 85.5t98 32.5h276v-9l-39 -8q-17 -3 -28 -17t-11 -34v-70
l184 68q214 81 373 134.5t339 93.5t338 40q195 0 354 -46.5t268 -114.5t175 -139q17 -18 25.5 -36zM375 524v108q0 20 -12 36t-31 16h-35q-54 0 -86 -30.5t-32 -71.5q0 -42 30.5 -58t69.5 -16q34 0 96 16z" />
    <glyph glyph-name="J.ss04" unicode="&#xe039;" horiz-adv-x="577" 
d="M1851.5 792.5q102.5 -45.5 156 -123.5t53.5 -174q0 -75 -37 -138t-100.5 -100t-138.5 -37q-60 0 -111 30t-81 81t-30 112q0 48 24.5 89t65.5 65.5t89 24.5q34 0 61.5 -16.5t27.5 -35.5q0 -6 -7 -15q-6 -6 -11 -6q-6 0 -13.5 7t-14.5 15q-12 15 -22 23t-21 8
q-43 0 -79.5 -21.5t-58 -58t-21.5 -79.5q0 -55 27 -101.5t73.5 -74t101.5 -27.5q70 0 128.5 34.5t93 93t34.5 127.5q0 91 -51 164.5t-148.5 116t-232.5 42.5q-152 0 -315 -32.5t-303.5 -77.5t-327.5 -112q-90 -33 -168 -59v-347q0 -92 -73 -149q-36 -27 -88 -41.5
t-113 -14.5q-87 0 -142.5 27t-79.5 66.5t-24 78.5q0 40 19.5 68t61.5 28q27 0 48.5 -15t21.5 -37q-23 0 -34 -19t-11 -45q0 -28 13 -58t45 -52t85 -22q64 0 106 44q45 47 45 141v312q-58 -14 -96 -14q-59 0 -89.5 24.5t-30.5 69.5q0 53 40 85.5t98 32.5h276v-9l-39 -8
q-17 -3 -28 -17t-11 -34v-72q63 21 149 53q192 69 333 113.5t308 78t324 33.5q140 0 242.5 -45.5zM375 523v109q0 20 -12 36t-31 16h-35q-54 0 -86 -30.5t-32 -71.5q0 -42 30.5 -58t69.5 -16q33 0 96 15z" />
    <glyph glyph-name="J.ss05" unicode="&#xe03a;" horiz-adv-x="577" 
d="M2007.5 731.5q182.5 -106.5 289 -289t106.5 -397.5q0 -173 -85.5 -318.5t-232 -231t-320.5 -85.5q-139 0 -256 69t-186 186t-69 256q0 111 55 205t149 149t205 55q29 0 55 -11t26 -25q0 -6 -4 -10q-7 -9 -14 -9q-9 0 -26 15q-22 20 -37 20q-106 0 -195 -52.5
t-141.5 -141.5t-52.5 -195q0 -134 66 -246.5t178.5 -178.5t246.5 -66q168 0 310 82.5t225 224t83 308.5q0 210 -104 387.5t-282 281.5t-388 104q-152 0 -315 -32.5t-303.5 -77.5t-327.5 -112q-90 -33 -168 -59v-347q0 -92 -73 -149q-36 -27 -88 -41.5t-113 -14.5
q-87 0 -142.5 27t-79.5 66.5t-24 78.5q0 40 19.5 68t61.5 28q27 0 48.5 -15t21.5 -37q-23 0 -34 -19t-11 -45q0 -28 13 -58t45 -52t85 -22q64 0 106 44q45 47 45 141v312q-58 -14 -96 -14q-59 0 -89.5 24.5t-30.5 69.5q0 53 40 85.5t98 32.5h276v-9l-39 -8q-17 -3 -28 -17
t-11 -34v-72q63 21 149 53q192 69 333 113.5t308 78t324 33.5q216 0 398.5 -106.5zM375 523v109q0 20 -12 36t-31 16h-35q-54 0 -86 -30.5t-32 -71.5q0 -42 30.5 -58t69.5 -16q33 0 96 15z" />
    <glyph glyph-name="Jcircumflex" unicode="&#x134;" horiz-adv-x="577" 
d="M588 700v-9l-39 -8q-17 -3 -28 -17t-11 -34v-442q0 -99 -73 -152t-190 -53q-79 0 -130 27t-74 67t-23 78q0 40 19.5 68t61.5 28q27 0 48.5 -15t21.5 -37q-23 0 -34 -19t-11 -45q0 -27 12 -57.5t39.5 -52.5t71.5 -22q71 0 106 49.5t35 135.5v442q0 20 -12 34t-31 18l-35 7
v9h276zM302 755l-17 12l125 118l125 -118l-17 -12l-108 60z" />
    <glyph glyph-name="K" unicode="K" horiz-adv-x="642" 
d="M222 261v-193q0 -20 12 -34t31 -18l35 -7v-9h-276v9l35 7q19 4 31 18t12 34v564q0 20 -12 34t-31 18l-35 7v9h276v-9l-35 -7q-19 -4 -31 -18t-12 -34v-325l216 285q15 21 15 42q0 20 -12.5 35.5t-33.5 21.5v9h205v-9l-33 -10q-52 -15 -83 -57l-133 -176l223 -361
q19 -31 47.5 -50.5t63.5 -26.5l6 -1v-9h-289v9q20 4 31 18.5t11 34.5t-12 41l-154 249z" />
    <glyph glyph-name="K.ss01" unicode="&#xe03b;" horiz-adv-x="642" 
d="M703 9v-9h-289v9q20 4 31 18.5t11 34.5t-12 41l-154 249l-68 -91v-193q0 -20 12 -34t31 -18l35 -7v-9h-276v9l35 7q19 4 31 18t12 34v190q-54 -46 -125 -46q-64 0 -118.5 32t-86.5 86.5t-32 118.5q0 70 37 127.5t102 90.5t145 33h276v-9l-35 -7q-19 -4 -31 -18t-12 -34
v-325l216 285q15 21 15 42q0 20 -12.5 35.5t-33.5 21.5v9h205v-9l-33 -10q-52 -15 -83 -57l-133 -176l223 -361q19 -31 47.5 -50.5t63.5 -26.5zM45.5 246.5q32.5 14.5 56.5 39.5v220q-40 33 -89 33q-44 0 -75 -31t-31 -75q0 -12 7.5 -20.5t21.5 -19.5q18 -14 18 -21
q0 -6 -7 -12q-7 -5 -12 -5q-17 0 -32.5 27t-15.5 51q0 34 17 63t46 46t63 17q50 0 89 -28v101q0 20 -12 36t-31 16h-35q-75 0 -135 -31t-94.5 -85t-34.5 -119q0 -59 29 -109t79 -79t109 -29q36 0 68.5 14.5z" />
    <glyph glyph-name="K.ss02" unicode="&#xe03c;" horiz-adv-x="642" 
d="M1553.5 123q63.5 -37 100.5 -100t37 -138q0 -95 -45 -173.5t-127.5 -124t-189.5 -45.5q-287 0 -505.5 144t-379.5 417l-154 249l-68 -91v-193q0 -20 12 -34t31 -18l35 -7v-9h-276v9l35 7q19 4 31 18t12 34v564q0 20 -12 34t-31 18l-35 7v9h276v-9l-35 -7q-19 -4 -31 -18
t-12 -34v-325l216 285q15 21 15 42q0 20 -12.5 35.5t-33.5 21.5v9h205v-9l-33 -10q-52 -15 -83 -57l-133 -176l223 -361q132 -223 310 -374t433 -151q101 0 179 43t120.5 116.5t42.5 163.5q0 69 -34.5 127.5t-93 93t-128.5 34.5q-55 0 -101.5 -27.5t-73.5 -74t-27 -101.5
q0 -43 21.5 -79.5t58 -58t79.5 -21.5q11 0 21 8t22 23q7 8 14.5 15t13.5 7q5 0 11 -6q7 -9 7 -15q0 -19 -27.5 -35.5t-61.5 -16.5q-48 0 -89 24.5t-65.5 65.5t-24.5 89q0 61 30 112t81 81t111 30q75 0 138.5 -37z" />
    <glyph glyph-name="K.ss03" unicode="&#xe03d;" horiz-adv-x="642" 
d="M1805.5 884.5q146.5 -85.5 232 -231t85.5 -318.5q0 -215 -106.5 -397.5t-289 -289t-398.5 -106.5q-287 0 -505.5 144t-379.5 417l-154 249l-68 -91v-193q0 -20 12 -34t31 -18l35 -7v-9h-276v9l35 7q19 4 31 18t12 34v564q0 20 -12 34t-31 18l-35 7v9h276v-9l-35 -7
q-19 -4 -31 -18t-12 -34v-325l216 285q15 21 15 42q0 20 -12.5 35.5t-33.5 21.5v9h205v-9l-33 -10q-52 -15 -83 -57l-133 -176l223 -361q132 -223 310 -374t433 -151q210 0 388 104t282 281.5t104 387.5q0 167 -83 308.5t-225 224t-310 82.5q-134 0 -246.5 -66
t-178.5 -178.5t-66 -246.5q0 -106 52.5 -195t141.5 -141.5t195 -52.5q15 0 37 20q17 15 26 15q7 0 14 -9q4 -4 4 -10q0 -14 -26 -25t-55 -11q-111 0 -205 55t-149 149t-55 205q0 139 69 256t186 186t256 69q174 0 320.5 -85.5z" />
    <glyph glyph-name="K.ss04" unicode="&#xe03e;" horiz-adv-x="642" 
d="M1553.5 123q63.5 -37 100.5 -100t37 -138q0 -95 -45 -173.5t-127.5 -124t-189.5 -45.5q-287 0 -505.5 144t-379.5 417l-154 249l-68 -91v-193q0 -20 12 -34t31 -18l35 -7v-9h-276v9l35 7q19 4 31 18t12 34v190q-54 -46 -125 -46q-64 0 -118.5 32t-86.5 86.5t-32 118.5
q0 70 37 127.5t102 90.5t145 33h276v-9l-35 -7q-19 -4 -31 -18t-12 -34v-325l216 285q15 21 15 42q0 20 -12.5 35.5t-33.5 21.5v9h205v-9l-33 -10q-52 -15 -83 -57l-133 -176l223 -361q132 -223 310 -374t433 -151q101 0 179 43t120.5 116.5t42.5 163.5q0 69 -34.5 127.5
t-93 93t-128.5 34.5q-55 0 -101.5 -27.5t-73.5 -74t-27 -101.5q0 -43 21.5 -79.5t58 -58t79.5 -21.5q11 0 21 8t22 23q7 8 14.5 15t13.5 7q5 0 11 -6q7 -9 7 -15q0 -19 -27.5 -35.5t-61.5 -16.5q-48 0 -89 24.5t-65.5 65.5t-24.5 89q0 61 30 112t81 81t111 30
q75 0 138.5 -37zM45.5 246.5q32.5 14.5 56.5 39.5v220q-40 33 -89 33q-44 0 -75 -31t-31 -75q0 -12 7.5 -20.5t21.5 -19.5q18 -14 18 -21q0 -6 -7 -12q-7 -5 -12 -5q-17 0 -32.5 27t-15.5 51q0 34 17 63t46 46t63 17q50 0 89 -28v101q0 20 -12 36t-31 16h-35q-75 0 -135 -31
t-94.5 -85t-34.5 -119q0 -59 29 -109t79 -79t109 -29q36 0 68.5 14.5z" />
    <glyph glyph-name="K.ss05" unicode="&#xe03f;" horiz-adv-x="642" 
d="M1805.5 884.5q146.5 -85.5 232 -231t85.5 -318.5q0 -215 -106.5 -397.5t-289 -289t-398.5 -106.5q-287 0 -505.5 144t-379.5 417l-154 249l-68 -91v-193q0 -20 12 -34t31 -18l35 -7v-9h-276v9l35 7q19 4 31 18t12 34v190q-54 -46 -125 -46q-64 0 -118.5 32t-86.5 86.5
t-32 118.5q0 70 37 127.5t102 90.5t145 33h276v-9l-35 -7q-19 -4 -31 -18t-12 -34v-325l216 285q15 21 15 42q0 20 -12.5 35.5t-33.5 21.5v9h205v-9l-33 -10q-52 -15 -83 -57l-133 -176l223 -361q132 -223 310 -374t433 -151q210 0 388 104t282 281.5t104 387.5
q0 167 -83 308.5t-225 224t-310 82.5q-134 0 -246.5 -66t-178.5 -178.5t-66 -246.5q0 -106 52.5 -195t141.5 -141.5t195 -52.5q15 0 37 20q17 15 26 15q7 0 14 -9q4 -4 4 -10q0 -14 -26 -25t-55 -11q-111 0 -205 55t-149 149t-55 205q0 139 69 256t186 186t256 69
q174 0 320.5 -85.5zM45.5 246.5q32.5 14.5 56.5 39.5v220q-40 33 -89 33q-44 0 -75 -31t-31 -75q0 -12 7.5 -20.5t21.5 -19.5q18 -14 18 -21q0 -6 -7 -12q-7 -5 -12 -5q-17 0 -32.5 27t-15.5 51q0 34 17 63t46 46t63 17q50 0 89 -28v101q0 20 -12 36t-31 16h-35
q-75 0 -135 -31t-94.5 -85t-34.5 -119q0 -59 29 -109t79 -79t109 -29q36 0 68.5 14.5z" />
    <glyph glyph-name="K.ss06" unicode="&#xe040;" horiz-adv-x="642" 
d="M2991.5 -223.5q82.5 -45.5 127.5 -124t45 -173.5q0 -75 -37 -138t-100.5 -100t-138.5 -37q-60 0 -111 30t-81 81t-30 112q0 48 24.5 89t65.5 65.5t89 24.5q34 0 61.5 -16.5t27.5 -35.5q0 -6 -7 -15q-6 -6 -11 -6q-6 0 -13.5 7t-14.5 15q-12 15 -22 23t-21 8
q-43 0 -79.5 -21.5t-58 -58t-21.5 -79.5q0 -55 27 -101.5t73.5 -74t101.5 -27.5q70 0 128.5 34.5t93 93t34.5 127.5q0 90 -42.5 163.5t-120.5 116.5t-179 43t-202 -16.5t-189.5 -40t-226.5 -65.5q-145 -45 -249 -72.5t-226 -46.5t-250 -19q-198 0 -393 67.5t-357.5 194.5
t-264.5 299l-154 249l-68 -91v-193q0 -20 12 -34t31 -18l35 -7v-9h-276v9l35 7q19 4 31 18t12 34v190q-54 -46 -125 -46q-64 0 -118.5 32t-86.5 86.5t-32 118.5q0 70 37 127.5t102 90.5t145 33h276v-9l-35 -7q-19 -4 -31 -18t-12 -34v-325l216 285q15 21 15 42
q0 20 -12.5 35.5t-33.5 21.5v9h205v-9l-33 -10q-52 -15 -83 -57l-133 -176l223 -361q71 -121 207 -242.5t311 -202t355 -80.5q127 0 247.5 19t222 46t250.5 72q140 42 228.5 66t190 40.5t204.5 16.5q107 0 189.5 -45.5zM45.5 246.5q32.5 14.5 56.5 39.5v220q-40 33 -89 33
q-44 0 -75 -31t-31 -75q0 -12 7.5 -20.5t21.5 -19.5q18 -14 18 -21q0 -6 -7 -12q-7 -5 -12 -5q-17 0 -32.5 27t-15.5 51q0 34 17 63t46 46t63 17q50 0 89 -28v101q0 20 -12 36t-31 16h-35q-75 0 -135 -31t-94.5 -85t-34.5 -119q0 -59 29 -109t79 -79t109 -29q36 0 68.5 14.5
z" />
    <glyph glyph-name="K.ss07" unicode="&#xe041;" horiz-adv-x="642" 
d="M2991.5 -223.5q82.5 -45.5 127.5 -124t45 -173.5q0 -75 -37 -138t-100.5 -100t-138.5 -37q-60 0 -111 30t-81 81t-30 112q0 48 24.5 89t65.5 65.5t89 24.5q34 0 61.5 -16.5t27.5 -35.5q0 -6 -7 -15q-6 -6 -11 -6q-6 0 -13.5 7t-14.5 15q-12 15 -22 23t-21 8
q-43 0 -79.5 -21.5t-58 -58t-21.5 -79.5q0 -55 27 -101.5t73.5 -74t101.5 -27.5q70 0 128.5 34.5t93 93t34.5 127.5q0 90 -42.5 163.5t-120.5 116.5t-179 43t-202 -16.5t-189.5 -40t-226.5 -65.5q-145 -45 -249 -72.5t-226 -46.5t-250 -19q-198 0 -393 67.5t-357.5 194.5
t-264.5 299l-154 249l-68 -91v-193q0 -20 12 -34t31 -18l35 -7v-9h-276v9l35 7q19 4 31 18t12 34v564q0 20 -12 34t-31 18l-35 7v9h276v-9l-35 -7q-19 -4 -31 -18t-12 -34v-325l216 285q15 21 15 42q0 20 -12.5 35.5t-33.5 21.5v9h205v-9l-33 -10q-52 -15 -83 -57l-133 -176
l223 -361q71 -121 207 -242.5t311 -202t355 -80.5q127 0 247.5 19t222 46t250.5 72q140 42 228.5 66t190 40.5t204.5 16.5q107 0 189.5 -45.5z" />
    <glyph glyph-name="K.ss08" unicode="&#xe042;" horiz-adv-x="642" 
d="M3200.5 -284.5q182.5 -106.5 289 -289t106.5 -397.5q0 -173 -85.5 -318.5t-232 -231t-320.5 -85.5q-139 0 -256 69t-186 186t-69 256q0 111 55 205t149 149t205 55q29 0 55 -11t26 -25q0 -6 -4 -10q-7 -9 -14 -9q-9 0 -26 15q-22 20 -37 20q-106 0 -195 -52.5
t-141.5 -141.5t-52.5 -195q0 -134 66 -246.5t178.5 -178.5t246.5 -66q168 0 310 82.5t225 224t83 308.5q0 210 -104 387.5t-282 281.5t-388 104q-101 0 -202 -16.5t-189.5 -40t-226.5 -65.5q-145 -45 -249 -72.5t-226 -46.5t-250 -19q-198 0 -393 67.5t-357.5 194.5
t-264.5 299l-154 249l-68 -91v-193q0 -20 12 -34t31 -18l35 -7v-9h-276v9l35 7q19 4 31 18t12 34v564q0 20 -12 34t-31 18l-35 7v9h276v-9l-35 -7q-19 -4 -31 -18t-12 -34v-325l216 285q15 21 15 42q0 20 -12.5 35.5t-33.5 21.5v9h205v-9l-33 -10q-52 -15 -83 -57l-133 -176
l223 -361q71 -121 207 -242.5t311 -202t355 -80.5q127 0 247.5 19t222 46t250.5 72q140 42 228.5 66t190 40.5t204.5 16.5q216 0 398.5 -106.5z" />
    <glyph glyph-name="K.ss09" unicode="&#xe043;" horiz-adv-x="642" 
d="M2991.5 -223.5q82.5 -45.5 127.5 -124t45 -173.5q0 -75 -37 -138t-100.5 -100t-138.5 -37q-60 0 -111 30t-81 81t-30 112q0 48 24.5 89t65.5 65.5t89 24.5q34 0 61.5 -16.5t27.5 -35.5q0 -6 -7 -15q-6 -6 -11 -6q-6 0 -13.5 7t-14.5 15q-12 15 -22 23t-21 8
q-43 0 -79.5 -21.5t-58 -58t-21.5 -79.5q0 -55 27 -101.5t73.5 -74t101.5 -27.5q70 0 128.5 34.5t93 93t34.5 127.5q0 90 -42.5 163.5t-120.5 116.5t-179 43t-202 -16.5t-189.5 -40t-226.5 -65.5q-145 -45 -249 -72.5t-226 -46.5t-250 -19q-198 0 -393 67.5t-357.5 194.5
t-264.5 299l-154 249l-68 -91v-193q0 -20 12 -34t31 -18l35 -7v-9h-276v9l35 7q19 4 31 18t12 34v190q-54 -46 -125 -46q-64 0 -118.5 32t-86.5 86.5t-32 118.5q0 70 37 127.5t102 90.5t145 33h276v-9l-35 -7q-19 -4 -31 -18t-12 -34v-325l216 285q15 21 15 42
q0 20 -12.5 35.5t-33.5 21.5v9h205v-9l-33 -10q-52 -15 -83 -57l-133 -176l223 -361q71 -121 207 -242.5t311 -202t355 -80.5q127 0 247.5 19t222 46t250.5 72q140 42 228.5 66t190 40.5t204.5 16.5q107 0 189.5 -45.5zM45.5 246.5q32.5 14.5 56.5 39.5v220q-40 33 -89 33
q-44 0 -75 -31t-31 -75q0 -12 7.5 -20.5t21.5 -19.5q18 -14 18 -21q0 -6 -7 -12q-7 -5 -12 -5q-17 0 -32.5 27t-15.5 51q0 34 17 63t46 46t63 17q50 0 89 -28v101q0 20 -12 36t-31 16h-35q-75 0 -135 -31t-94.5 -85t-34.5 -119q0 -59 29 -109t79 -79t109 -29q36 0 68.5 14.5
z" />
    <glyph glyph-name="K.ss10" unicode="&#xe044;" horiz-adv-x="642" 
d="M3200.5 -284.5q182.5 -106.5 289 -289t106.5 -397.5q0 -173 -85.5 -318.5t-232 -231t-320.5 -85.5q-139 0 -256 69t-186 186t-69 256q0 111 55 205t149 149t205 55q29 0 55 -11t26 -25q0 -6 -4 -10q-7 -9 -14 -9q-9 0 -26 15q-22 20 -37 20q-106 0 -195 -52.5
t-141.5 -141.5t-52.5 -195q0 -134 66 -246.5t178.5 -178.5t246.5 -66q168 0 310 82.5t225 224t83 308.5q0 210 -104 387.5t-282 281.5t-388 104q-101 0 -202 -16.5t-189.5 -40t-226.5 -65.5q-145 -45 -249 -72.5t-226 -46.5t-250 -19q-198 0 -393 67.5t-357.5 194.5
t-264.5 299l-154 249l-68 -91v-193q0 -20 12 -34t31 -18l35 -7v-9h-276v9l35 7q19 4 31 18t12 34v190q-54 -46 -125 -46q-64 0 -118.5 32t-86.5 86.5t-32 118.5q0 70 37 127.5t102 90.5t145 33h276v-9l-35 -7q-19 -4 -31 -18t-12 -34v-325l216 285q15 21 15 42
q0 20 -12.5 35.5t-33.5 21.5v9h205v-9l-33 -10q-52 -15 -83 -57l-133 -176l223 -361q71 -121 207 -242.5t311 -202t355 -80.5q127 0 247.5 19t222 46t250.5 72q140 42 228.5 66t190 40.5t204.5 16.5q216 0 398.5 -106.5zM45.5 246.5q32.5 14.5 56.5 39.5v220q-40 33 -89 33
q-44 0 -75 -31t-31 -75q0 -12 7.5 -20.5t21.5 -19.5q18 -14 18 -21q0 -6 -7 -12q-7 -5 -12 -5q-17 0 -32.5 27t-15.5 51q0 34 17 63t46 46t63 17q50 0 89 -28v101q0 20 -12 36t-31 16h-35q-75 0 -135 -31t-94.5 -85t-34.5 -119q0 -59 29 -109t79 -79t109 -29q36 0 68.5 14.5
z" />
    <glyph glyph-name="Kcommaaccent" unicode="&#x136;" horiz-adv-x="642" 
d="M222 261v-193q0 -20 12 -34t31 -18l35 -7v-9h-276v9l35 7q19 4 31 18t12 34v564q0 20 -12 34t-31 18l-35 7v9h276v-9l-35 -7q-19 -4 -31 -18t-12 -34v-325l216 285q15 21 15 42q0 20 -12.5 35.5t-33.5 21.5v9h205v-9l-33 -10q-52 -15 -83 -57l-133 -176l223 -361
q19 -31 47.5 -50.5t63.5 -26.5l6 -1v-9h-289v9q20 4 31 18.5t11 34.5t-12 41l-154 249zM380.5 -57q14.5 -18 14.5 -61q0 -29 -13.5 -56t-38.5 -44t-57 -17v16q28 0 51.5 24.5t23.5 55.5q-3 -3 -14 -4t-16 -1q-23 0 -36.5 13.5t-13.5 36.5t16 39t39 16q30 0 44.5 -18z" />
    <glyph glyph-name="L" unicode="L" horiz-adv-x="591" 
d="M573 117.5q-8 -25.5 -8 -54.5q0 -24 6 -39t18 -15v-9h-565v9l35 7q19 4 31 18t12 34v564q0 20 -12 34t-31 18l-35 7v9h276v-9l-39 -8q-17 -3 -28 -17t-11 -34v-556q0 -24 16 -40t40 -16h169q12 0 21.5 14.5t20.5 43.5q17 40 30.5 59.5t35.5 19.5q17 0 37 -14
q-11 0 -19 -25.5z" />
    <glyph glyph-name="L.ss01" unicode="&#xe045;" horiz-adv-x="396" 
d="M1558.5 170q63.5 -37 100.5 -100t37 -138q0 -93 -46 -172t-124.5 -125t-171.5 -46q-155 0 -279 32t-214 77.5t-208 119.5q-99 62 -167 98t-152 60t-182 24h-128v9l35 7q19 4 31 18t12 34v564q0 20 -12 34t-31 18l-35 7v9h276v-9l-39 -8q-17 -3 -28 -17t-11 -34v-556
q0 -21 13 -38.5t32 -21.5q146 -10 255.5 -43.5t184 -76t170.5 -110.5q88 -61 148 -95.5t142 -58t187 -23.5q88 0 161.5 43.5t117 117.5t43.5 162q0 69 -34.5 127.5t-93 93t-128.5 34.5q-55 0 -101.5 -27.5t-73.5 -74t-27 -101.5q0 -43 21.5 -79.5t58 -58t79.5 -21.5
q11 0 21 8t22 23q7 8 14.5 15t13.5 7q5 0 11 -6q7 -9 7 -15q0 -19 -27.5 -35.5t-61.5 -16.5q-48 0 -89 24.5t-65.5 65.5t-24.5 89q0 61 30 112t81 81t111 30q75 0 138.5 -37z" />
    <glyph glyph-name="L.ss02" unicode="&#xe046;" horiz-adv-x="396" 
d="M1830.5 931.5q146.5 -85.5 232 -231t85.5 -318.5q0 -215 -106.5 -397.5t-289 -289t-398.5 -106.5q-155 0 -279 32t-214 77.5t-208 119.5q-99 62 -167 98t-152 60t-182 24h-128v9l35 7q19 4 31 18t12 34v564q0 20 -12 34t-31 18l-35 7v9h276v-9l-39 -8q-17 -3 -28 -17
t-11 -34v-556q0 -21 13 -38.5t32 -21.5q146 -10 255.5 -43.5t184 -76t170.5 -110.5q88 -61 148 -95.5t142 -58t187 -23.5q210 0 388 104t282 281.5t104 387.5q0 167 -83 308.5t-225 224t-310 82.5q-134 0 -246.5 -66t-178.5 -178.5t-66 -246.5q0 -106 52.5 -195
t141.5 -141.5t195 -52.5q15 0 37 20q17 15 26 15q7 0 14 -9q4 -4 4 -10q0 -14 -26 -25t-55 -11q-111 0 -205 55t-149 149t-55 205q0 139 69 256t186 186t256 69q174 0 320.5 -85.5z" />
    <glyph glyph-name="L.ss03" unicode="&#xe047;" horiz-adv-x="396" 
d="M1558.5 170q63.5 -37 100.5 -100t37 -138q0 -93 -46 -172t-124.5 -125t-171.5 -46q-155 0 -279 32t-214 77.5t-208 119.5q-99 62 -167 98t-152 60t-182 24h-128v9l35 7q19 4 31 18t12 34v190q-54 -46 -125 -46q-64 0 -118.5 32t-86.5 86.5t-32 118.5q0 70 37 127.5
t102 90.5t145 33h276v-9l-39 -8q-17 -3 -28 -17t-11 -34v-556q0 -21 13 -38.5t32 -21.5q146 -10 255.5 -43.5t184 -76t170.5 -110.5q88 -61 148 -95.5t142 -58t187 -23.5q88 0 161.5 43.5t117 117.5t43.5 162q0 69 -34.5 127.5t-93 93t-128.5 34.5q-55 0 -101.5 -27.5
t-73.5 -74t-27 -101.5q0 -43 21.5 -79.5t58 -58t79.5 -21.5q11 0 21 8t22 23q7 8 14.5 15t13.5 7q5 0 11 -6q7 -9 7 -15q0 -19 -27.5 -35.5t-61.5 -16.5q-48 0 -89 24.5t-65.5 65.5t-24.5 89q0 61 30 112t81 81t111 30q75 0 138.5 -37zM45.5 246.5q32.5 14.5 56.5 39.5v220
q-40 33 -89 33q-44 0 -75 -31t-31 -75q0 -12 7.5 -20.5t21.5 -19.5q18 -14 18 -21q0 -6 -7 -12q-7 -5 -12 -5q-17 0 -32.5 27t-15.5 51q0 34 17 63t46 46t63 17q50 0 89 -28v101q0 20 -12 36t-31 16h-35q-75 0 -135 -31t-94.5 -85t-34.5 -119q0 -59 29 -109t79 -79t109 -29
q36 0 68.5 14.5z" />
    <glyph glyph-name="L.ss04" unicode="&#xe048;" horiz-adv-x="396" 
d="M1830.5 931.5q146.5 -85.5 232 -231t85.5 -318.5q0 -215 -106.5 -397.5t-289 -289t-398.5 -106.5q-155 0 -279 32t-214 77.5t-208 119.5q-99 62 -167 98t-152 60t-182 24h-128v9l35 7q19 4 31 18t12 34v190q-54 -46 -125 -46q-64 0 -118.5 32t-86.5 86.5t-32 118.5
q0 70 37 127.5t102 90.5t145 33h276v-9l-39 -8q-17 -3 -28 -17t-11 -34v-556q0 -21 13 -38.5t32 -21.5q146 -10 255.5 -43.5t184 -76t170.5 -110.5q88 -61 148 -95.5t142 -58t187 -23.5q210 0 388 104t282 281.5t104 387.5q0 167 -83 308.5t-225 224t-310 82.5
q-134 0 -246.5 -66t-178.5 -178.5t-66 -246.5q0 -106 52.5 -195t141.5 -141.5t195 -52.5q15 0 37 20q17 15 26 15q7 0 14 -9q4 -4 4 -10q0 -14 -26 -25t-55 -11q-111 0 -205 55t-149 149t-55 205q0 139 69 256t186 186t256 69q174 0 320.5 -85.5zM45.5 246.5
q32.5 14.5 56.5 39.5v220q-40 33 -89 33q-44 0 -75 -31t-31 -75q0 -12 7.5 -20.5t21.5 -19.5q18 -14 18 -21q0 -6 -7 -12q-7 -5 -12 -5q-17 0 -32.5 27t-15.5 51q0 34 17 63t46 46t63 17q50 0 89 -28v101q0 20 -12 36t-31 16h-35q-75 0 -135 -31t-94.5 -85t-34.5 -119
q0 -59 29 -109t79 -79t109 -29q36 0 68.5 14.5z" />
    <glyph glyph-name="L.ss05" unicode="&#xe049;" horiz-adv-x="591" 
d="M552.5 30.5q13.5 -21.5 36.5 -21.5v-9h-565v9l35 7q19 4 31 18t12 34v190q-54 -46 -125 -46q-64 0 -118.5 32t-86.5 86.5t-32 118.5q0 70 37 127.5t102 90.5t145 33h276v-9l-39 -8q-17 -3 -28 -17t-11 -34v-556q0 -24 16 -40t40 -16h149q12 0 16.5 3t4.5 9q0 8 -9 26
q-1 3 -7.5 18.5t-6.5 30.5q0 31 19 52.5t54 21.5q34 0 57.5 -13.5t26.5 -34.5q-19 0 -31 -17.5t-12 -41.5q0 -22 13.5 -43.5zM45.5 246.5q32.5 14.5 56.5 39.5v220q-40 33 -89 33q-44 0 -75 -31t-31 -75q0 -12 7.5 -20.5t21.5 -19.5q18 -14 18 -21q0 -6 -7 -12q-7 -5 -12 -5
q-17 0 -32.5 27t-15.5 51q0 34 17 63t46 46t63 17q50 0 89 -28v101q0 20 -12 36t-31 16h-35q-75 0 -135 -31t-94.5 -85t-34.5 -119q0 -59 29 -109t79 -79t109 -29q36 0 68.5 14.5z" />
    <glyph glyph-name="L.ss06" unicode="&#xe04a;" horiz-adv-x="591" 
d="M552.5 30.5q13.5 -21.5 36.5 -21.5v-9h-565v9l35 7q19 4 31 18t12 34v564q0 20 -12 34t-31 18l-35 7v9h276v-9l-39 -8q-17 -3 -28 -17t-11 -34v-556q0 -24 16 -40t40 -16h149q12 0 16.5 3t4.5 9q0 8 -9 26q-1 3 -7.5 18.5t-6.5 30.5q0 31 19 52.5t54 21.5
q34 0 57.5 -13.5t26.5 -34.5q-19 0 -31 -17.5t-12 -41.5q0 -22 13.5 -43.5z" />
    <glyph glyph-name="L.ss07" unicode="&#xe04b;" horiz-adv-x="591" 
d="M573 117.5q-8 -25.5 -8 -54.5q0 -24 6 -39t18 -15v-9h-565v9l35 7q19 4 31 18t12 34v190q-54 -46 -125 -46q-64 0 -118.5 32t-86.5 86.5t-32 118.5q0 70 37 127.5t102 90.5t145 33h276v-9l-39 -8q-17 -3 -28 -17t-11 -34v-556q0 -24 16 -40t40 -16h169q12 0 21.5 14.5
t20.5 43.5q17 40 30.5 59.5t35.5 19.5q17 0 37 -14q-11 0 -19 -25.5zM45.5 246.5q32.5 14.5 56.5 39.5v220q-40 33 -89 33q-44 0 -75 -31t-31 -75q0 -12 7.5 -20.5t21.5 -19.5q18 -14 18 -21q0 -6 -7 -12q-7 -5 -12 -5q-17 0 -32.5 27t-15.5 51q0 34 17 63t46 46t63 17
q50 0 89 -28v101q0 20 -12 36t-31 16h-35q-75 0 -135 -31t-94.5 -85t-34.5 -119q0 -59 29 -109t79 -79t109 -29q36 0 68.5 14.5z" />
    <glyph glyph-name="Lacute" unicode="&#x139;" horiz-adv-x="591" 
d="M573 117.5q-8 -25.5 -8 -54.5q0 -24 6 -39t18 -15v-9h-565v9l35 7q19 4 31 18t12 34v564q0 20 -12 34t-31 18l-35 7v9h276v-9l-39 -8q-17 -3 -28 -17t-11 -34v-556q0 -24 16 -40t40 -16h169q12 0 21.5 14.5t20.5 43.5q17 40 30.5 59.5t35.5 19.5q17 0 37 -14
q-11 0 -19 -25.5zM185 870h108l-120 -120h-36z" />
    <glyph glyph-name="Lcaron" unicode="&#x13d;" horiz-adv-x="591" 
d="M573 117.5q-8 -25.5 -8 -54.5q0 -24 6 -39t18 -15v-9h-565v9l35 7q19 4 31 18t12 34v564q0 20 -12 34t-31 18l-35 7v9h276v-9l-39 -8q-17 -3 -28 -17t-11 -34v-556q0 -24 16 -40t40 -16h169q12 0 21.5 14.5t20.5 43.5q17 40 30.5 59.5t35.5 19.5q17 0 37 -14
q-11 0 -19 -25.5zM445.5 682q14.5 -18 14.5 -61q0 -29 -13.5 -56t-38.5 -44t-57 -17v16q28 0 51.5 24.5t23.5 55.5q-3 -3 -14 -4t-16 -1q-23 0 -36.5 13.5t-13.5 36.5t16 39t39 16q30 0 44.5 -18z" />
    <glyph glyph-name="Lcommaaccent" unicode="&#x13b;" horiz-adv-x="591" 
d="M573 117.5q-8 -25.5 -8 -54.5q0 -24 6 -39t18 -15v-9h-565v9l35 7q19 4 31 18t12 34v564q0 20 -12 34t-31 18l-35 7v9h276v-9l-39 -8q-17 -3 -28 -17t-11 -34v-556q0 -24 16 -40t40 -16h169q12 0 21.5 14.5t20.5 43.5q17 40 30.5 59.5t35.5 19.5q17 0 37 -14
q-11 0 -19 -25.5zM345.5 -77q14.5 -18 14.5 -61q0 -29 -13.5 -56t-38.5 -44t-57 -17v16q28 0 51.5 24.5t23.5 55.5q-3 -3 -14 -4t-16 -1q-23 0 -36.5 13.5t-13.5 36.5t16 39t39 16q30 0 44.5 -18z" />
    <glyph glyph-name="Lslash" unicode="&#x141;" horiz-adv-x="591" 
d="M552.5 30.5q13.5 -21.5 36.5 -21.5v-9h-565v9l35 7q19 4 31 18t12 34v222l-67 -60v40l67 60v302q0 20 -12 34t-31 18l-35 7v9h276v-9l-39 -8q-17 -3 -28 -17t-11 -34v-194l58 52v-40l-58 -52v-322q0 -24 16 -40t40 -16h149q12 0 16.5 3t4.5 9q0 8 -9 26q-1 3 -7.5 18.5
t-6.5 30.5q0 31 19 52.5t54 21.5q34 0 57.5 -13.5t26.5 -34.5q-19 0 -31 -17.5t-12 -41.5q0 -22 13.5 -43.5z" />
    <glyph glyph-name="M" unicode="M" horiz-adv-x="941" 
d="M715 700h192v-9l-35 -7q-19 -4 -31 -18t-12 -34v-564q0 -20 12 -34t31 -18l35 -7v-9h-276v9l35 7q19 4 31 18t12 34v525l-250 -608h-28l-283 611v-524q0 -17 10 -30.5t27 -18.5l47 -14v-9h-205v9l48 14q16 4 26.5 18.5t10.5 31.5v556q0 19 -11 32.5t-29 18.5l-45 11v9
h198l260 -565z" />
    <glyph glyph-name="M.ss01" unicode="&#xe04c;" horiz-adv-x="941" 
d="M841 666q-12 -14 -12 -34v-564q0 -20 12 -34t31 -18l35 -7v-9h-276v9l35 7q19 4 31 18t12 34v525l-250 -608q-67 -132 -182 -197t-261 -65q-112 0 -207.5 58t-151 155.5t-55.5 210.5q0 91 45 167.5t121.5 121.5t167.5 45q49 0 94.5 -17t81.5 -48v213q0 19 -11 32.5
t-29 18.5l-45 11v9h198l260 -565l230 565h192v-9l-35 -7q-19 -4 -31 -18zM260 -195q107 58 171 180l-283 611v-218q57 -73 57 -166q0 -42 -15 -79.5t-42 -67.5q2 -15 12 -26.5t25 -15.5l47 -14v-9h-194q-24 -6 -51 -6q-36 0 -66 16.5t-30 37.5q0 9 6 18q10 14 21 14
q10 0 19.5 -9t22.5 -26q19 -23 27 -27q69 0 124 45q1 3 1 10v309q-35 35 -80 55t-96 20q-84 0 -155.5 -41.5t-113 -113t-41.5 -155.5q0 -106 52.5 -198t142.5 -147t195 -55q137 0 244 58zM148 104q33 49 33 108q0 66 -33 123v-231z" />
    <glyph glyph-name="M.ss02" unicode="&#xe04d;" horiz-adv-x="941" 
d="M841 666q-12 -14 -12 -34v-564q0 -20 12 -34t31 -18l35 -7v-9h-276v9l35 7q19 4 31 18t12 34v525l-250 -608h-28l-283 611v-160q33 -26 51.5 -64t18.5 -81q0 -48 -18.5 -90.5t-51.5 -74.5v-54q0 -17 10 -30.5t27 -18.5l47 -14v-9h-205v9l48 14q16 4 26.5 18.5t10.5 31.5
v24q-56 -36 -124 -36q-77 0 -142.5 38.5t-104 104t-38.5 142.5q0 96 47.5 177.5t129 129t177.5 47.5h168l260 -565l230 565h192v-9l-35 -7q-19 -4 -31 -18zM-90.5 306.5q7.5 -8.5 21.5 -19.5q18 -14 18 -21q0 -6 -7 -12q-7 -5 -12 -5q-17 0 -32.5 27t-15.5 51q0 41 20 75.5
t54.5 54.5t75.5 20t80 -18v170q0 20 -11.5 36.5t-28.5 17.5l-30 1q-88 -4 -161 -50.5t-115.5 -122.5t-42.5 -165q0 -72 35.5 -133t96.5 -96.5t133 -35.5q68 0 124 40v316q-37 20 -80 20q-35 0 -65 -17.5t-47.5 -47.5t-17.5 -65q0 -12 7.5 -20.5zM185 356.5
q-13 30.5 -37 53.5v-255q50 60 50 136q0 35 -13 65.5z" />
    <glyph glyph-name="M.ss03" unicode="&#xe04e;" horiz-adv-x="941" 
d="M1889.5 670.5q146.5 -85.5 232 -231t85.5 -318.5q0 -215 -106.5 -397.5t-289 -289t-398.5 -106.5q-119 0 -243.5 37.5t-236 92t-276.5 145.5q-108 60 -183.5 99t-149.5 71q-74 -85 -163.5 -134t-189.5 -49q-68 0 -127.5 17t-96.5 50.5t-37 79.5q0 42 33 74.5t92.5 50
t135.5 17.5q153 0 345 -81q69 83 115 187l-283 611v-524q0 -17 10 -30.5t27 -18.5l47 -14v-9h-205v9l48 14q16 4 26.5 18.5t10.5 31.5v556q0 19 -11 32.5t-29 18.5l-45 11v9h198l260 -565l230 565h192v-9l-35 -7q-19 -4 -31 -18t-12 -34v-564q0 -20 12 -34t31 -18l35 -7v-9
h-276v9l35 7q19 4 31 18t12 34v525l-250 -608q-51 -110 -121 -196q71 -31 143.5 -69t181.5 -98q163 -90 274.5 -144.5t234.5 -92t241 -37.5q210 0 388 104t282 281.5t104 387.5q0 167 -83 308.5t-225 224t-310 82.5q-134 0 -246.5 -66t-178.5 -178.5t-66 -246.5
q0 -106 52.5 -195t141.5 -141.5t195 -52.5q15 0 37 20q17 15 26 15q7 0 14 -9q4 -4 4 -10q0 -14 -26 -25t-55 -11q-111 0 -205 55t-149 149t-55 205q0 139 69 256t186 186t256 69q174 0 320.5 -85.5zM150 -343.5q84 46.5 153 125.5q-91 37 -172.5 57t-159.5 20
q-70 0 -124.5 -15.5t-85.5 -43t-31 -63.5q0 -40 34.5 -69t89.5 -43.5t117 -14.5q95 0 179 46.5z" />
    <glyph glyph-name="M.ss04" unicode="&#xe04f;" horiz-adv-x="941" 
d="M1787.5 99q63.5 -37 100.5 -100t37 -138q0 -95 -54 -173.5t-150 -124t-218 -45.5q-119 0 -246.5 30.5t-243.5 74.5t-290 118q-26 11 -133.5 56t-199.5 76q-75 -92 -179 -142.5t-200 -50.5q-68 0 -127.5 17t-96.5 50.5t-37 79.5q0 42 33 74.5t92.5 50t135.5 17.5
q154 0 369 -71q32 44 51 87l-283 611v-524q0 -17 10 -30.5t27 -18.5l47 -14v-9h-205v9l48 14q16 4 26.5 18.5t10.5 31.5v556q0 19 -11 32.5t-29 18.5l-45 11v9h198l260 -565l230 565h192v-9l-35 -7q-19 -4 -31 -18t-12 -34v-564q0 -20 12 -34t31 -18l35 -7v-9h-276v9l35 7
q19 4 31 18t12 34v525l-250 -608q-22 -48 -56 -95q118 -41 324 -130q173 -73 289 -117t242.5 -74.5t244.5 -30.5q116 0 208 43t143 117t51 163q0 69 -34.5 127.5t-93 93t-128.5 34.5q-55 0 -101.5 -27.5t-73.5 -74t-27 -101.5q0 -43 21.5 -79.5t58 -58t79.5 -21.5q11 0 21 8
t22 23q7 8 14.5 15t13.5 7q5 0 11 -6q7 -9 7 -15q0 -19 -27.5 -35.5t-61.5 -16.5q-48 0 -89 24.5t-65.5 65.5t-24.5 89q0 61 30 112t81 81t111 30q75 0 138.5 -37zM199 -252q98 48 168 133q-204 68 -356 68q-70 0 -124.5 -15.5t-85.5 -43t-31 -63.5q0 -40 34.5 -69
t89.5 -43.5t117 -14.5q90 0 188 48z" />
    <glyph glyph-name="M.ss05" unicode="&#xe050;" horiz-adv-x="941" 
d="M1787.5 99q63.5 -37 100.5 -100t37 -138q0 -95 -54 -173.5t-150 -124t-218 -45.5q-119 0 -246.5 30.5t-243.5 74.5t-290 118q-26 11 -133.5 56t-199.5 76q-75 -92 -179 -142.5t-200 -50.5q-68 0 -127.5 17t-96.5 50.5t-37 79.5q0 42 33 74.5t92.5 50t135.5 17.5
q154 0 369 -71q32 44 51 87l-283 611v-160q33 -26 51.5 -64t18.5 -81q0 -48 -18.5 -90.5t-51.5 -74.5v-54q0 -17 10 -30.5t27 -18.5l47 -14v-9h-205v9l48 14q16 4 26.5 18.5t10.5 31.5v24q-56 -36 -124 -36q-77 0 -142.5 38.5t-104 104t-38.5 142.5q0 96 47.5 177.5t129 129
t177.5 47.5h168l260 -565l230 565h192v-9l-35 -7q-19 -4 -31 -18t-12 -34v-564q0 -20 12 -34t31 -18l35 -7v-9h-276v9l35 7q19 4 31 18t12 34v525l-250 -608q-22 -48 -56 -95q118 -41 324 -130q173 -73 289 -117t242.5 -74.5t244.5 -30.5q116 0 208 43t143 117t51 163
q0 69 -34.5 127.5t-93 93t-128.5 34.5q-55 0 -101.5 -27.5t-73.5 -74t-27 -101.5q0 -43 21.5 -79.5t58 -58t79.5 -21.5q11 0 21 8t22 23q7 8 14.5 15t13.5 7q5 0 11 -6q7 -9 7 -15q0 -19 -27.5 -35.5t-61.5 -16.5q-48 0 -89 24.5t-65.5 65.5t-24.5 89q0 61 30 112t81 81
t111 30q75 0 138.5 -37zM-90.5 306.5q7.5 -8.5 21.5 -19.5q18 -14 18 -21q0 -6 -7 -12q-7 -5 -12 -5q-17 0 -32.5 27t-15.5 51q0 41 20 75.5t54.5 54.5t75.5 20t80 -18v170q0 20 -11.5 37.5t-28.5 17.5h-15q-91 0 -167.5 -46t-121.5 -123.5t-45 -168.5q0 -72 35.5 -133
t96.5 -96.5t133 -35.5q68 0 124 40v316q-37 20 -80 20q-35 0 -65 -17.5t-47.5 -47.5t-17.5 -65q0 -12 7.5 -20.5zM185 356.5q-13 30.5 -37 53.5v-255q50 60 50 136q0 35 -13 65.5zM199 -252q98 48 168 133q-204 68 -356 68q-70 0 -124.5 -15.5t-85.5 -43t-31 -63.5
q0 -40 34.5 -69t89.5 -43.5t117 -14.5q90 0 188 48z" />
    <glyph glyph-name="M.ss06" unicode="&#xe051;" horiz-adv-x="941" 
d="M1889.5 670.5q146.5 -85.5 232 -231t85.5 -318.5q0 -215 -106.5 -397.5t-289 -289t-398.5 -106.5q-119 0 -243.5 37.5t-236 92t-276.5 145.5q-108 60 -183.5 99t-149.5 71q-74 -85 -163.5 -134t-189.5 -49q-68 0 -127.5 17t-96.5 50.5t-37 79.5q0 42 33 74.5t92.5 50
t135.5 17.5q153 0 345 -81q69 83 115 187l-283 611v-160q33 -26 51.5 -64t18.5 -81q0 -48 -18.5 -90.5t-51.5 -74.5v-54q0 -17 10 -30.5t27 -18.5l47 -14v-9h-205v9l48 14q16 4 26.5 18.5t10.5 31.5v24q-56 -36 -124 -36q-77 0 -142.5 38.5t-104 104t-38.5 142.5
q0 96 47.5 177.5t129 129t177.5 47.5h168l260 -565l230 565h192v-9l-35 -7q-19 -4 -31 -18t-12 -34v-564q0 -20 12 -34t31 -18l35 -7v-9h-276v9l35 7q19 4 31 18t12 34v525l-250 -608q-51 -110 -121 -196q71 -31 143.5 -69t181.5 -98q163 -90 274.5 -144.5t234.5 -92
t241 -37.5q210 0 388 104t282 281.5t104 387.5q0 167 -83 308.5t-225 224t-310 82.5q-134 0 -246.5 -66t-178.5 -178.5t-66 -246.5q0 -106 52.5 -195t141.5 -141.5t195 -52.5q15 0 37 20q17 15 26 15q7 0 14 -9q4 -4 4 -10q0 -14 -26 -25t-55 -11q-111 0 -205 55t-149 149
t-55 205q0 139 69 256t186 186t256 69q174 0 320.5 -85.5zM-90.5 306.5q7.5 -8.5 21.5 -19.5q18 -14 18 -21q0 -6 -7 -12q-7 -5 -12 -5q-17 0 -32.5 27t-15.5 51q0 41 20 75.5t54.5 54.5t75.5 20t80 -18v170q0 20 -11 37.5t-29 17.5h-15q-91 0 -167.5 -46t-121.5 -123.5
t-45 -168.5q0 -72 35.5 -133t96.5 -96.5t133 -35.5q68 0 124 40v316q-37 20 -80 20q-35 0 -65 -17.5t-47.5 -47.5t-17.5 -65q0 -12 7.5 -20.5zM185 356.5q-13 30.5 -37 53.5v-255q50 60 50 136q0 35 -13 65.5zM150 -343.5q84 46.5 153 125.5q-91 37 -172.5 57t-159.5 20
q-70 0 -124.5 -15.5t-85.5 -43t-31 -63.5q0 -40 34.5 -69t89.5 -43.5t117 -14.5q95 0 179 46.5z" />
    <glyph glyph-name="M.ss07" unicode="&#xe052;" horiz-adv-x="941" 
d="M2238 -313q0 -13 -8 -29t-20 -30q-115 -122 -296.5 -211t-460.5 -89q-122 0 -255 39.5t-253.5 96t-299.5 150.5q-110 58 -181 94t-140 65q-74 -85 -163.5 -134t-189.5 -49q-68 0 -127.5 17t-96.5 50.5t-37 79.5q0 42 33 74.5t92.5 50t135.5 17.5q153 0 345 -81
q69 83 115 187l-283 611v-524q0 -17 10 -30.5t27 -18.5l47 -14v-9h-205v9l48 14q16 4 26.5 18.5t10.5 31.5v556q0 19 -11 32.5t-29 18.5l-45 11v9h198l260 -565l230 565h192v-9l-35 -7q-19 -4 -31 -18t-12 -34v-564q0 -20 12 -34t31 -18l35 -7v-9h-276v9l35 7q19 4 31 18
t12 34v525l-250 -608q-51 -110 -121 -196q66 -29 148.5 -71t162.5 -84q181 -95 300 -151t251 -95.5t253 -39.5q464 0 743 294q6 9 6 32q0 16 3.5 23.5t16.5 7.5q16 0 16 -18zM150 -343.5q84 46.5 153 125.5q-91 37 -172.5 57t-159.5 20q-70 0 -124.5 -15.5t-85.5 -43
t-31 -63.5q0 -40 34.5 -69t89.5 -43.5t117 -14.5q95 0 179 46.5z" />
    <glyph glyph-name="M.ss08" unicode="&#xe053;" horiz-adv-x="941" 
d="M2238 -313q0 -13 -8 -29t-20 -30q-115 -122 -296.5 -211t-460.5 -89q-122 0 -255 39.5t-253.5 96t-299.5 150.5q-110 58 -181 94t-140 65q-74 -85 -163.5 -134t-189.5 -49q-68 0 -127.5 17t-96.5 50.5t-37 79.5q0 42 33 74.5t92.5 50t135.5 17.5q153 0 345 -81
q69 83 115 187l-283 611v-160q33 -26 51.5 -64t18.5 -81q0 -48 -18.5 -90.5t-51.5 -74.5v-54q0 -17 10 -30.5t27 -18.5l47 -14v-9h-205v9l48 14q16 4 26.5 18.5t10.5 31.5v24q-56 -36 -124 -36q-77 0 -142.5 38.5t-104 104t-38.5 142.5q0 96 47.5 177.5t129 129t177.5 47.5
h168l260 -565l230 565h192v-9l-35 -7q-19 -4 -31 -18t-12 -34v-564q0 -20 12 -34t31 -18l35 -7v-9h-276v9l35 7q19 4 31 18t12 34v525l-250 -608q-51 -110 -121 -196q66 -29 148.5 -71t162.5 -84q181 -95 300 -151t251 -95.5t253 -39.5q464 0 743 294q6 9 6 32
q0 16 3.5 23.5t16.5 7.5q16 0 16 -18zM-90.5 306.5q7.5 -8.5 21.5 -19.5q18 -14 18 -21q0 -6 -7 -12q-7 -5 -12 -5q-17 0 -32.5 27t-15.5 51q0 41 20 75.5t54.5 54.5t75.5 20t80 -18v170q0 20 -12 37.5t-28 17.5h-15q-91 0 -167.5 -46t-121.5 -123.5t-45 -168.5
q0 -72 35.5 -133t96.5 -96.5t133 -35.5q68 0 124 40v316q-37 20 -80 20q-35 0 -65 -17.5t-47.5 -47.5t-17.5 -65q0 -12 7.5 -20.5zM185 356.5q-13 30.5 -37 53.5v-255q50 60 50 136q0 35 -13 65.5zM150 -343.5q84 46.5 153 125.5q-91 37 -172.5 57t-159.5 20
q-70 0 -124.5 -15.5t-85.5 -43t-31 -63.5q0 -40 34.5 -69t89.5 -43.5t117 -14.5q95 0 179 46.5z" />
    <glyph glyph-name="N" unicode="N" horiz-adv-x="701" 
d="M563 628q0 17 -10 30.5t-27 18.5l-47 14v9h205v-9l-48 -14q-17 -5 -27 -19t-10 -31v-637h-28l-433 612v-530q0 -17 10 -30.5t27 -18.5l47 -14v-9h-205v9l48 14q17 5 27 19t10 31v556q0 19 -11 32.5t-29 18.5l-45 11v9h185l361 -512v440z" />
    <glyph glyph-name="N.ss01" unicode="&#xe054;" horiz-adv-x="701" 
d="M684 700v-9l-48 -14q-17 -5 -27 -19t-10 -31v-637h-28l-433 612v-166q33 -26 51.5 -64t18.5 -81q0 -48 -18.5 -90.5t-51.5 -74.5v-54q0 -17 10 -30.5t27 -18.5l47 -14v-9h-205v9l48 14q17 5 27 19t10 31v24q-56 -36 -124 -36q-77 0 -142.5 38.5t-104 104t-38.5 142.5
q0 96 47.5 177.5t129 129t177.5 47.5h155l361 -512v440q0 17 -10 30.5t-27 18.5l-47 14v9h205zM-100.5 306.5q7.5 -8.5 21.5 -19.5q18 -14 18 -21q0 -6 -7 -12q-7 -5 -12 -5q-17 0 -32.5 27t-15.5 51q0 41 20 75.5t54.5 54.5t75.5 20t80 -18v170q0 20 -11.5 36.5t-28.5 17.5
l-15 1q-91 0 -167.5 -46t-121.5 -123.5t-45 -168.5q0 -72 35.5 -133t96.5 -96.5t133 -35.5q68 0 124 40v316q-37 20 -80 20q-35 0 -65 -17.5t-47.5 -47.5t-17.5 -65q0 -12 7.5 -20.5zM175 356.5q-13 30.5 -37 53.5v-255q50 60 50 136q0 35 -13 65.5z" />
    <glyph glyph-name="N.ss02" unicode="&#xe055;" horiz-adv-x="701" 
d="M1603.5 123q63.5 -37 100.5 -100t37 -138q0 -95 -45 -173.5t-127.5 -124t-189.5 -45.5q-204 0 -370 75t-274.5 177.5t-163.5 195.5l-433 612v-530q0 -17 10 -30.5t27 -18.5l47 -14v-9h-205v9l48 14q17 5 27 19t10 31v556q0 19 -11 32.5t-29 18.5l-45 11v9h185l361 -512
v440q0 17 -10 30.5t-27 18.5l-47 14v9h205v-9l-48 -14q-17 -5 -27 -19t-10 -31v-499q90 -148 194.5 -270t253.5 -209t332 -87q101 0 179 43t120.5 116.5t42.5 163.5q0 69 -34.5 127.5t-93 93t-128.5 34.5q-55 0 -101.5 -27.5t-73.5 -74t-27 -101.5q0 -43 21.5 -79.5t58 -58
t79.5 -21.5q11 0 21 8t22 23q7 8 14.5 15t13.5 7q5 0 11 -6q7 -9 7 -15q0 -19 -27.5 -35.5t-61.5 -16.5q-48 0 -89 24.5t-65.5 65.5t-24.5 89q0 61 30 112t81 81t111 30q75 0 138.5 -37z" />
    <glyph glyph-name="N.ss03" unicode="&#xe056;" horiz-adv-x="701" 
d="M1603.5 123q63.5 -37 100.5 -100t37 -138q0 -95 -45 -173.5t-127.5 -124t-189.5 -45.5q-313 0 -515.5 143t-325.5 352l-400 565v-166q33 -26 51.5 -64t18.5 -81q0 -48 -18.5 -90.5t-51.5 -74.5v-54q0 -17 10 -30.5t27 -18.5l47 -14v-9h-205v9l48 14q17 5 27 19t10 31v24
q-56 -36 -124 -36q-77 0 -142.5 38.5t-104 104t-38.5 142.5q0 96 47.5 177.5t129 129t177.5 47.5h155l361 -512v440q0 17 -10 30.5t-27 18.5l-47 14v9h205v-9l-48 -14q-17 -5 -27 -19t-10 -31v-499q90 -148 194.5 -270t253.5 -209t332 -87q101 0 179 43t120.5 116.5
t42.5 163.5q0 69 -34.5 127.5t-93 93t-128.5 34.5q-55 0 -101.5 -27.5t-73.5 -74t-27 -101.5q0 -43 21.5 -79.5t58 -58t79.5 -21.5q11 0 21 8t22 23q7 8 14.5 15t13.5 7q5 0 11 -6q7 -9 7 -15q0 -19 -27.5 -35.5t-61.5 -16.5q-48 0 -89 24.5t-65.5 65.5t-24.5 89
q0 61 30 112t81 81t111 30q75 0 138.5 -37zM-100.5 306.5q7.5 -8.5 21.5 -19.5q18 -14 18 -21q0 -6 -7 -12q-7 -5 -12 -5q-17 0 -32.5 27t-15.5 51q0 41 20 75.5t54.5 54.5t75.5 20t80 -18v170q0 20 -11.5 36.5t-28.5 17.5l-15 1q-91 0 -167.5 -46t-121.5 -123.5t-45 -168.5
q0 -72 35.5 -133t96.5 -96.5t133 -35.5q68 0 124 40v316q-37 20 -80 20q-35 0 -65 -17.5t-47.5 -47.5t-17.5 -65q0 -12 7.5 -20.5zM175 356.5q-13 30.5 -37 53.5v-255q50 60 50 136q0 35 -13 65.5z" />
    <glyph glyph-name="N.ss04" unicode="&#xe057;" horiz-adv-x="701" 
d="M1855.5 884.5q146.5 -85.5 232 -231t85.5 -318.5q0 -215 -106.5 -397.5t-289 -289t-398.5 -106.5q-313 0 -515.5 143t-325.5 352l-400 565v-166q33 -26 51.5 -64t18.5 -81q0 -48 -18.5 -90.5t-51.5 -74.5v-54q0 -17 10 -30.5t27 -18.5l47 -14v-9h-205v9l48 14q17 5 27 19
t10 31v24q-56 -36 -124 -36q-77 0 -142.5 38.5t-104 104t-38.5 142.5q0 96 47.5 177.5t129 129t177.5 47.5h155l361 -512v440q0 17 -10 30.5t-27 18.5l-47 14v9h205v-9l-48 -14q-17 -5 -27 -19t-10 -31v-499q90 -148 194.5 -270t253.5 -209t332 -87q210 0 388 104t282 281.5
t104 387.5q0 167 -83 308.5t-225 224t-310 82.5q-134 0 -246.5 -66t-178.5 -178.5t-66 -246.5q0 -106 52.5 -195t141.5 -141.5t195 -52.5q15 0 37 20q17 15 26 15q7 0 14 -9q4 -4 4 -10q0 -14 -26 -25t-55 -11q-111 0 -205 55t-149 149t-55 205q0 139 69 256t186 186t256 69
q174 0 320.5 -85.5zM-100.5 306.5q7.5 -8.5 21.5 -19.5q18 -14 18 -21q0 -6 -7 -12q-7 -5 -12 -5q-17 0 -32.5 27t-15.5 51q0 41 20 75.5t54.5 54.5t75.5 20t80 -18v170q0 20 -11.5 36.5t-28.5 17.5l-15 1q-91 0 -167.5 -46t-121.5 -123.5t-45 -168.5q0 -72 35.5 -133
t96.5 -96.5t133 -35.5q68 0 124 40v316q-37 20 -80 20q-35 0 -65 -17.5t-47.5 -47.5t-17.5 -65q0 -12 7.5 -20.5zM175 356.5q-13 30.5 -37 53.5v-255q50 60 50 136q0 35 -13 65.5z" />
    <glyph glyph-name="N.ss05" unicode="&#xe058;" horiz-adv-x="701" 
d="M1855.5 884.5q146.5 -85.5 232 -231t85.5 -318.5q0 -215 -106.5 -397.5t-289 -289t-398.5 -106.5q-204 0 -370 75t-274.5 177.5t-163.5 195.5l-433 612v-530q0 -17 10 -30.5t27 -18.5l47 -14v-9h-205v9l48 14q17 5 27 19t10 31v556q0 19 -11 32.5t-29 18.5l-45 11v9h185
l361 -512v440q0 17 -10 30.5t-27 18.5l-47 14v9h205v-9l-48 -14q-17 -5 -27 -19t-10 -31v-499q90 -148 194.5 -270t253.5 -209t332 -87q210 0 388 104t282 281.5t104 387.5q0 167 -83 308.5t-225 224t-310 82.5q-134 0 -246.5 -66t-178.5 -178.5t-66 -246.5
q0 -106 52.5 -195t141.5 -141.5t195 -52.5q15 0 37 20q17 15 26 15q7 0 14 -9q4 -4 4 -10q0 -14 -26 -25t-55 -11q-111 0 -205 55t-149 149t-55 205q0 139 69 256t186 186t256 69q174 0 320.5 -85.5z" />
    <glyph glyph-name="Nacute" unicode="&#x143;" horiz-adv-x="701" 
d="M563 628q0 17 -10 30.5t-27 18.5l-47 14v9h205v-9l-48 -14q-17 -5 -27 -19t-10 -31v-637h-28l-433 612v-530q0 -17 10 -30.5t27 -18.5l47 -14v-9h-205v9l48 14q17 5 27 19t10 31v556q0 19 -11 32.5t-29 18.5l-45 11v9h185l361 -512v440zM357 870h108l-120 -120h-36z" />
    <glyph glyph-name="Ncaron" unicode="&#x147;" horiz-adv-x="701" 
d="M563 628q0 17 -10 30.5t-27 18.5l-47 14v9h205v-9l-48 -14q-17 -5 -27 -19t-10 -31v-637h-28l-433 612v-530q0 -17 10 -30.5t27 -18.5l47 -14v-9h-205v9l48 14q17 5 27 19t10 31v556q0 19 -11 32.5t-29 18.5l-45 11v9h185l361 -512v440zM347 805l108 60l17 -12l-125 -118
l-125 118l17 12z" />
    <glyph glyph-name="Ncommaaccent" unicode="&#x145;" horiz-adv-x="701" 
d="M563 628q0 17 -10 30.5t-27 18.5l-47 14v9h205v-9l-48 -14q-17 -5 -27 -19t-10 -31v-637h-28l-433 612v-530q0 -17 10 -30.5t27 -18.5l47 -14v-9h-205v9l48 14q17 5 27 19t10 31v556q0 19 -11 32.5t-29 18.5l-45 11v9h185l361 -512v440zM382.5 -47q14.5 -18 14.5 -61
q0 -29 -13.5 -56t-38.5 -44t-57 -17v16q28 0 51.5 24.5t23.5 55.5q-3 -3 -14 -4t-16 -1q-23 0 -36.5 13.5t-13.5 36.5t16 39t39 16q30 0 44.5 -18z" />
    <glyph glyph-name="Ntilde" unicode="&#xd1;" horiz-adv-x="701" 
d="M563 628q0 17 -10 30.5t-27 18.5l-47 14v9h205v-9l-48 -14q-17 -5 -27 -19t-10 -31v-637h-28l-433 612v-530q0 -17 10 -30.5t27 -18.5l47 -14v-9h-205v9l48 14q17 5 27 19t10 31v556q0 19 -11 32.5t-29 18.5l-45 11v9h185l361 -512v440zM468 860q0 -50 -22 -75t-56 -25
q-16 0 -29 7t-30 21q-18 15 -27.5 21t-21.5 6q-19 0 -30.5 -11.5t-11.5 -33.5h-18q0 50 22 75t56 25q16 0 30.5 -7t29.5 -20q4 -3 13.5 -11.5t18 -12.5t16.5 -4q19 0 30.5 11.5t11.5 33.5h18z" />
    <glyph glyph-name="O" unicode="O" horiz-adv-x="663" 
d="M530 58q-40 -35 -91 -54t-104 -19q-66 0 -127 29.5t-101 80.5q-77 95 -77 234q0 16 2 48q15 172 123 265q39 35 89.5 54t104.5 19q66 0 126.5 -29.5t102.5 -80.5q75 -94 75 -234q0 -16 -2 -48q-15 -171 -121 -265zM436 637q-50 62 -115 62q-35 0 -66.5 -19t-55.5 -63
q-37 -69 -37 -195q0 -46 4 -87q17 -193 82 -272q49 -62 115 -62q33 0 65.5 19.5t56.5 62.5q37 71 37 197q0 45 -4 85q-17 192 -82 272z" />
    <glyph glyph-name="O.ss01" unicode="&#xe059;" horiz-adv-x="655" 
d="M853 263.5q-79 -116.5 -205 -187t-265 -87.5q-25 -6 -53 -6q-65 0 -131.5 31t-105.5 81q-77 95 -77 234q0 16 2 48q15 172 123 265q52 47 122 64q17 65 59.5 116.5t103.5 81t130 29.5q103 0 189 -52.5t136.5 -145t50.5 -208.5q0 -147 -79 -263.5zM661 104.5
q106 66.5 178.5 174.5t72.5 248q0 111 -47.5 199t-129 137.5t-179.5 49.5q-63 0 -119 -26t-95.5 -72t-56.5 -104q21 4 50 4q66 0 126.5 -29.5t102.5 -80.5q49 -62 65 -141q46 51 46 120q0 11 -5.5 23t-15.5 29q-6 11 -11 21.5t-5 17.5q0 10 9 13q8 3 14 3q21 0 27.5 -29.5
t6.5 -77.5q0 -41 -16.5 -78t-44.5 -65q5 -27 5 -69q0 -32 -2 -49q-15 -171 -121 -265q-29 -26 -65 -45q104 25 210 91.5zM273 630q0 -61 30 -112.5t81.5 -81.5t112.5 -30h3q-20 159 -78 231q-54 67 -125 62q-3 0 -8 -1t-8 -2q-8 -34 -8 -66zM349 1q33 0 65.5 19.5t56.5 62.5
q37 71 37 197q0 45 -4 85l-2 21h-5q-66 0 -122 33t-89 89t-33 122q0 31 6 59q-45 -18 -74 -72q-37 -69 -37 -195q0 -46 4 -87q17 -193 82 -272q49 -62 115 -62z" />
    <glyph glyph-name="O.ss02" unicode="&#xe05a;" horiz-adv-x="655" 
d="M640 371q0 -16 -2 -48q-15 -171 -121 -265q-55 -47 -112 -64q-16 -65 -59 -117.5t-104 -82t-131 -29.5q-103 0 -189 52.5t-136.5 145t-50.5 208.5q0 145 76 260t198.5 186t259.5 90q35 8 68 8q65 0 125 -29.5t103 -80.5q75 -94 75 -234zM509 280q0 45 -4 85
q-17 192 -82 272q-50 62 -115 62q-35 0 -66.5 -19t-55.5 -63q-37 -69 -37 -195q0 -46 4 -87l2 -24q5 1 15 1q66 0 122 -33t89 -89t33 -122q0 -30 -4 -51q37 20 62 66q37 71 37 197zM230 -189q56 26 96 72.5t57 104.5q-28 -5 -52 -5q-65 0 -131.5 31t-105.5 81
q-45 54 -65 129q-37 -48 -37 -110q0 -11 5.5 -23t15.5 -29q6 -11 11 -21.5t5 -17.5q0 -10 -9 -13q-7 -3 -14 -3q-21 0 -27.5 29.5t-6.5 77.5q0 37 13.5 71.5t38.5 62.5q-7 36 -7 82q0 15 2 47q15 172 123 265q31 26 65 44q-102 -26 -205.5 -91.5t-175 -173.5t-71.5 -250
q0 -111 47.5 -199t129 -137.5t179.5 -49.5q63 0 119 26zM394 68q0 61 -30 112.5t-81.5 81.5t-112.5 30h-12q20 -160 77 -229q53 -67 125 -62q14 1 27 6q7 28 7 61z" />
    <glyph glyph-name="O.ss03" unicode="&#xe05b;" horiz-adv-x="655" 
d="M1953.5 -100.5q82.5 -45.5 127.5 -124t45 -173.5q0 -75 -37 -138t-100.5 -100t-138.5 -37q-60 0 -111 30t-81 81t-30 112q0 48 24.5 89t65.5 65.5t89 24.5q34 0 61.5 -16.5t27.5 -35.5q0 -6 -7 -15q-6 -6 -11 -6q-6 0 -13.5 7t-14.5 15q-12 15 -22 23t-21 8
q-43 0 -79.5 -21.5t-58 -58t-21.5 -79.5q0 -55 27 -101.5t73.5 -74t101.5 -27.5q70 0 128.5 34.5t93 93t34.5 127.5q0 90 -42.5 163.5t-120.5 116.5t-179 43t-196.5 -18.5t-176.5 -45t-202 -72.5q-131 -50 -225 -81t-209.5 -52t-243.5 -21q-188 0 -330.5 71t-219 193.5
t-76.5 271.5q0 147 45 259.5t129.5 183t199.5 91.5q36 10 76 10q66 0 127 -29.5t103 -80.5q75 -94 75 -234q0 -16 -2 -48q-15 -171 -121 -265q-86 -75 -187 -75q-65 0 -130.5 31t-105.5 81q-77 95 -77 234q0 16 2 48q15 172 123 265q16 14 40 30q-73 -32 -135.5 -98
t-102 -168t-39.5 -235q0 -144 73.5 -262t211 -186t321.5 -68q127 0 241 21t207 51.5t224 80.5q121 46 203.5 73t178.5 45.5t199 18.5q107 0 189.5 -45.5zM308 699q-35 0 -66.5 -19t-55.5 -63q-37 -69 -37 -195q0 -46 4 -87q17 -193 82 -272q49 -62 115 -62q33 0 65.5 19.5
t56.5 62.5q37 71 37 197q0 45 -4 85q-17 192 -82 272q-50 62 -115 62z" />
    <glyph glyph-name="O.ss04" unicode="&#xe05c;" horiz-adv-x="655" 
d="M2162.5 -161.5q182.5 -106.5 289 -289t106.5 -397.5q0 -173 -85.5 -318.5t-232 -231t-320.5 -85.5q-139 0 -256 69t-186 186t-69 256q0 111 55 205t149 149t205 55q29 0 55 -11t26 -25q0 -6 -4 -10q-7 -9 -14 -9q-9 0 -26 15q-22 20 -37 20q-106 0 -195 -52.5
t-141.5 -141.5t-52.5 -195q0 -134 66 -246.5t178.5 -178.5t246.5 -66q168 0 310 82.5t225 224t83 308.5q0 210 -104 387.5t-282 281.5t-388 104q-101 0 -196.5 -18.5t-176.5 -45t-202 -72.5q-131 -50 -225 -81t-209.5 -52t-243.5 -21q-188 0 -330.5 71t-219 193.5
t-76.5 271.5q0 147 45 259.5t129.5 183t199.5 91.5q36 10 76 10q66 0 127 -29.5t103 -80.5q75 -94 75 -234q0 -16 -2 -48q-15 -171 -121 -265q-86 -75 -187 -75q-65 0 -130.5 31t-105.5 81q-77 95 -77 234q0 16 2 48q15 172 123 265q16 14 40 30q-73 -32 -135.5 -98
t-102 -168t-39.5 -235q0 -144 73.5 -262t211 -186t321.5 -68q127 0 241 21t207 51.5t224 80.5q121 46 203.5 73t178.5 45.5t199 18.5q216 0 398.5 -106.5zM308 699q-35 0 -66.5 -19t-55.5 -63q-37 -69 -37 -195q0 -46 4 -87q17 -193 82 -272q49 -62 115 -62q33 0 65.5 19.5
t56.5 62.5q37 71 37 197q0 45 -4 85q-17 192 -82 272q-50 62 -115 62z" />
    <glyph glyph-name="O.ss05" unicode="&#xe05d;" horiz-adv-x="655" 
d="M1057.5 987q157.5 -106 247.5 -288.5t90 -400.5q0 -233 -103 -411t-279.5 -275t-391.5 -97q-222 0 -394.5 99t-267 251.5t-94.5 305.5q0 186 78 316.5t214 187.5q10 118 81 213.5t192.5 150t276.5 54.5q193 0 350.5 -106zM1002.5 -371q172.5 94 272.5 267.5t100 401.5
q0 213 -87.5 390.5t-240.5 281t-340 103.5q-148 0 -264.5 -50.5t-185 -139.5t-79.5 -200q36 14 83 22q34 10 75 10q66 0 126.5 -29.5t102.5 -80.5q75 -94 75 -234q0 -16 -2 -48q-3 -33 -9 -63q60 14 108 53t75 94.5t27 119.5q0 14 -7 26t-19 26q-16 18 -16 27q0 5 6 11
q8 7 17 7q17 0 28 -28.5t11 -68.5q0 -70 -30.5 -131t-84.5 -102.5t-120 -54.5q-31 -113 -107 -181q-86 -75 -187 -75q-65 0 -130.5 31t-105.5 81q-77 95 -77 234q0 16 2 48q15 172 123 265l14 12v7q-72 -36 -133 -102t-99.5 -164.5t-38.5 -223.5q0 -148 91.5 -296
t259.5 -244t385 -96q209 0 381.5 94zM308 699q-35 0 -66.5 -19t-55.5 -63l-8 -16q9 -87 54.5 -161t118 -122.5t158.5 -60.5q1 40 -4 108q-17 192 -82 272q-50 62 -115 62zM188 675l-11 -4v-2zM149 422q0 -46 4 -87q17 -193 82 -272q49 -62 115 -62q33 0 65.5 19.5t56.5 62.5
q30 57 36 154q-85 12 -157.5 56.5t-121 114t-65.5 152.5q-15 -57 -15 -138z" />
    <glyph glyph-name="Oacute" unicode="&#xd3;" horiz-adv-x="655" 
d="M530 58q-40 -35 -91 -54t-104 -19q-66 0 -127 29.5t-101 80.5q-77 95 -77 234q0 16 2 48q15 172 123 265q39 35 89.5 54t104.5 19q66 0 126.5 -29.5t102.5 -80.5q75 -94 75 -234q0 -16 -2 -48q-15 -171 -121 -265zM436 637q-50 62 -115 62q-35 0 -66.5 -19t-55.5 -63
q-37 -69 -37 -195q0 -46 4 -87q17 -193 82 -272q49 -62 115 -62q33 0 65.5 19.5t56.5 62.5q37 71 37 197q0 45 -4 85q-17 192 -82 272zM326 876h108l-120 -120h-36z" />
    <glyph glyph-name="Ocircumflex" unicode="&#xd4;" horiz-adv-x="655" 
d="M530 58q-40 -35 -91 -54t-104 -19q-66 0 -127 29.5t-101 80.5q-77 95 -77 234q0 16 2 48q15 172 123 265q39 35 89.5 54t104.5 19q66 0 126.5 -29.5t102.5 -80.5q75 -94 75 -234q0 -16 -2 -48q-15 -171 -121 -265zM436 637q-50 62 -115 62q-35 0 -66.5 -19t-55.5 -63
q-37 -69 -37 -195q0 -46 4 -87q17 -193 82 -272q49 -62 115 -62q33 0 65.5 19.5t56.5 62.5q37 71 37 197q0 45 -4 85q-17 192 -82 272zM212 755l-17 12l125 118l125 -118l-17 -12l-108 60z" />
    <glyph glyph-name="Odieresis" unicode="&#xd6;" horiz-adv-x="655" 
d="M530 58q-40 -35 -91 -54t-104 -19q-66 0 -127 29.5t-101 80.5q-77 95 -77 234q0 16 2 48q15 172 123 265q39 35 89.5 54t104.5 19q66 0 126.5 -29.5t102.5 -80.5q75 -94 75 -234q0 -16 -2 -48q-15 -171 -121 -265zM436 637q-50 62 -115 62q-35 0 -66.5 -19t-55.5 -63
q-37 -69 -37 -195q0 -46 4 -87q17 -193 82 -272q49 -62 115 -62q33 0 65.5 19.5t56.5 62.5q37 71 37 197q0 45 -4 85q-17 192 -82 272zM256.5 775.5q-15.5 -15.5 -34.5 -15.5t-34.5 15.5t-15.5 34.5t15.5 34.5t34.5 15.5t34.5 -15.5t15.5 -34.5t-15.5 -34.5zM421.5 775.5
q-15.5 -15.5 -34.5 -15.5t-34.5 15.5t-15.5 34.5t15.5 34.5t34.5 15.5t34.5 -15.5t15.5 -34.5t-15.5 -34.5z" />
    <glyph glyph-name="Ograve" unicode="&#xd2;" horiz-adv-x="655" 
d="M530 58q-40 -35 -91 -54t-104 -19q-66 0 -127 29.5t-101 80.5q-77 95 -77 234q0 16 2 48q15 172 123 265q39 35 89.5 54t104.5 19q66 0 126.5 -29.5t102.5 -80.5q75 -94 75 -234q0 -16 -2 -48q-15 -171 -121 -265zM436 637q-50 62 -115 62q-35 0 -66.5 -19t-55.5 -63
q-37 -69 -37 -195q0 -46 4 -87q17 -193 82 -272q49 -62 115 -62q33 0 65.5 19.5t56.5 62.5q37 71 37 197q0 45 -4 85q-17 192 -82 272zM358 760h-36l-120 120h108z" />
    <glyph glyph-name="Ohungarumlaut" unicode="&#x150;" horiz-adv-x="655" 
d="M530 58q-40 -35 -91 -54t-104 -19q-66 0 -127 29.5t-101 80.5q-77 95 -77 234q0 16 2 48q15 172 123 265q39 35 89.5 54t104.5 19q66 0 126.5 -29.5t102.5 -80.5q75 -94 75 -234q0 -16 -2 -48q-15 -171 -121 -265zM436 637q-50 62 -115 62q-35 0 -66.5 -19t-55.5 -63
q-37 -69 -37 -195q0 -46 4 -87q17 -193 82 -272q49 -62 115 -62q33 0 65.5 19.5t56.5 62.5q37 71 37 197q0 45 -4 85q-17 192 -82 272zM265 880h80l-90 -120h-30zM375 880h80l-90 -120h-30z" />
    <glyph glyph-name="Omacron" unicode="&#x14c;" horiz-adv-x="655" 
d="M530 58q-40 -35 -91 -54t-104 -19q-66 0 -127 29.5t-101 80.5q-77 95 -77 234q0 16 2 48q15 172 123 265q39 35 89.5 54t104.5 19q66 0 126.5 -29.5t102.5 -80.5q75 -94 75 -234q0 -16 -2 -48q-15 -171 -121 -265zM436 637q-50 62 -115 62q-35 0 -66.5 -19t-55.5 -63
q-37 -69 -37 -195q0 -46 4 -87q17 -193 82 -272q49 -62 115 -62q33 0 65.5 19.5t56.5 62.5q37 71 37 197q0 45 -4 85q-17 192 -82 272zM420 815v-35h-230v35h230z" />
    <glyph glyph-name="Oslash" unicode="&#xd8;" horiz-adv-x="655" 
d="M639 371q0 -16 -2 -48q-15 -171 -121 -265q-40 -35 -91 -54t-104 -19q-57 0 -111 22.5t-95 62.5l-30 -42l-28 22l34 47q-75 93 -75 231q0 15 2 49q15 172 123 265q39 35 89.5 54t104.5 19q91 0 168 -54l22 31l28 -22l-22 -31q15 -13 33 -34q75 -95 75 -234zM148 422
q0 -46 4 -87q5 -65 19 -127l280 383q-17 31 -29 46q-50 62 -115 62q-35 0 -66.5 -19t-55.5 -63q-37 -69 -37 -195zM508 280q0 45 -4 85q-11 114 -37 187l-284 -388q20 -63 51 -101q49 -62 115 -62q33 0 65.5 19.5t56.5 62.5q37 71 37 197z" />
    <glyph glyph-name="Otilde" unicode="&#xd5;" horiz-adv-x="655" 
d="M530 58q-40 -35 -91 -54t-104 -19q-66 0 -127 29.5t-101 80.5q-77 95 -77 234q0 16 2 48q15 172 123 265q39 35 89.5 54t104.5 19q66 0 126.5 -29.5t102.5 -80.5q75 -94 75 -234q0 -16 -2 -48q-15 -171 -121 -265zM436 637q-50 62 -115 62q-35 0 -66.5 -19t-55.5 -63
q-37 -69 -37 -195q0 -46 4 -87q17 -193 82 -272q49 -62 115 -62q33 0 65.5 19.5t56.5 62.5q37 71 37 197q0 45 -4 85q-17 192 -82 272zM420 870q0 -50 -22 -75t-56 -25q-16 0 -29 7t-30 21q-18 15 -27.5 21t-21.5 6q-19 0 -30.5 -11.5t-11.5 -33.5h-18q0 50 22 75t56 25
q16 0 30.5 -7t29.5 -20q4 -3 13.5 -11.5t18 -12.5t16.5 -4q19 0 30.5 11.5t11.5 33.5h18z" />
    <glyph glyph-name="OE" unicode="&#x152;" horiz-adv-x="918" 
d="M853.5 669.5q-13.5 -21.5 -13.5 -43.5q0 -24 12 -41.5t31 -17.5q-3 -21 -26.5 -34.5t-57.5 -13.5q-35 0 -54 21.5t-19 52.5q0 15 6.5 30.5t7.5 18.5q9 18 9 26q0 6 -4.5 9t-16.5 3h-171v-300h20q43 0 70 19t56 61l7 10h12v-200h-12l-7 10q-29 42 -56 61t-70 19h-20v-340
h171q12 0 16.5 3t4.5 9q0 8 -9 26q-1 3 -7.5 18.5t-6.5 30.5q0 31 19 52.5t54 21.5q34 0 57.5 -13.5t26.5 -34.5q-19 0 -31 -17.5t-12 -41.5q0 -22 13.5 -43.5t36.5 -21.5v-9h-452q-81 -1 -149 22.5t-119 69.5q-50 46 -77 111t-27 147q0 81 27 146t77 111q51 46 119 70
t149 23h452v-9q-23 0 -36.5 -21.5zM438 680q-55 1 -103 -18t-81 -59q-74 -87 -74 -253q0 -169 74 -253q34 -39 82 -58.5t102 -18.5v660z" />
    <glyph glyph-name="P" unicode="P" 
d="M222 250v-182q0 -20 12 -34t31 -18l35 -7v-9h-276v9l35 7q19 4 31 18t12 34v564q0 20 -12 34t-31 18l-35 7v9h239q79 0 144 -17t108 -47q91 -64 91 -161t-91 -161q-43 -30 -108 -47t-144 -17h-41zM222 270h41q105 0 157 51t52 154t-52 154t-157 51h-41v-410z" />
    <glyph glyph-name="P.ss01" unicode="&#xe05e;" 
d="M606 475q0 -97 -91 -161q-43 -30 -108 -47t-144 -17h-41v-182q0 -20 12 -34t31 -18l35 -7v-9h-276v9l35 7q19 4 31 18t12 34v186q-93 14 -175 68t-131 136t-49 176q0 96 47.5 178t129 130t177.5 48q77 0 142.5 -38t103.5 -103.5t38 -143.5q0 -11 -1 -17q80 -17 131 -52
q91 -64 91 -161zM-186.5 468q46.5 -77 123.5 -128t165 -65v209q-58 17 -95 66.5t-37 111.5q0 41 20 75.5t54.5 54.5t75.5 20q28 0 51 -10.5t23 -24.5q0 -7 -7 -14q-4 -4 -9 -4q-6 0 -21 13q-11 10 -19 15t-18 5q-35 0 -65 -17.5t-47.5 -47.5t-17.5 -65q0 -54 31.5 -97
t80.5 -60v127q0 20 -12 34t-31 18l-35 7v9h239q51 0 102 -8v13q0 72 -35.5 133t-96 96.5t-132.5 35.5q-91 0 -167.5 -45.5t-121.5 -122.5t-45 -168q0 -89 46.5 -166zM263 680h-41v-173q53 17 91 60t48 98q-40 15 -98 15zM420 321q52 51 52 154q0 137 -92 182
q-13 -61 -55.5 -107t-102.5 -64v-216h41q105 0 157 51z" />
    <glyph glyph-name="P.ss02" unicode="&#xe05f;" 
d="M606 475q0 -97 -91 -161q-43 -30 -108 -47t-144 -17h-41v-116q71 -21 117 -81.5t46 -137.5q0 -78 -38 -143.5t-103.5 -103.5t-142.5 -38q-96 0 -172.5 39.5t-119 109.5t-42.5 157q0 91 42.5 162.5t118 115t174.5 53.5v365q0 20 -12 34t-31 18l-35 7v9h239q79 0 144 -17
t108 -47q91 -64 91 -161zM420 321q52 51 52 154t-52 154t-157 51h-41v-410h41q105 0 157 51zM325 38q-40 54 -103 75v-45q0 -20 12 -34t31 -18l35 -7v-9h-276v9l35 7q19 4 31 18t12 34v47q-49 -17 -80.5 -60t-31.5 -97q0 -35 17.5 -65t47.5 -47.5t65 -17.5q10 0 18 5t19 15
q15 13 21 13q5 0 9 -4q7 -7 7 -14q0 -14 -23 -24.5t-51 -10.5q-41 0 -75.5 20t-54.5 54.5t-20 75.5q0 62 37 111.5t95 66.5v111q-93 -10 -164 -50.5t-111 -107.5t-40 -153q0 -82 40 -147t111.5 -102t162.5 -37q72 0 132.5 35.5t96 96.5t35.5 133q0 69 -40 123z" />
    <glyph glyph-name="P.ss03" unicode="&#xe060;" 
d="M1540.5 223q63.5 -37 100.5 -100t37 -138q0 -95 -45 -173.5t-127.5 -124t-189.5 -45.5q-157 0 -321 55.5t-301.5 129.5t-324.5 188q-91 56 -147 89v-36q0 -20 12 -34t31 -18l35 -7v-9h-276q-58 0 -98 32.5t-40 85.5q0 45 30.5 69.5t89.5 24.5q37 0 96 -24v444
q0 20 -12 34t-31 18l-35 7v9h239q79 0 144 -17t108 -47q91 -64 91 -161t-91 -161q-43 -30 -108 -47t-144 -17h-41v-122q70 -40 166 -99q183 -112 320 -185.5t297 -127.5t311 -54q101 0 179 43t120.5 116.5t42.5 163.5q0 69 -34.5 127.5t-93 93t-128.5 34.5
q-55 0 -101.5 -27.5t-73.5 -74t-27 -101.5q0 -43 21.5 -79.5t58 -58t79.5 -21.5q11 0 21 8t22 23q7 8 14.5 15t13.5 7q5 0 11 -6q7 -9 7 -15q0 -19 -27.5 -35.5t-61.5 -16.5q-48 0 -89 24.5t-65.5 65.5t-24.5 89q0 61 30 112t81 81t111 30q75 0 138.5 -37zM222 270h41
q105 0 157 51t52 154t-52 154t-157 51h-41v-410zM102 166q-58 26 -96 26q-39 0 -69.5 -16t-30.5 -58q0 -41 32 -71.5t86 -30.5h35q19 0 31 16t12 36v98z" />
    <glyph glyph-name="P.ss04" unicode="&#xe061;" 
d="M606 475q0 -97 -91 -161q-43 -30 -108 -47t-144 -17h-41v-182q0 -20 12 -34t31 -18l35 -7v-9h-276v9l35 7q19 4 31 18t12 34v190q-54 -46 -125 -46q-64 0 -118.5 32t-86.5 86.5t-32 118.5q0 70 37 127.5t102 90.5t145 33h239q79 0 144 -17t108 -47q91 -64 91 -161z
M45.5 246.5q32.5 14.5 56.5 39.5v220q-40 33 -89 33q-44 0 -75 -31t-31 -75q0 -12 7.5 -20.5t21.5 -19.5q18 -14 18 -21q0 -6 -7 -12q-7 -5 -12 -5q-17 0 -32.5 27t-15.5 51q0 34 17 63t46 46t63 17q50 0 89 -28v101q0 20 -12 36t-31 16h-35q-75 0 -135 -31t-94.5 -85
t-34.5 -119q0 -59 29 -109t79 -79t109 -29q36 0 68.5 14.5zM420 321q52 51 52 154t-52 154t-157 51h-41v-410h41q105 0 157 51z" />
    <glyph glyph-name="P.ss05" unicode="&#xe062;" 
d="M1792.5 984.5q146.5 -85.5 232 -231t85.5 -318.5q0 -215 -106.5 -397.5t-289 -289t-398.5 -106.5q-157 0 -321 55.5t-301.5 129.5t-324.5 188q-91 56 -147 89v-36q0 -20 12 -34t31 -18l35 -7v-9h-276q-58 0 -98 32.5t-40 85.5q0 45 30.5 69.5t89.5 24.5q37 0 96 -24v444
q0 20 -12 34t-31 18l-35 7v9h239q79 0 144 -17t108 -47q91 -64 91 -161t-91 -161q-43 -30 -108 -47t-144 -17h-41v-122q70 -40 166 -99q183 -112 320 -185.5t297 -127.5t311 -54q210 0 388 104t282 281.5t104 387.5q0 167 -83 308.5t-225 224t-310 82.5q-134 0 -246.5 -66
t-178.5 -178.5t-66 -246.5q0 -106 52.5 -195t141.5 -141.5t195 -52.5q15 0 37 20q17 15 26 15q7 0 14 -9q4 -4 4 -10q0 -14 -26 -25t-55 -11q-111 0 -205 55t-149 149t-55 205q0 139 69 256t186 186t256 69q174 0 320.5 -85.5zM222 270h41q105 0 157 51t52 154t-52 154
t-157 51h-41v-410zM102 166q-58 26 -96 26q-39 0 -69.5 -16t-30.5 -58q0 -41 32 -71.5t86 -30.5h35q19 0 31 16t12 36v98z" />
    <glyph glyph-name="Thorn" unicode="&#xde;" horiz-adv-x="689" 
d="M264 640q103 0 190.5 -31t140.5 -94.5t53 -154.5q0 -92 -53.5 -155t-141 -94t-189.5 -31h-36v-12q0 -19 11.5 -33.5t30.5 -18.5l30 -6v-10h-246v10l30 6q19 4 30.5 18.5t11.5 33.5v564q0 19 -11.5 33.5t-30.5 18.5l-30 6v10h246v-10l-30 -6q-19 -4 -30.5 -16t-11.5 -28
h36zM228 100h36q132 0 201 62t69 198t-69 198t-201 62h-36v-520z" />
    <glyph glyph-name="Q" unicode="Q" horiz-adv-x="668" 
d="M626.5 -56.5q10.5 -15.5 10.5 -32.5q0 -19 -9 -32q-15 -25 -48.5 -39t-74.5 -14q-45 0 -87.5 17t-70.5 51l-19 25q-19 26 -33 37.5t-39 11.5q-13 0 -28.5 -5.5t-26.5 -14.5l-19 10q26 24 79 39q-44 12 -83 38.5t-69 63.5q-79 100 -79 251q0 173 99 275q41 42 96.5 66
t115.5 24q59 0 115 -24t98 -66q97 -105 97 -275q0 -156 -85 -261q-37 -42 -85.5 -69t-102.5 -34q25 -13 40.5 -31.5t31.5 -45.5q15 -26 27 -38.5t31 -12.5q20 0 32 15t12 35q0 14 -6 26t-17 19q4 10 16 15.5t26 5.5t24 -5q21 -10 31.5 -25.5zM247 63q49 -62 115 -62
q33 0 65.5 19.5t56.5 62.5q37 71 37 197q0 45 -4 85q-17 192 -82 272q-50 62 -115 62q-35 0 -66.5 -19t-55.5 -63q-37 -69 -37 -195q0 -46 4 -87q17 -193 82 -272z" />
    <glyph glyph-name="Q.ss01" unicode="&#xe063;" horiz-adv-x="655" 
d="M1688.5 150q63.5 -37 100.5 -100t37 -138q0 -95 -45 -173.5t-127.5 -124t-189.5 -45.5q-174 0 -321.5 40t-254.5 94.5t-242 137.5q-82 50 -130 77t-97.5 44.5t-96.5 17.5q-72 0 -106 -32l-15 14q24 22 60 31q-48 11 -90.5 38.5t-74.5 67.5q-79 100 -79 251q0 173 99 275
q41 42 96.5 66t115.5 24q59 0 115 -24t98 -66q97 -105 97 -275q0 -156 -85 -261q-29 -34 -67 -58t-80 -36q80 -10 155 -37.5t138.5 -62.5t156.5 -91q117 -71 199 -113.5t186 -72t223 -29.5q101 0 179 43t120.5 116.5t42.5 163.5q0 69 -34.5 127.5t-93 93t-128.5 34.5
q-55 0 -101.5 -27.5t-73.5 -74t-27 -101.5q0 -43 21.5 -79.5t58 -58t79.5 -21.5q11 0 21 8t22 23q7 8 14.5 15t13.5 7q5 0 11 -6q7 -9 7 -15q0 -19 -27.5 -35.5t-61.5 -16.5q-48 0 -89 24.5t-65.5 65.5t-24.5 89q0 61 30 112t81 81t111 30q75 0 138.5 -37zM349 1
q33 0 65.5 19.5t56.5 62.5q37 71 37 197q0 45 -4 85q-17 192 -82 272q-50 62 -115 62q-35 0 -66.5 -19t-55.5 -63q-37 -69 -37 -195q0 -46 4 -87q17 -193 82 -272q49 -62 115 -62z" />
    <glyph glyph-name="Q.ss02" unicode="&#xe064;" horiz-adv-x="655" 
d="M1834.5 912q141.5 -85 222.5 -230.5t81 -319.5q0 -215 -106.5 -397.5t-289 -289t-398.5 -106.5q-174 0 -309.5 40t-226.5 94t-203 138q-66 50 -106.5 77t-85 44.5t-91.5 17.5q-72 0 -106 -32l-15 14q24 22 60 31q-48 11 -90.5 38.5t-74.5 67.5q-79 100 -79 251
q0 173 99 275q41 42 96.5 66t115.5 24q59 0 115 -24t98 -66q97 -105 97 -275q0 -156 -85 -261q-29 -34 -67 -58t-80 -36q77 -10 143.5 -37.5t120 -62t129.5 -91.5q96 -71 165.5 -113.5t165 -72t214.5 -29.5q210 0 388 104t282 281.5t104 387.5q0 168 -78.5 309t-215 223.5
t-304.5 82.5q-134 0 -252 -66t-188.5 -179t-70.5 -246q0 -106 52.5 -195t141.5 -141.5t195 -52.5q15 0 37 20q17 15 26 15q7 0 14 -9q4 -4 4 -10q0 -14 -26 -25t-55 -11q-111 0 -205 55t-149 149t-55 205q0 138 73.5 255.5t196 186.5t261.5 69q173 0 314.5 -85zM349 1
q33 0 65.5 19.5t56.5 62.5q37 71 37 197q0 45 -4 85q-17 192 -82 272q-50 62 -115 62q-35 0 -66.5 -19t-55.5 -63q-37 -69 -37 -195q0 -46 4 -87q17 -193 82 -272q49 -62 115 -62z" />
    <glyph glyph-name="Q.ss03" unicode="&#xe065;" horiz-adv-x="655" 
d="M2764.5 -167q89.5 -46 142 -124.5t52.5 -172.5q0 -75 -37 -138t-100.5 -100t-138.5 -37q-60 0 -111 30t-81 81t-30 112q0 48 24.5 89t65.5 65.5t89 24.5q34 0 61.5 -16.5t27.5 -35.5q0 -6 -7 -15q-6 -6 -11 -6q-6 0 -13.5 7t-14.5 15q-12 15 -22 23t-21 8
q-43 0 -79.5 -21.5t-58 -58t-21.5 -79.5q0 -55 27 -101.5t73.5 -74t101.5 -27.5q70 0 128.5 34.5t93 93t34.5 127.5q0 88 -49.5 162t-135 117.5t-187.5 43.5q-101 0 -188 -14t-156.5 -34.5t-169.5 -55.5q-110 -38 -189.5 -61t-185.5 -39t-234 -16q-174 0 -319.5 33
t-249.5 78.5t-236 114.5q-116 61 -183.5 88t-133.5 27q-72 0 -106 -32l-15 14q24 22 60 31q-48 11 -90.5 38.5t-74.5 67.5q-79 100 -79 251q0 173 99 275q41 42 96.5 66t115.5 24q59 0 115 -24t98 -66q97 -105 97 -275q0 -156 -85 -261q-60 -68 -144 -94q79 -8 152 -31
t135 -51.5t151 -75.5q111 -58 192 -93.5t183.5 -60t221.5 -24.5q127 0 231.5 16t184 39t188.5 61q100 35 170 55.5t158 34.5t191 14q108 0 197.5 -46zM349 1q33 0 65.5 19.5t56.5 62.5q37 71 37 197q0 45 -4 85q-17 192 -82 272q-50 62 -115 62q-35 0 -66.5 -19t-55.5 -63
q-37 -69 -37 -195q0 -46 4 -87q17 -193 82 -272q49 -62 115 -62z" />
    <glyph glyph-name="Q.ss04" unicode="&#xe066;" horiz-adv-x="655" 
d="M2965.5 -227.5q182.5 -106.5 289 -289t106.5 -397.5q0 -174 -81 -319.5t-222.5 -230.5t-314.5 -85q-139 0 -261.5 69t-196 186.5t-73.5 255.5q0 111 55 205t149 149t205 55q29 0 55 -11t26 -25q0 -6 -4 -10q-7 -9 -14 -9q-9 0 -26 15q-22 20 -37 20q-106 0 -195 -52.5
t-141.5 -141.5t-52.5 -195q0 -133 70.5 -246t188.5 -179t252 -66q168 0 304.5 82.5t215 223.5t78.5 309q0 210 -104 387.5t-282 281.5t-388 104q-101 0 -188 -14t-156.5 -34.5t-169.5 -55.5q-110 -38 -189.5 -61t-185.5 -39t-234 -16q-174 0 -319.5 33t-249.5 78.5
t-236 114.5q-116 61 -183.5 88t-133.5 27q-72 0 -106 -32l-15 14q24 22 60 31q-48 11 -90.5 38.5t-74.5 67.5q-79 100 -79 251q0 173 99 275q41 42 96.5 66t115.5 24q59 0 115 -24t98 -66q97 -105 97 -275q0 -156 -85 -261q-60 -68 -144 -94q79 -8 152 -31t135 -51.5
t151 -75.5q111 -58 192 -93.5t183.5 -60t221.5 -24.5q127 0 231.5 16t184 39t188.5 61q100 35 170 55.5t158 34.5t191 14q216 0 398.5 -106.5zM349 1q33 0 65.5 19.5t56.5 62.5q37 71 37 197q0 45 -4 85q-17 192 -82 272q-50 62 -115 62q-35 0 -66.5 -19t-55.5 -63
q-37 -69 -37 -195q0 -46 4 -87q17 -193 82 -272q49 -62 115 -62z" />
    <glyph glyph-name="Q.ss05" unicode="&#xe067;" horiz-adv-x="655" 
d="M2552 -15q0 -20 -22 -48.5t-56 -54.5q-155 -98 -272 -149t-238.5 -72.5t-289.5 -21.5q-174 0 -342 33t-303 78.5t-312 114.5q-158 61 -243.5 88t-151.5 27q-72 0 -106 -32l-15 14q24 22 60 31q-48 11 -90.5 38.5t-74.5 67.5q-79 100 -79 251q0 173 99 275q41 42 96.5 66
t115.5 24q59 0 115 -24t98 -66q97 -105 97 -275q0 -156 -85 -261q-29 -33 -66 -57t-78 -36q123 -12 246 -50.5t301 -108.5q157 -60 259 -94.5t221 -59t238 -24.5q167 0 284 20t231 69.5t271 147.5q20 15 28.5 34.5t13.5 46.5q4 21 8.5 29.5t17.5 5.5q24 -6 24 -27zM349 1
q33 0 65.5 19.5t56.5 62.5q37 71 37 197q0 45 -4 85q-17 192 -82 272q-50 62 -115 62q-35 0 -66.5 -19t-55.5 -63q-37 -69 -37 -195q0 -46 4 -87q17 -193 82 -272q49 -62 115 -62z" />
    <glyph glyph-name="R" unicode="R" horiz-adv-x="655" 
d="M269 700q81 0 144 -14t105 -38q81 -49 81 -123q0 -50 -40 -91q-24 -25 -90 -50q-55 -19 -128 -24q68 -6 111 -16.5t75 -38t40 -80.5l26 -175q5 -35 27 -35q16 0 35 25l21 -10q-12 -21 -41 -33t-60 -12q-47 0 -77.5 29.5t-38.5 83.5l-19 127q-12 73 -51 99t-120 26h-47
v-282q0 -20 12 -34t31 -18l35 -7v-9h-276v9l35 7q19 4 31 18t12 34v564q0 20 -12 34t-31 18l-35 7v9h245zM415.5 640.5q-50.5 39.5 -146.5 39.5h-47v-310h47q96 0 146.5 39.5t50.5 115.5t-50.5 115.5z" />
    <glyph glyph-name="R.ss01" unicode="&#xe068;" horiz-adv-x="655" 
d="M676 30q-12 -21 -41 -33t-60 -12q-47 0 -77.5 29.5t-38.5 83.5l-19 127q-12 73 -51 99t-120 26h-47v-282q0 -20 12 -34t31 -18l35 -7v-9h-276v9l35 7q19 4 31 18t12 34v286q-93 14 -175 68t-131 136t-49 176q0 96 47.5 178t129 130t177.5 48q77 0 142.5 -38t103.5 -103.5
t38 -143.5q0 -59 -28 -110q100 -12 161 -47q81 -49 81 -123q0 -50 -40 -91q-24 -25 -90 -50q-55 -19 -128 -24q68 -6 111 -16.5t75 -38t40 -80.5l26 -175q5 -35 27 -35q16 0 35 25zM-186.5 568q46.5 -77 123.5 -128t165 -65v209q-58 17 -95 66.5t-37 111.5q0 41 20 75.5
t54.5 54.5t75.5 20q28 0 51 -10.5t23 -24.5q0 -7 -7 -14q-4 -4 -9 -4q-6 0 -21 13q-11 10 -19 15t-18 5q-35 0 -65 -17.5t-47.5 -47.5t-17.5 -65q0 -54 31.5 -97t80.5 -60v27q0 20 -12 34t-31 18l-35 7v9h245q35 0 66 -3q30 51 30 108q0 72 -35.5 133t-96 96.5t-132.5 35.5
q-91 0 -167.5 -45.5t-121.5 -122.5t-45 -168q0 -89 46.5 -166zM269 680h-47v-73q59 19 99 70q-24 3 -52 3zM269 370q96 0 146.5 39.5t50.5 115.5q0 59 -31.5 96.5t-91.5 51.5q-22 -31 -53 -53.5t-68 -33.5v-216h47z" />
    <glyph glyph-name="R.ss02" unicode="&#xe069;" horiz-adv-x="655" 
d="M676 30q-12 -21 -41 -33t-60 -12q-47 0 -77.5 29.5t-38.5 83.5l-19 127q-12 73 -51 99t-120 26h-47v-116q71 -21 117 -81.5t46 -137.5q0 -78 -38 -143.5t-103.5 -103.5t-142.5 -38q-96 0 -172.5 39.5t-119 109.5t-42.5 157q0 91 42.5 162.5t118 115t174.5 53.5v265
q0 20 -12 34t-31 18l-35 7v9h245q81 0 144 -14t105 -38q81 -49 81 -123q0 -50 -40 -91q-24 -25 -90 -50q-55 -19 -128 -24q68 -6 111 -16.5t75 -38t40 -80.5l26 -175q5 -35 27 -35q16 0 35 25zM269 370q96 0 146.5 39.5t50.5 115.5t-50.5 115.5t-146.5 39.5h-47v-310h47z
M325 138q-40 54 -103 75v-145q0 -20 12 -34t31 -18l35 -7v-9h-276v9l35 7q19 4 31 18t12 34v147q-49 -17 -80.5 -60t-31.5 -97q0 -35 17.5 -65t47.5 -47.5t65 -17.5q10 0 18 5t19 15q15 13 21 13q5 0 9 -4q7 -7 7 -14q0 -14 -23 -24.5t-51 -10.5q-41 0 -75.5 20t-54.5 54.5
t-20 75.5q0 62 37 111.5t95 66.5v111q-93 -10 -164 -50.5t-111 -107.5t-40 -153q0 -82 40 -147t111.5 -102t162.5 -37q72 0 132.5 35.5t96 96.5t35.5 133q0 69 -40 123z" />
    <glyph glyph-name="R.ss03" unicode="&#xe06a;" horiz-adv-x="655" 
d="M676 30q-12 -21 -41 -33t-60 -12q-47 0 -77.5 29.5t-38.5 83.5l-19 127q-12 73 -51 99t-120 26h-47v-282q0 -20 12 -34t31 -18l35 -7v-9h-276v9l35 7q19 4 31 18t12 34v167q-44 -23 -92 -23q-64 0 -118.5 32t-86.5 86.5t-32 118.5q0 70 37 127.5t102 90.5t145 33h212
q81 0 144 -14t105 -38q81 -49 81 -123q0 -50 -40 -91q-24 -25 -90 -50q-55 -19 -128 -24q68 -6 111 -16.5t75 -38t40 -80.5l26 -175q5 -35 27 -35q16 0 35 25zM102 259v268q-25 12 -56 12q-44 0 -75 -31t-31 -75q0 -12 7.5 -20.5t21.5 -19.5q18 -14 18 -21q0 -6 -7 -12
q-7 -5 -12 -5q-17 0 -32.5 27t-15.5 51q0 34 17 63t46 46t63 17q28 0 56 -10v83q0 21 -12 36.5t-33 15.5q-75 0 -135 -31t-94.5 -85t-34.5 -119q0 -59 29 -109t79 -79t109 -29q49 0 92 27zM269 370q96 0 146.5 39.5t50.5 115.5t-50.5 115.5t-146.5 39.5h-47v-310h47z" />
    <glyph glyph-name="R.ss04" unicode="&#xe06b;" horiz-adv-x="655" 
d="M1503.5 123q63.5 -37 100.5 -100t37 -138q0 -95 -45 -173.5t-127.5 -124t-189.5 -45.5q-196 0 -370.5 72.5t-294.5 203t-158 298.5q-28 122 -69.5 178t-117.5 56h-47v-282q0 -20 12 -34t31 -18l35 -7v-9h-276v9l35 7q19 4 31 18t12 34v564q0 20 -12 34t-31 18l-35 7v9
h245q81 0 144 -14t105 -38q81 -49 81 -123q0 -50 -40 -91q-24 -25 -90 -50q-55 -19 -128 -24q78 -7 121 -34.5t66 -76.5t43 -138q26 -118 107.5 -243.5t232.5 -215.5t368 -90q101 0 179 43t120.5 116.5t42.5 163.5q0 69 -34.5 127.5t-93 93t-128.5 34.5q-55 0 -101.5 -27.5
t-73.5 -74t-27 -101.5q0 -43 21.5 -79.5t58 -58t79.5 -21.5q11 0 21 8t22 23q7 8 14.5 15t13.5 7q5 0 11 -6q7 -9 7 -15q0 -19 -27.5 -35.5t-61.5 -16.5q-48 0 -89 24.5t-65.5 65.5t-24.5 89q0 61 30 112t81 81t111 30q75 0 138.5 -37zM269 370q96 0 146.5 39.5t50.5 115.5
t-50.5 115.5t-146.5 39.5h-47v-310h47z" />
    <glyph glyph-name="R.ss05" unicode="&#xe06c;" horiz-adv-x="655" 
d="M1503.5 123q63.5 -37 100.5 -100t37 -138q0 -95 -45 -173.5t-127.5 -124t-189.5 -45.5q-196 0 -370.5 72.5t-294.5 203t-158 298.5q-28 122 -69.5 178t-117.5 56h-47v-282q0 -20 12 -34t31 -18l35 -7v-9h-276v9l35 7q19 4 31 18t12 34v286q-93 14 -175 68t-131 136
t-49 176q0 96 47.5 178t129 130t177.5 48q77 0 142.5 -38t103.5 -103.5t38 -143.5q0 -59 -28 -110q100 -12 161 -47q81 -49 81 -123q0 -50 -40 -91q-24 -25 -90 -50q-55 -19 -128 -24q78 -7 121 -34.5t66 -76.5t43 -138q26 -118 107.5 -243.5t232.5 -215.5t368 -90
q101 0 179 43t120.5 116.5t42.5 163.5q0 69 -34.5 127.5t-93 93t-128.5 34.5q-55 0 -101.5 -27.5t-73.5 -74t-27 -101.5q0 -43 21.5 -79.5t58 -58t79.5 -21.5q11 0 21 8t22 23q7 8 14.5 15t13.5 7q5 0 11 -6q7 -9 7 -15q0 -19 -27.5 -35.5t-61.5 -16.5q-48 0 -89 24.5
t-65.5 65.5t-24.5 89q0 61 30 112t81 81t111 30q75 0 138.5 -37zM-186.5 568q46.5 -77 123.5 -128t165 -65v209q-58 17 -95 66.5t-37 111.5q0 41 20 75.5t54.5 54.5t75.5 20q28 0 51 -10.5t23 -24.5q0 -7 -7 -14q-4 -4 -9 -4q-6 0 -21 13q-11 10 -19 15t-18 5
q-35 0 -65 -17.5t-47.5 -47.5t-17.5 -65q0 -54 31.5 -97t80.5 -60v27q0 20 -12 34t-31 18l-35 7v9h245q35 0 66 -3q30 51 30 108q0 72 -35.5 133t-96 96.5t-132.5 35.5q-91 0 -167.5 -45.5t-121.5 -122.5t-45 -168q0 -89 46.5 -166zM269 680h-47v-73q59 19 99 70
q-24 3 -52 3zM269 370q96 0 146.5 39.5t50.5 115.5q0 59 -31.5 96.5t-91.5 51.5q-22 -31 -53 -53.5t-68 -33.5v-216h47z" />
    <glyph glyph-name="R.ss06" unicode="&#xe06d;" horiz-adv-x="655" 
d="M1503.5 123q63.5 -37 100.5 -100t37 -138q0 -95 -45 -173.5t-127.5 -124t-189.5 -45.5q-196 0 -370.5 72.5t-294.5 203t-158 298.5q-28 122 -69.5 178t-117.5 56h-47v-282q0 -20 12 -34t31 -18l35 -7v-9h-276v9l35 7q19 4 31 18t12 34v167q-44 -23 -92 -23
q-64 0 -118.5 32t-86.5 86.5t-32 118.5q0 70 37 127.5t102 90.5t145 33h212q81 0 144 -14t105 -38q81 -49 81 -123q0 -50 -40 -91q-24 -25 -90 -50q-55 -19 -128 -24q78 -7 121 -34.5t66 -76.5t43 -138q26 -118 107.5 -243.5t232.5 -215.5t368 -90q101 0 179 43t120.5 116.5
t42.5 163.5q0 69 -34.5 127.5t-93 93t-128.5 34.5q-55 0 -101.5 -27.5t-73.5 -74t-27 -101.5q0 -43 21.5 -79.5t58 -58t79.5 -21.5q11 0 21 8t22 23q7 8 14.5 15t13.5 7q5 0 11 -6q7 -9 7 -15q0 -19 -27.5 -35.5t-61.5 -16.5q-48 0 -89 24.5t-65.5 65.5t-24.5 89
q0 61 30 112t81 81t111 30q75 0 138.5 -37zM102 259v268q-25 12 -56 12q-44 0 -75 -31t-31 -75q0 -12 7.5 -20.5t21.5 -19.5q18 -14 18 -21q0 -6 -7 -12q-7 -5 -12 -5q-17 0 -32.5 27t-15.5 51q0 34 17 63t46 46t63 17q28 0 56 -10v83q0 21 -12 36.5t-33 15.5
q-75 0 -135 -31t-94.5 -85t-34.5 -119q0 -59 29 -109t79 -79t109 -29q49 0 92 27zM269 370q96 0 146.5 39.5t50.5 115.5t-50.5 115.5t-146.5 39.5h-47v-310h47z" />
    <glyph glyph-name="R.ss07" unicode="&#xe06e;" horiz-adv-x="655" 
d="M1769.5 885q141.5 -85 222.5 -230.5t81 -319.5q0 -215 -106.5 -397.5t-289 -289t-398.5 -106.5q-196 0 -370.5 72.5t-294.5 203t-158 298.5q-28 122 -69.5 178t-117.5 56h-47v-282q0 -20 12 -34t31 -18l35 -7v-9h-276v9l35 7q19 4 31 18t12 34v564q0 20 -12 34t-31 18
l-35 7v9h245q81 0 144 -14t105 -38q81 -49 81 -123q0 -50 -40 -91q-24 -25 -90 -50q-55 -19 -128 -24q78 -7 121 -34.5t66 -76.5t43 -138q26 -118 107.5 -243.5t232.5 -215.5t368 -90q210 0 388 104t282 281.5t104 387.5q0 168 -78.5 309t-215 223.5t-304.5 82.5
q-134 0 -252 -66t-188.5 -179t-70.5 -246q0 -106 52.5 -195t141.5 -141.5t195 -52.5q15 0 37 20q17 15 26 15q7 0 14 -9q4 -4 4 -10q0 -14 -26 -25t-55 -11q-111 0 -205 55t-149 149t-55 205q0 138 73.5 255.5t196 186.5t261.5 69q173 0 314.5 -85zM269 370q96 0 146.5 39.5
t50.5 115.5t-50.5 115.5t-146.5 39.5h-47v-310h47z" />
    <glyph glyph-name="R.ss08" unicode="&#xe06f;" horiz-adv-x="655" 
d="M1769.5 885q141.5 -85 222.5 -230.5t81 -319.5q0 -215 -106.5 -397.5t-289 -289t-398.5 -106.5q-196 0 -370.5 72.5t-294.5 203t-158 298.5q-28 122 -69.5 178t-117.5 56h-47v-282q0 -20 12 -34t31 -18l35 -7v-9h-276v9l35 7q19 4 31 18t12 34v286q-93 14 -175 68
t-131 136t-49 176q0 96 47.5 178t129 130t177.5 48q77 0 142.5 -38t103.5 -103.5t38 -143.5q0 -59 -28 -110q100 -12 161 -47q81 -49 81 -123q0 -50 -40 -91q-24 -25 -90 -50q-55 -19 -128 -24q78 -7 121 -34.5t66 -76.5t43 -138q26 -118 107.5 -243.5t232.5 -215.5t368 -90
q210 0 388 104t282 281.5t104 387.5q0 168 -78.5 309t-215 223.5t-304.5 82.5q-134 0 -252 -66t-188.5 -179t-70.5 -246q0 -106 52.5 -195t141.5 -141.5t195 -52.5q15 0 37 20q17 15 26 15q7 0 14 -9q4 -4 4 -10q0 -14 -26 -25t-55 -11q-111 0 -205 55t-149 149t-55 205
q0 138 73.5 255.5t196 186.5t261.5 69q173 0 314.5 -85zM-186.5 568q46.5 -77 123.5 -128t165 -65v209q-58 17 -95 66.5t-37 111.5q0 41 20 75.5t54.5 54.5t75.5 20q28 0 51 -10.5t23 -24.5q0 -7 -7 -14q-4 -4 -9 -4q-6 0 -21 13q-11 10 -19 15t-18 5q-35 0 -65 -17.5
t-47.5 -47.5t-17.5 -65q0 -54 31.5 -97t80.5 -60v27q0 20 -12 34t-31 18l-35 7v9h245q35 0 66 -3q30 51 30 108q0 72 -35.5 133t-96 96.5t-132.5 35.5q-91 0 -167.5 -45.5t-121.5 -122.5t-45 -168q0 -89 46.5 -166zM269 680h-47v-73q59 19 99 70q-24 3 -52 3zM269 370
q96 0 146.5 39.5t50.5 115.5q0 59 -31.5 96.5t-91.5 51.5q-22 -31 -53 -53.5t-68 -33.5v-216h47z" />
    <glyph glyph-name="R.ss09" unicode="&#xe070;" horiz-adv-x="655" 
d="M1769.5 885q141.5 -85 222.5 -230.5t81 -319.5q0 -215 -106.5 -397.5t-289 -289t-398.5 -106.5q-196 0 -370.5 72.5t-294.5 203t-158 298.5q-28 122 -69.5 178t-117.5 56h-47v-282q0 -20 12 -34t31 -18l35 -7v-9h-276v9l35 7q19 4 31 18t12 34v167q-44 -23 -92 -23
q-64 0 -118.5 32t-86.5 86.5t-32 118.5q0 70 37 127.5t102 90.5t145 33h212q81 0 144 -14t105 -38q81 -49 81 -123q0 -50 -40 -91q-24 -25 -90 -50q-55 -19 -128 -24q78 -7 121 -34.5t66 -76.5t43 -138q26 -118 107.5 -243.5t232.5 -215.5t368 -90q210 0 388 104t282 281.5
t104 387.5q0 168 -78.5 309t-215 223.5t-304.5 82.5q-134 0 -252 -66t-188.5 -179t-70.5 -246q0 -106 52.5 -195t141.5 -141.5t195 -52.5q15 0 37 20q17 15 26 15q7 0 14 -9q4 -4 4 -10q0 -14 -26 -25t-55 -11q-111 0 -205 55t-149 149t-55 205q0 138 73.5 255.5t196 186.5
t261.5 69q173 0 314.5 -85zM102 259v268q-25 12 -56 12q-44 0 -75 -31t-31 -75q0 -12 7.5 -20.5t21.5 -19.5q18 -14 18 -21q0 -6 -7 -12q-7 -5 -12 -5q-17 0 -32.5 27t-15.5 51q0 34 17 63t46 46t63 17q28 0 56 -10v83q0 21 -11.5 36.5t-33.5 15.5q-75 0 -135 -31t-94.5 -85
t-34.5 -119q0 -59 29 -109t79 -79t109 -29q49 0 92 27zM269 370q96 0 146.5 39.5t50.5 115.5t-50.5 115.5t-146.5 39.5h-47v-310h47z" />
    <glyph glyph-name="Racute" unicode="&#x154;" horiz-adv-x="655" 
d="M269 700q81 0 144 -14t105 -38q81 -49 81 -123q0 -50 -40 -91q-24 -25 -90 -50q-55 -19 -128 -24q68 -6 111 -16.5t75 -38t40 -80.5l26 -175q5 -35 27 -35q16 0 35 25l21 -10q-12 -21 -41 -33t-60 -12q-47 0 -77.5 29.5t-38.5 83.5l-19 127q-12 73 -51 99t-120 26h-47
v-282q0 -20 12 -34t31 -18l35 -7v-9h-276v9l35 7q19 4 31 18t12 34v564q0 20 -12 34t-31 18l-35 7v9h245zM415.5 640.5q-50.5 39.5 -146.5 39.5h-47v-310h47q96 0 146.5 39.5t50.5 115.5t-50.5 115.5zM320 870h108l-120 -120h-36z" />
    <glyph glyph-name="Rcaron" unicode="&#x158;" horiz-adv-x="655" 
d="M269 700q81 0 144 -14t105 -38q81 -49 81 -123q0 -50 -40 -91q-24 -25 -90 -50q-55 -19 -128 -24q68 -6 111 -16.5t75 -38t40 -80.5l26 -175q5 -35 27 -35q16 0 35 25l21 -10q-12 -21 -41 -33t-60 -12q-47 0 -77.5 29.5t-38.5 83.5l-19 127q-12 73 -51 99t-120 26h-47
v-282q0 -20 12 -34t31 -18l35 -7v-9h-276v9l35 7q19 4 31 18t12 34v564q0 20 -12 34t-31 18l-35 7v9h245zM415.5 640.5q-50.5 39.5 -146.5 39.5h-47v-310h47q96 0 146.5 39.5t50.5 115.5t-50.5 115.5zM320 815l108 60l17 -12l-125 -118l-125 118l17 12z" />
    <glyph glyph-name="Rcommaaccent" unicode="&#x156;" horiz-adv-x="655" 
d="M269 700q81 0 144 -14t105 -38q81 -49 81 -123q0 -50 -40 -91q-24 -25 -90 -50q-55 -19 -128 -24q68 -6 111 -16.5t75 -38t40 -80.5l26 -175q5 -35 27 -35q16 0 35 25l21 -10q-12 -21 -41 -33t-60 -12q-47 0 -77.5 29.5t-38.5 83.5l-19 127q-12 73 -51 99t-120 26h-47
v-282q0 -20 12 -34t31 -18l35 -7v-9h-276v9l35 7q19 4 31 18t12 34v564q0 20 -12 34t-31 18l-35 7v9h245zM415.5 640.5q-50.5 39.5 -146.5 39.5h-47v-310h47q96 0 146.5 39.5t50.5 115.5t-50.5 115.5zM395.5 -57q14.5 -18 14.5 -61q0 -29 -13.5 -56t-38.5 -44t-57 -17v16
q28 0 51.5 24.5t23.5 55.5q-3 -3 -14 -4t-16 -1q-23 0 -36.5 13.5t-13.5 36.5t16 39t39 16q30 0 44.5 -18z" />
    <glyph glyph-name="S" unicode="S" horiz-adv-x="545" 
d="M541 170q0 -78 -71 -132q-34 -25 -81 -39t-100 -14q-96 0 -157.5 29t-88.5 68t-27 71q0 37 22 69.5t68 32.5q27 0 49 -18t22 -39q-21 -4 -33 -23t-12 -44q0 -48 33.5 -87t113.5 -39q76 0 121.5 39.5t45.5 105.5q0 36 -25.5 66t-80.5 59q-40 22 -102 49q-129 56 -182 126
q-32 41 -32 100q0 67 65 117q68 48 164 48q86 0 141.5 -26t80 -61.5t24.5 -64.5q0 -33 -20.5 -62.5t-61.5 -29.5q-25 0 -44.5 16t-19.5 35q18 4 29 25.5t11 45.5q0 22 -11.5 45t-40.5 40t-78 17q-64 0 -104.5 -35t-40.5 -90q0 -36 25.5 -66t80.5 -59q49 -27 103 -49
q129 -57 181 -126q33 -42 33 -100z" />
    <glyph glyph-name="S.ss01" unicode="&#xe071;" horiz-adv-x="545" 
d="M2577 -64q0 -13 -7.5 -29.5t-20.5 -29.5q-93 -99 -248.5 -154.5t-408.5 -55.5q-183 0 -344 43t-287.5 103.5t-303.5 160.5q-136 78 -228.5 124.5t-187.5 76.5v-5q0 -58 -39.5 -107t-106.5 -78.5t-146 -29.5q-83 0 -143 21t-90.5 54t-30.5 70q0 35 32 66.5t98.5 51.5
t164.5 20q59 0 129 -10q-23 22 -69 47q-40 22 -102 49q-129 56 -182 126q-32 41 -32 100q0 67 65 117q68 48 164 48q86 0 141.5 -26t80 -61.5t24.5 -64.5q0 -33 -20.5 -62.5t-61.5 -29.5q-25 0 -44.5 16t-19.5 35q18 4 29 25.5t11 45.5q0 22 -11.5 45t-40.5 40t-78 17
q-64 0 -104.5 -35t-40.5 -90q0 -36 25.5 -66t80.5 -59q49 -27 103 -49q129 -57 181 -126q25 -32 31 -73q98 -30 192 -77.5t233 -127.5q174 -99 299 -159.5t285 -103t344 -42.5q248 0 400 54t243 150q6 9 6 32q0 16 3.5 23.5t16.5 7.5q16 0 16 -18zM430 204q-76 14 -150 14
q-95 0 -140.5 -34t-45.5 -80q0 -32 17.5 -62t51 -48.5t77.5 -18.5q63 0 110 25t71.5 65t24.5 85q0 29 -16 54z" />
    <glyph glyph-name="S.ss02" unicode="&#xe072;" horiz-adv-x="545" 
d="M2116.5 248q63.5 -37 100.5 -100t37 -138q0 -96 -52.5 -174t-150.5 -123.5t-229 -45.5q-183 0 -338.5 43t-275 103.5t-282.5 160.5q-128 79 -212 124t-173 75v-3q0 -58 -39.5 -107t-106.5 -78.5t-146 -29.5q-83 0 -143 21t-90.5 54t-30.5 70q0 35 32 66.5t98.5 51.5
t164.5 20q61 0 129 -10q-23 22 -69 47q-40 22 -102 49q-129 56 -182 126q-32 41 -32 100q0 67 65 117q68 48 164 48q86 0 141.5 -26t80 -61.5t24.5 -64.5q0 -33 -20.5 -62.5t-61.5 -29.5q-25 0 -44.5 16t-19.5 35q18 4 29 25.5t11 45.5q0 22 -11.5 45t-40.5 40t-78 17
q-64 0 -104.5 -35t-40.5 -90q0 -36 25.5 -66t80.5 -59q49 -27 103 -49q129 -57 181 -126q27 -32 31 -74q96 -31 185 -78t227 -130q161 -98 278 -158t267.5 -101.5t325.5 -41.5q126 0 219 43t143 116.5t50 163.5q0 69 -34.5 127.5t-93 93t-128.5 34.5q-55 0 -101.5 -27.5
t-73.5 -74t-27 -101.5q0 -43 21.5 -79.5t58 -58t79.5 -21.5q11 0 21 8t22 23q7 8 14.5 15t13.5 7q5 0 11 -6q7 -9 7 -15q0 -19 -27.5 -35.5t-61.5 -16.5q-48 0 -89 24.5t-65.5 65.5t-24.5 89q0 61 30 112t81 81t111 30q75 0 138.5 -37zM430 203q-72 15 -150 15
q-95 0 -140.5 -34t-45.5 -80q0 -32 17.5 -62t51 -48.5t77.5 -18.5q63 0 110 25t71.5 65t24.5 85q0 30 -16 53z" />
    <glyph glyph-name="S.ss03" unicode="&#xe073;" horiz-adv-x="545" 
d="M2582.5 1040q141.5 -85 222.5 -230.5t81 -319.5q0 -218 -101 -399.5t-282.5 -287.5t-410.5 -106q-183 0 -359.5 40.5t-325.5 98.5t-361 152q-183 80 -290 123t-215 71v-12q0 -58 -39.5 -107t-106.5 -78.5t-146 -29.5q-83 0 -143 21t-90.5 54t-30.5 70q0 35 32 66.5
t98.5 51.5t164.5 20q64 0 128 -9q-24 22 -68 46q-40 22 -102 49q-129 56 -182 126q-32 41 -32 100q0 67 65 117q68 48 164 48q86 0 141.5 -26t80 -61.5t24.5 -64.5q0 -33 -20.5 -62.5t-61.5 -29.5q-25 0 -44.5 16t-19.5 35q18 4 29 25.5t11 45.5q0 22 -11.5 45t-40.5 40
t-78 17q-64 0 -104.5 -35t-40.5 -90q0 -36 25.5 -66t80.5 -59q49 -27 103 -49q129 -57 181 -126q24 -30 30 -66q116 -29 232.5 -75t301.5 -127q208 -92 355 -149t318.5 -96.5t346.5 -39.5q224 0 400.5 103.5t275 280t98.5 389.5q0 168 -78.5 309t-215 223.5t-304.5 82.5
q-134 0 -252 -66t-188.5 -179t-70.5 -246q0 -106 52.5 -195t141.5 -141.5t195 -52.5q15 0 37 20q17 15 26 15q7 0 14 -9q4 -4 4 -10q0 -14 -26 -25t-55 -11q-111 0 -205 55t-149 149t-55 205q0 138 73.5 255.5t196 186.5t261.5 69q173 0 314.5 -85zM428 206q-74 12 -148 12
q-95 0 -140.5 -34t-45.5 -80q0 -32 17.5 -62t51 -48.5t77.5 -18.5q63 0 110 25t71.5 65t24.5 85q0 29 -18 56z" />
    <glyph glyph-name="S.ss04" unicode="&#xe074;" horiz-adv-x="545" 
d="M2582.5 680q141.5 -85 222.5 -230.5t81 -319.5q0 -218 -101 -399.5t-282.5 -287.5t-410.5 -106q-183 0 -359.5 68.5t-325.5 165.5t-361 257q-170 128 -283 204.5t-223 124.5q-4 -55 -44.5 -101.5t-105.5 -73.5t-141 -27q-83 0 -143 21t-90.5 54t-30.5 70q0 35 32 66.5
t98.5 51.5t164.5 20q65 0 136 -17q-25 26 -76 54q-40 22 -102 49q-129 56 -182 126q-32 41 -32 100q0 67 65 117q68 48 164 48q86 0 141.5 -26t80 -61.5t24.5 -64.5q0 -33 -20.5 -62.5t-61.5 -29.5q-25 0 -44.5 16t-19.5 35q18 4 29 25.5t11 45.5q0 22 -11.5 45t-40.5 40
t-78 17q-64 0 -104.5 -35t-40.5 -90q0 -36 25.5 -66t80.5 -59q49 -27 103 -49q129 -57 181 -126q30 -39 33 -91q116 -49 234.5 -128t297.5 -213q208 -156 355 -252t318 -162.5t346 -66.5q224 0 400.5 103.5t275 280t98.5 389.5q0 168 -78.5 309t-215 223.5t-304.5 82.5
q-134 0 -252 -66t-188.5 -179t-70.5 -246q0 -106 52.5 -195t141.5 -141.5t195 -52.5q15 0 37 20q17 15 26 15q7 0 14 -9q4 -4 4 -10q0 -14 -26 -25t-55 -11q-111 0 -205 55t-149 149t-55 205q0 138 73.5 255.5t196 186.5t261.5 69q173 0 314.5 -85zM435 195q-80 23 -155 23
q-95 0 -140.5 -34t-45.5 -80q0 -32 17.5 -62t51 -48.5t77.5 -18.5q63 0 110 25t71.5 65t24.5 85q0 23 -11 45z" />
    <glyph glyph-name="Sacute" unicode="&#x15a;" horiz-adv-x="545" 
d="M541 170q0 -78 -71 -132q-34 -25 -81 -39t-100 -14q-96 0 -157.5 29t-88.5 68t-27 71q0 37 22 69.5t68 32.5q27 0 49 -18t22 -39q-21 -4 -33 -23t-12 -44q0 -48 33.5 -87t113.5 -39q76 0 121.5 39.5t45.5 105.5q0 36 -25.5 66t-80.5 59q-40 22 -102 49q-129 56 -182 126
q-32 41 -32 100q0 67 65 117q68 48 164 48q86 0 141.5 -26t80 -61.5t24.5 -64.5q0 -33 -20.5 -62.5t-61.5 -29.5q-25 0 -44.5 16t-19.5 35q18 4 29 25.5t11 45.5q0 22 -11.5 45t-40.5 40t-78 17q-64 0 -104.5 -35t-40.5 -90q0 -36 25.5 -66t80.5 -59q49 -27 103 -49
q129 -57 181 -126q33 -42 33 -100zM287 875h108l-120 -120h-36z" />
    <glyph glyph-name="Scaron" unicode="&#x160;" horiz-adv-x="545" 
d="M541 170q0 -78 -71 -132q-34 -25 -81 -39t-100 -14q-96 0 -157.5 29t-88.5 68t-27 71q0 37 22 69.5t68 32.5q27 0 49 -18t22 -39q-21 -4 -33 -23t-12 -44q0 -48 33.5 -87t113.5 -39q76 0 121.5 39.5t45.5 105.5q0 36 -25.5 66t-80.5 59q-40 22 -102 49q-129 56 -182 126
q-32 41 -32 100q0 67 65 117q68 48 164 48q86 0 141.5 -26t80 -61.5t24.5 -64.5q0 -33 -20.5 -62.5t-61.5 -29.5q-25 0 -44.5 16t-19.5 35q18 4 29 25.5t11 45.5q0 22 -11.5 45t-40.5 40t-78 17q-64 0 -104.5 -35t-40.5 -90q0 -36 25.5 -66t80.5 -59q49 -27 103 -49
q129 -57 181 -126q33 -42 33 -100zM275 820l108 60l17 -12l-125 -118l-125 118l17 12z" />
    <glyph glyph-name="Scedilla" unicode="&#x15e;" horiz-adv-x="545" 
d="M541 170q0 -78 -71 -132q-34 -25 -81 -39t-100 -14q-96 0 -157.5 29t-88.5 68t-27 71q0 37 22 69.5t68 32.5q27 0 49 -18t22 -39q-21 -4 -33 -23t-12 -44q0 -48 33.5 -87t113.5 -39q76 0 121.5 39.5t45.5 105.5q0 36 -25.5 66t-80.5 59q-40 22 -102 49q-129 56 -182 126
q-32 41 -32 100q0 67 65 117q68 48 164 48q86 0 141.5 -26t80 -61.5t24.5 -64.5q0 -33 -20.5 -62.5t-61.5 -29.5q-25 0 -44.5 16t-19.5 35q18 4 29 25.5t11 45.5q0 22 -11.5 45t-40.5 40t-78 17q-64 0 -104.5 -35t-40.5 -90q0 -36 25.5 -66t80.5 -59q49 -27 103 -49
q129 -57 181 -126q33 -42 33 -100zM257 0h25v-35q37 0 56 -16.5t19 -43.5q0 -28 -21.5 -44t-68.5 -16q-15 0 -29 2l-11 3v21l9 -3q9 -3 21 -3q22 0 33.5 12t11.5 28q0 20 -11.5 32.5t-33.5 12.5v50z" />
    <glyph glyph-name="Scommaaccent" unicode="&#x218;" horiz-adv-x="545" 
d="M541 170q0 -78 -71 -132q-34 -25 -81 -39t-100 -14q-96 0 -157.5 29t-88.5 68t-27 71q0 37 22 69.5t68 32.5q27 0 49 -18t22 -39q-21 -4 -33 -23t-12 -44q0 -48 33.5 -87t113.5 -39q76 0 121.5 39.5t45.5 105.5q0 36 -25.5 66t-80.5 59q-40 22 -102 49q-129 56 -182 126
q-32 41 -32 100q0 67 65 117q68 48 164 48q86 0 141.5 -26t80 -61.5t24.5 -64.5q0 -33 -20.5 -62.5t-61.5 -29.5q-25 0 -44.5 16t-19.5 35q18 4 29 25.5t11 45.5q0 22 -11.5 45t-40.5 40t-78 17q-64 0 -104.5 -35t-40.5 -90q0 -36 25.5 -66t80.5 -59q49 -27 103 -49
q129 -57 181 -126q33 -42 33 -100zM316.5 -86.5q13.5 -16.5 13.5 -43.5q0 -66 -38 -104q-17 -17 -37 -26l-10 15q29 16 47 40q8 11 8 25q0 2 -3 14l-2 6q-7 -5 -20 -5q-19 0 -32 13t-13 32q0 23 13.5 36.5t36.5 13.5t36.5 -16.5z" />
    <glyph glyph-name="T" unicode="T" horiz-adv-x="584" 
d="M637 676q-6 -15 -6 -39q0 -29 8 -54.5t19 -25.5q-20 -14 -37 -14q-22 0 -35.5 19.5t-30.5 59.5q-11 29 -20.5 43.5t-21.5 14.5h-163v-612q0 -20 12 -34t31 -18l35 -7v-9h-276v9l35 7q19 4 31 18t12 34v612h-163q-12 0 -21.5 -14.5t-20.5 -43.5q-17 -40 -30.5 -59.5
t-35.5 -19.5q-17 0 -37 14q11 0 19 25.5t8 54.5q0 24 -6 39t-18 15v9h730v-9q-12 0 -18 -15z" />
    <glyph glyph-name="T.ss01" unicode="&#xe075;" horiz-adv-x="584" 
d="M618.5 669.5q-13.5 -21.5 -13.5 -43.5q0 -24 12 -41.5t31 -17.5q-3 -21 -26.5 -34.5t-57.5 -13.5q-35 0 -54 21.5t-19 52.5q0 15 6.5 30.5t7.5 18.5q9 18 9 26q0 6 -4.5 9t-16.5 3h-143v-612q0 -20 12 -34t31 -18l35 -7v-9h-276v9l35 7q19 4 31 18t12 34v612h-139
q-12 0 -16.5 -3t-4.5 -9q0 -8 9 -26q1 -3 7.5 -18.5t6.5 -30.5q0 -31 -19 -52.5t-54 -21.5q-34 0 -57.5 13.5t-26.5 34.5q19 0 36 26.5t17 51.5q0 29 -26 25q-72 -18 -128.5 -65.5t-89 -114.5t-32.5 -144q0 -72 35.5 -133t96.5 -96.5t133 -35.5q57 0 105.5 28t76.5 76.5
t28 105.5q0 45 -22.5 83t-60.5 60.5t-83 22.5q-35 0 -65 -17.5t-47.5 -47.5t-17.5 -65q0 -12 7.5 -20.5t21.5 -19.5q18 -14 18 -21q0 -6 -7 -12q-7 -5 -12 -5q-17 0 -32.5 27t-15.5 51q0 41 20 75.5t54.5 54.5t75.5 20q50 0 93 -25t68 -68t25 -93q0 -62 -31 -115t-84 -84
t-115 -31q-77 0 -142.5 38.5t-104 104t-38.5 142.5q0 96 47.5 177.5t129 129t177.5 47.5h608v-9q-23 0 -36.5 -21.5z" />
    <glyph glyph-name="T.ss02" unicode="&#xe076;" horiz-adv-x="584" 
d="M1639.5 -114.5q82.5 -45.5 127.5 -124t45 -173.5q0 -75 -37 -138t-100.5 -100t-138.5 -37q-60 0 -111 30t-81 81t-30 112q0 48 24.5 89t65.5 65.5t89 24.5q34 0 61.5 -16.5t27.5 -35.5q0 -6 -7 -15q-6 -6 -11 -6q-6 0 -13.5 7t-14.5 15q-12 15 -22 23t-21 8
q-43 0 -79.5 -21.5t-58 -58t-21.5 -79.5q0 -55 27 -101.5t73.5 -74t101.5 -27.5q70 0 128.5 34.5t93 93t34.5 127.5q0 90 -42.5 163.5t-120.5 116.5t-179 43t-196.5 -18.5t-176.5 -45t-202 -72.5q-131 -50 -225 -81t-209.5 -52t-243.5 -21q-188 0 -330.5 71t-219 193.5
t-76.5 271.5q0 181 64 303.5t158 181t184 58.5h678v-9q-23 0 -36.5 -21.5t-13.5 -43.5q0 -24 12 -41.5t31 -17.5q-3 -21 -26.5 -34.5t-57.5 -13.5q-35 0 -54 21.5t-19 52.5q0 15 6.5 30.5t7.5 18.5q9 18 9 26q0 6 -4.5 9t-16.5 3h-143v-612q0 -20 12 -34t31 -18l35 -7v-9
h-276v9l35 7q19 4 31 18t12 34v612h-139q-12 0 -16.5 -3t-4.5 -9q0 -8 9 -26q1 -3 7.5 -18.5t6.5 -30.5q0 -31 -19 -52.5t-54 -21.5q-34 0 -57.5 13.5t-26.5 34.5q14 0 30.5 14t27.5 34.5t11 37.5q0 32 -41 32q-69 0 -157 -56t-152 -175t-64 -297q0 -144 73.5 -262t211 -186
t321.5 -68q127 0 241 21t207 51.5t224 80.5q121 46 203.5 73t178.5 45.5t199 18.5q107 0 189.5 -45.5z" />
    <glyph glyph-name="T.ss03" unicode="&#xe077;" horiz-adv-x="584" 
d="M1848.5 -175.5q182.5 -106.5 289 -289t106.5 -397.5q0 -174 -81 -319.5t-222.5 -230.5t-314.5 -85q-139 0 -261.5 69t-196 186.5t-73.5 255.5q0 111 55 205t149 149t205 55q29 0 55 -11t26 -25q0 -6 -4 -10q-7 -9 -14 -9q-9 0 -26 15q-22 20 -37 20q-106 0 -195 -52.5
t-141.5 -141.5t-52.5 -195q0 -133 70.5 -246t188.5 -179t252 -66q168 0 304.5 82.5t215 223.5t78.5 309q0 210 -104 387.5t-282 281.5t-388 104q-101 0 -196.5 -18.5t-176.5 -45t-202 -72.5q-131 -50 -225 -81t-209.5 -52t-243.5 -21q-188 0 -330.5 71t-219 193.5
t-76.5 271.5q0 181 64 303.5t158 181t184 58.5h678v-9q-23 0 -36.5 -21.5t-13.5 -43.5q0 -24 12 -41.5t31 -17.5q-3 -21 -26.5 -34.5t-57.5 -13.5q-35 0 -54 21.5t-19 52.5q0 15 6.5 30.5t7.5 18.5q9 18 9 26q0 6 -4.5 9t-16.5 3h-143v-612q0 -20 12 -34t31 -18l35 -7v-9
h-276v9l35 7q19 4 31 18t12 34v612h-139q-12 0 -16.5 -3t-4.5 -9q0 -8 9 -26q1 -3 7.5 -18.5t6.5 -30.5q0 -31 -19 -52.5t-54 -21.5q-34 0 -57.5 13.5t-26.5 34.5q14 0 30.5 14t27.5 34.5t11 37.5q0 32 -41 32q-69 0 -157 -56t-152 -175t-64 -297q0 -144 73.5 -262t211 -186
t321.5 -68q127 0 241 21t207 51.5t224 80.5q121 46 203.5 73t178.5 45.5t199 18.5q216 0 398.5 -106.5z" />
    <glyph glyph-name="T.ss04" unicode="&#xe078;" horiz-adv-x="584" 
d="M1629.5 304.5q182.5 -106.5 289 -289t106.5 -397.5q0 -174 -81 -319.5t-222.5 -230.5t-314.5 -85q-139 0 -261.5 69t-196 186.5t-73.5 255.5q0 111 55 205t149 149t205 55q29 0 55 -11t26 -25q0 -6 -4 -10q-7 -9 -14 -9q-9 0 -26 15q-22 20 -37 20q-106 0 -195 -52.5
t-141.5 -141.5t-52.5 -195q0 -133 70.5 -246t188.5 -179t252 -66q168 0 304.5 82.5t215 223.5t78.5 309q0 210 -104 387.5t-282 281.5t-388 104q-101 0 -186 -21t-150.5 -51.5t-158.5 -82.5q-112 -63 -195.5 -100t-190.5 -57v-11q0 -20 12 -34t31 -18l35 -7v-9h-276v9l35 7
q19 4 30 17t13 31q-39 -3 -82 -3q-111 0 -208.5 39t-157 113t-59.5 173q0 96 40 167t113.5 109t170.5 38h608v-9q-23 0 -36.5 -21.5t-13.5 -43.5q0 -24 12 -41.5t31 -17.5q-3 -21 -26.5 -34.5t-57.5 -13.5q-35 0 -54 21.5t-19 52.5q0 15 6.5 30.5t7.5 18.5q9 18 9 26
q0 6 -4.5 9t-16.5 3h-143v-581q105 21 187.5 57.5t193.5 98.5q94 53 160 83.5t151.5 51.5t188.5 21q216 0 398.5 -106.5zM-200 222.5q57 -69.5 149.5 -105.5t198.5 -36q43 0 82 3v596h-139q-12 0 -16.5 -3t-4.5 -9q0 -8 9 -26q1 -3 7.5 -18.5t6.5 -30.5q0 -31 -19 -52.5
t-54 -21.5q-34 0 -57.5 13.5t-26.5 34.5q20 0 37 26.5t17 51.5t-21 25l-12 -2l16 6q-108 -20 -169 -95t-61 -193q0 -94 57 -163.5z" />
    <glyph glyph-name="T.ss05" unicode="&#xe079;" horiz-adv-x="584" 
d="M878 979q142 -90 223 -240.5t81 -324.5q0 -219 -99.5 -397.5t-280 -282t-414.5 -103.5q-197 0 -362.5 72t-264 209t-98.5 324q0 119 55 226.5t144 172.5t185 65q28 109 104 192.5t184 130t229 46.5q172 0 314 -90zM793 -248.5q176 100.5 272.5 275t96.5 387.5
q0 169 -78.5 315t-215.5 233t-304 87q-116 0 -219.5 -43.5t-177 -122.5t-100.5 -183h588v-9q-23 0 -36.5 -21.5t-13.5 -43.5q0 -24 12 -41.5t31 -17.5q-3 -21 -26.5 -34.5t-57.5 -13.5q-35 0 -54 21.5t-19 52.5q0 15 6.5 30.5t7.5 18.5q9 18 9 26q0 6 -4.5 9t-16.5 3h-143
v-470q46 -11 92 -11q15 0 37 20q17 15 26 15q7 0 14 -9q4 -4 4 -10q0 -14 -26 -25t-55 -11q-42 0 -92 10v-121q0 -20 12 -34t31 -18l35 -7v-9h-276v9l35 7q19 4 31 18t12 34v170q-76 46 -126.5 120t-65.5 163q-10 -2 -18 -2q-34 0 -57.5 13.5t-26.5 34.5q19 0 36 26.5
t17 51.5q0 22 -15 25q-78 -23 -144.5 -87.5t-106.5 -156t-40 -190.5q0 -182 96 -314.5t257 -201.5t352 -69q229 0 405 100.5zM230 680h-139q-12 0 -16.5 -3t-4.5 -9q0 -8 9 -26q1 -3 7.5 -18.5t6.5 -30.5q0 -21 -9 -38t-26 -27q13 -83 58 -152t114 -114v418z" />
    <glyph glyph-name="T.ss06" unicode="&#xe07a;" horiz-adv-x="584" 
d="M637 676q-6 -15 -6 -39q0 -29 8 -54.5t19 -25.5q-20 -14 -37 -14q-22 0 -35.5 19.5t-30.5 59.5q-11 29 -20.5 43.5t-21.5 14.5h-163v-612q0 -20 12 -34t31 -18l35 -7v-9h-276v9l35 7q19 4 31 18t12 34v612h-163q-12 0 -21.5 -14.5t-20.5 -43.5q-17 -40 -30.5 -59.5
t-35.5 -19.5q-17 0 -37 14q12 0 25 26.5t13 50.5q0 31 -25 27q-64 -23 -114.5 -69.5t-79 -110t-28.5 -135.5t35.5 -133t96.5 -96.5t133 -35.5q57 0 105.5 28t76.5 76.5t28 105.5q0 45 -22.5 83t-60.5 60.5t-83 22.5q-35 0 -65 -17.5t-47.5 -47.5t-17.5 -65q0 -12 7.5 -20.5
t21.5 -19.5q18 -14 18 -21q0 -6 -7 -12q-7 -5 -12 -5q-17 0 -32.5 27t-15.5 51q0 41 20 75.5t54.5 54.5t75.5 20q50 0 93 -25t68 -68t25 -93q0 -62 -31 -115t-84 -84t-115 -31q-77 0 -142.5 38.5t-104 104t-38.5 142.5q0 96 47.5 177.5t129 129t177.5 47.5h608v-9
q-12 0 -18 -15z" />
    <glyph glyph-name="T.ss07" unicode="&#xe07b;" horiz-adv-x="584" 
d="M618.5 669.5q-13.5 -21.5 -13.5 -43.5q0 -24 12 -41.5t31 -17.5q-3 -21 -26.5 -34.5t-57.5 -13.5q-35 0 -54 21.5t-19 52.5q0 15 6.5 30.5t7.5 18.5q9 18 9 26q0 6 -4.5 9t-16.5 3h-143v-612q0 -20 12 -34t31 -18l35 -7v-9h-276v9l35 7q19 4 31 18t12 34v612h-143
q-12 0 -16.5 -3t-4.5 -9q0 -8 9 -26q1 -3 7.5 -18.5t6.5 -30.5q0 -31 -19 -52.5t-54 -21.5q-34 0 -57.5 13.5t-26.5 34.5q19 0 31 17.5t12 41.5q0 22 -13.5 43.5t-36.5 21.5v9h730v-9q-23 0 -36.5 -21.5z" />
    <glyph glyph-name="T.ss08" unicode="&#xe07c;" horiz-adv-x="584" 
d="M878 979q142 -90 223 -240.5t81 -324.5q0 -219 -99.5 -397.5t-280 -282t-414.5 -103.5q-197 0 -362.5 72t-264 209t-98.5 324q0 119 55 226.5t144 172.5t185 65q28 109 104 192.5t184 130t229 46.5q172 0 314 -90zM793 -248.5q176 100.5 272.5 275t96.5 387.5
q0 169 -78.5 315t-215.5 233t-304 87q-116 0 -219.5 -43.5t-177 -122.5t-100.5 -183h588v-9q-12 0 -18 -15t-6 -39q0 -29 8 -54.5t19 -25.5q-20 -14 -37 -14q-22 0 -35.5 19.5t-30.5 59.5q-11 29 -20.5 43.5t-21.5 14.5h-163v-470q46 -11 92 -11q15 0 37 20q17 15 26 15
q7 0 14 -9q4 -4 4 -10q0 -14 -26 -25t-55 -11q-42 0 -92 10v-121q0 -20 12 -34t31 -18l35 -7v-9h-276v9l35 7q19 4 31 18t12 34v170q-90 55 -143.5 148t-53.5 202q0 35 4 62l-12 -27q-15 -39 -29 -59.5t-37 -20.5q-17 0 -37 14q12 0 22.5 23.5t10.5 45.5q0 31 -22 28
q-69 -32 -126 -95.5t-90.5 -147.5t-33.5 -175q0 -182 96 -314.5t257 -201.5t352 -69q229 0 405 100.5zM62 679q-9 -43 -9 -91q0 -101 47.5 -187t129.5 -139v418h-163q-3 0 -5 -1zM-78 651l3 1z" />
    <glyph glyph-name="T.ss09" unicode="&#xe07d;" horiz-adv-x="584" 
d="M1639.5 -114.5q82.5 -45.5 127.5 -124t45 -173.5q0 -75 -37 -138t-100.5 -100t-138.5 -37q-60 0 -111 30t-81 81t-30 112q0 48 24.5 89t65.5 65.5t89 24.5q34 0 61.5 -16.5t27.5 -35.5q0 -6 -7 -15q-6 -6 -11 -6q-6 0 -13.5 7t-14.5 15q-12 15 -22 23t-21 8
q-43 0 -79.5 -21.5t-58 -58t-21.5 -79.5q0 -55 27 -101.5t73.5 -74t101.5 -27.5q70 0 128.5 34.5t93 93t34.5 127.5q0 90 -42.5 163.5t-120.5 116.5t-179 43t-196.5 -18.5t-176.5 -45t-202 -72.5q-131 -50 -225 -81t-209.5 -52t-243.5 -21q-188 0 -330.5 71t-219 193.5
t-76.5 271.5q0 182 64.5 305t159.5 181t185 57h675v-9q-12 0 -18 -15t-6 -39q0 -29 8 -54.5t19 -25.5q-20 -14 -37 -14q-22 0 -35.5 19.5t-30.5 59.5q-11 29 -20.5 43.5t-21.5 14.5h-163v-612q0 -20 12 -34t31 -18l35 -7v-9h-276v9l35 7q19 4 31 18t12 34v612h-163
q-12 0 -21.5 -14.5t-20.5 -43.5q-17 -40 -30.5 -59.5t-35.5 -19.5q-17 0 -37 14q12 0 22 26t10 54q0 19 -6.5 31t-20.5 13q-73 -14 -150.5 -74t-131.5 -173.5t-54 -276.5q0 -144 73.5 -262t211 -186t321.5 -68q127 0 241 21t207 51.5t224 80.5q121 46 203.5 73t178.5 45.5
t199 18.5q107 0 189.5 -45.5z" />
    <glyph glyph-name="T.ss10" unicode="&#xe07e;" horiz-adv-x="584" 
d="M1848.5 -175.5q182.5 -106.5 289 -289t106.5 -397.5q0 -174 -81 -319.5t-222.5 -230.5t-314.5 -85q-139 0 -261.5 69t-196 186.5t-73.5 255.5q0 111 55 205t149 149t205 55q29 0 55 -11t26 -25q0 -6 -4 -10q-7 -9 -14 -9q-9 0 -26 15q-22 20 -37 20q-106 0 -195 -52.5
t-141.5 -141.5t-52.5 -195q0 -133 70.5 -246t188.5 -179t252 -66q168 0 304.5 82.5t215 223.5t78.5 309q0 210 -104 387.5t-282 281.5t-388 104q-101 0 -196.5 -18.5t-176.5 -45t-202 -72.5q-131 -50 -225 -81t-209.5 -52t-243.5 -21q-188 0 -330.5 71t-219 193.5
t-76.5 271.5q0 182 64.5 305t159.5 181t185 57h675v-9q-12 0 -18 -15t-6 -39q0 -29 8 -54.5t19 -25.5q-20 -14 -37 -14q-22 0 -35.5 19.5t-30.5 59.5q-11 29 -20.5 43.5t-21.5 14.5h-163v-612q0 -20 12 -34t31 -18l35 -7v-9h-276v9l35 7q19 4 31 18t12 34v612h-163
q-12 0 -21.5 -14.5t-20.5 -43.5q-17 -40 -30.5 -59.5t-35.5 -19.5q-17 0 -37 14q12 0 22 26t10 54q0 19 -6.5 31t-20.5 13q-73 -14 -150.5 -74t-131.5 -173.5t-54 -276.5q0 -144 73.5 -262t211 -186t321.5 -68q127 0 241 21t207 51.5t224 80.5q121 46 203.5 73t178.5 45.5
t199 18.5q216 0 398.5 -106.5z" />
    <glyph glyph-name="T.ss11" unicode="&#xe07f;" horiz-adv-x="584" 
d="M1629.5 304.5q182.5 -106.5 289 -289t106.5 -397.5q0 -174 -81 -319.5t-222.5 -230.5t-314.5 -85q-139 0 -261.5 69t-196 186.5t-73.5 255.5q0 111 55 205t149 149t205 55q29 0 55 -11t26 -25q0 -6 -4 -10q-7 -9 -14 -9q-9 0 -26 15q-22 20 -37 20q-106 0 -195 -52.5
t-141.5 -141.5t-52.5 -195q0 -133 70.5 -246t188.5 -179t252 -66q168 0 304.5 82.5t215 223.5t78.5 309q0 210 -104 387.5t-282 281.5t-388 104q-101 0 -186 -21t-150.5 -51.5t-158.5 -82.5q-112 -63 -195.5 -100t-190.5 -57v-11q0 -20 12 -34t31 -18l35 -7v-9h-276v9l35 7
q19 4 30 17t13 31q-39 -3 -82 -3q-111 0 -208.5 39t-157 113t-59.5 173q0 96 40 167t113.5 109t170.5 38h608v-9q-12 0 -18 -15t-6 -39q0 -29 8 -54.5t19 -25.5q-20 -14 -37 -14q-22 0 -35.5 19.5t-30.5 59.5q-11 29 -20.5 43.5t-21.5 14.5h-163v-581q105 21 187.5 57.5
t193.5 98.5q94 53 160 83.5t151.5 51.5t188.5 21q216 0 398.5 -106.5zM-200 222.5q57 -69.5 149.5 -105.5t198.5 -36q43 0 82 3v596h-163q-12 0 -21.5 -14.5t-20.5 -43.5q-17 -40 -30.5 -59.5t-35.5 -19.5q-17 0 -37 14q12 0 22.5 22t10.5 45q0 17 -7 27.5t-23 9.5
q-86 -29 -134 -100t-48 -175q0 -94 57 -163.5z" />
    <glyph glyph-name="Tcaron" unicode="&#x164;" horiz-adv-x="584" 
d="M637 676q-6 -15 -6 -39q0 -29 8 -54.5t19 -25.5q-20 -14 -37 -14q-22 0 -35.5 19.5t-30.5 59.5q-11 29 -20.5 43.5t-21.5 14.5h-163v-612q0 -20 12 -34t31 -18l35 -7v-9h-276v9l35 7q19 4 31 18t12 34v612h-163q-12 0 -21.5 -14.5t-20.5 -43.5q-17 -40 -30.5 -59.5
t-35.5 -19.5q-17 0 -37 14q11 0 19 25.5t8 54.5q0 24 -6 39t-18 15v9h730v-9q-12 0 -18 -15zM295 815l108 60l17 -12l-125 -118l-125 118l17 12z" />
    <glyph glyph-name="uni0162" unicode="&#x162;" horiz-adv-x="584" 
d="M637 676q-6 -15 -6 -39q0 -29 8 -54.5t19 -25.5q-20 -14 -37 -14q-22 0 -35.5 19.5t-30.5 59.5q-11 29 -20.5 43.5t-21.5 14.5h-163v-612q0 -20 12 -34t31 -18l35 -7v-9h-276v9l35 7q19 4 31 18t12 34v612h-163q-12 0 -21.5 -14.5t-20.5 -43.5q-17 -40 -30.5 -59.5
t-35.5 -19.5q-17 0 -37 14q11 0 19 25.5t8 54.5q0 24 -6 39t-18 15v9h730v-9q-12 0 -18 -15zM320.5 -77q14.5 -18 14.5 -61q0 -29 -13.5 -56t-38.5 -44t-57 -17v16q28 0 51.5 24.5t23.5 55.5q-3 -3 -14 -4t-16 -1q-23 0 -36.5 13.5t-13.5 36.5t16 39t39 16q30 0 44.5 -18z
" />
    <glyph glyph-name="U" unicode="U" horiz-adv-x="681" 
d="M616 658.5q-10 -13.5 -10 -30.5v-428q0 -215 -239 -215q-135 0 -210 57t-75 158v432q0 20 -12 34t-31 18l-35 7v9h277v-9l-35 -7q-19 -4 -31 -18t-12 -34v-432q0 -92 46.5 -143.5t130.5 -51.5q88 0 138 47q25 24 38.5 62t13.5 86v427q0 17 -10 31t-27 19l-48 14v9h205v-9
l-47 -14q-17 -5 -27 -18.5z" />
    <glyph glyph-name="U.ss01" unicode="&#xe080;" horiz-adv-x="681" 
d="M690 700v-9l-47 -14q-17 -5 -27 -18.5t-10 -30.5v-428q0 -215 -239 -215q-107 0 -177.5 36.5t-94.5 103.5q-32 -30 -73.5 -47t-86.5 -17q-77 0 -142.5 38.5t-104 104t-38.5 142.5q0 96 47.5 177.5t129 129t177.5 47.5h277v-9l-35 -7q-19 -4 -31 -18t-12 -34v-432
q0 -92 46.5 -143.5t130.5 -51.5q88 0 138 47q25 24 38.5 62t13.5 86v427q0 17 -10 31t-27 19l-48 14v9h205zM19 98.5q40 17.5 69 48.5q-6 26 -6 53v221q-44 36 -103 36q-35 0 -65 -17.5t-47.5 -47.5t-17.5 -65q0 -12 7.5 -20.5t21.5 -19.5q18 -14 18 -21q0 -6 -7 -12
q-7 -5 -12 -5q-17 0 -32.5 27t-15.5 51q0 41 20 75.5t54.5 54.5t75.5 20q55 0 103 -32v187q0 20 -12 36t-31 16h-35q-91 0 -167.5 -46t-121.5 -123.5t-45 -168.5q0 -72 35.5 -133t96.5 -96.5t133 -35.5q44 0 84 17.5z" />
    <glyph glyph-name="U.ss02" unicode="&#xe081;" horiz-adv-x="681" 
d="M690 700v-9l-47 -14q-17 -5 -27 -18.5t-10 -30.5v-428q0 -215 -239 -215q-135 0 -210 57t-75 158v58q-54 -46 -125 -46q-64 0 -118.5 32t-86.5 86.5t-32 118.5q0 70 37 127.5t102 90.5t145 33h277v-9l-35 -7q-19 -4 -31 -18t-12 -34v-432q0 -92 46.5 -143.5t130.5 -51.5
q88 0 138 47q25 24 38.5 62t13.5 86v427q0 17 -10 31t-27 19l-48 14v9h205zM25.5 246.5q32.5 14.5 56.5 39.5v220q-40 33 -89 33q-44 0 -75 -31t-31 -75q0 -12 7.5 -20.5t21.5 -19.5q18 -14 18 -21q0 -6 -7 -12q-7 -5 -12 -5q-17 0 -32.5 27t-15.5 51q0 34 17 63t46 46
t63 17q50 0 89 -28v101q0 20 -12 36t-31 16h-35q-75 0 -135 -31t-94.5 -85t-34.5 -119q0 -59 29 -109t79 -79t109 -29q36 0 68.5 14.5z" />
    <glyph glyph-name="U.ss03" unicode="&#xe082;" horiz-adv-x="681" 
d="M834.5 964.5q141.5 -94.5 223 -250t81.5 -330.5q0 -219 -99.5 -397.5t-280 -282t-414.5 -103.5q-195 0 -358.5 76.5t-260 218.5t-96.5 330q0 120 52.5 230t139.5 177t182 67q27 107 103 188.5t184.5 126t229.5 44.5q172 0 313.5 -94.5zM749 -278.5q175 100.5 271 275
t96 387.5q0 169 -78 320.5t-214.5 243t-302.5 91.5q-116 0 -219.5 -41.5t-177 -118.5t-100.5 -179h257v-9l-35 -7q-19 -4 -31 -18t-12 -34v-380q90 -53 196 -53q15 0 37 20q17 15 26 15q6 0 14 -9q4 -4 4 -10q0 -14 -26 -25t-55 -11q-105 0 -196 50v-29q0 -92 46.5 -143.5
t130.5 -51.5q88 0 138 47q25 24 38.5 62t13.5 86v427q0 17 -10 31t-27 19l-48 14v9h205v-9l-47 -14q-17 -5 -27 -18.5t-10 -30.5v-428q0 -215 -239 -215q-135 0 -210 57t-75 158v129q-44 54 -68 120.5t-24 138.5q0 52 10 96q-89 -1 -170 -67t-130.5 -171.5t-49.5 -219.5
q0 -182 94 -319.5t252.5 -211.5t348.5 -74q229 0 404 100.5zM82 632q0 20 -12 36t-31 16h-19q-10 -50 -10 -96q0 -62 19 -119.5t53 -106.5v270z" />
    <glyph glyph-name="U.ss04" unicode="&#xe083;" horiz-adv-x="681" 
d="M1875.5 -175.5q182.5 -106.5 289 -289t106.5 -397.5q0 -174 -81 -319.5t-222.5 -230.5t-314.5 -85q-139 0 -261.5 69t-196 186.5t-73.5 255.5q0 111 55 205t149 149t205 55q29 0 55 -11t26 -25q0 -6 -4 -10q-7 -9 -14 -9q-9 0 -26 15q-22 20 -37 20q-106 0 -195 -52.5
t-141.5 -141.5t-52.5 -195q0 -133 70.5 -246t188.5 -179t252 -66q168 0 304.5 82.5t215 223.5t78.5 309q0 210 -104 387.5t-282 281.5t-388 104q-101 0 -196.5 -18.5t-176.5 -45t-202 -72.5q-131 -50 -225 -81t-209.5 -52t-243.5 -21q-188 0 -330.5 71t-219 193.5
t-76.5 271.5q0 181 64 303.5t158 181t184 58.5h277v-9l-35 -7q-19 -4 -31 -18t-12 -34v-432q0 -92 46.5 -143.5t130.5 -51.5q88 0 138 47q25 24 38.5 62t13.5 86v427q0 17 -10 31t-27 19l-48 14v9h205v-9l-47 -14q-17 -5 -27 -18.5t-10 -30.5v-428q0 -215 -239 -215
q-135 0 -210 57t-75 158v432q0 20 -12 36t-31 16h-35q-70 0 -161 -56t-158 -174.5t-67 -296.5q0 -144 73.5 -262t211 -186t321.5 -68q127 0 241 21t207 51.5t224 80.5q121 46 203.5 73t178.5 45.5t199 18.5q216 0 398.5 -106.5z" />
    <glyph glyph-name="U.ss05" unicode="&#xe084;" horiz-adv-x="681" 
d="M1666.5 -114.5q82.5 -45.5 127.5 -124t45 -173.5q0 -75 -37 -138t-100.5 -100t-138.5 -37q-60 0 -111 30t-81 81t-30 112q0 48 24.5 89t65.5 65.5t89 24.5q34 0 61.5 -16.5t27.5 -35.5q0 -6 -7 -15q-6 -6 -11 -6q-6 0 -13.5 7t-14.5 15q-12 15 -22 23t-21 8
q-43 0 -79.5 -21.5t-58 -58t-21.5 -79.5q0 -55 27 -101.5t73.5 -74t101.5 -27.5q70 0 128.5 34.5t93 93t34.5 127.5q0 90 -42.5 163.5t-120.5 116.5t-179 43t-196.5 -18.5t-176.5 -45t-202 -72.5q-131 -50 -225 -81t-209.5 -52t-243.5 -21q-188 0 -330.5 71t-219 193.5
t-76.5 271.5q0 181 64 303.5t158 181t184 58.5h277v-9l-35 -7q-19 -4 -31 -18t-12 -34v-432q0 -92 46.5 -143.5t130.5 -51.5q88 0 138 47q25 24 38.5 62t13.5 86v427q0 17 -10 31t-27 19l-48 14v9h205v-9l-47 -14q-17 -5 -27 -18.5t-10 -30.5v-428q0 -215 -239 -215
q-135 0 -210 57t-75 158v432q0 20 -12 36t-31 16h-35q-70 0 -161 -56t-158 -174.5t-67 -296.5q0 -144 73.5 -262t211 -186t321.5 -68q127 0 241 21t207 51.5t224 80.5q121 46 203.5 73t178.5 45.5t199 18.5q107 0 189.5 -45.5z" />
    <glyph glyph-name="U.ss06" unicode="&#xe085;" horiz-adv-x="681" 
d="M955.5 636q112.5 -64 171.5 -168t59 -221q0 -116 -50.5 -208.5t-136.5 -145t-189 -52.5q-93 0 -168.5 51t-110.5 134q-59 -41 -164 -41q-135 0 -210 57t-75 158v432q0 20 -12 36t-31 16h-35v16h277v-9l-35 -7q-19 -4 -31 -18t-12 -34v-432q0 -92 46.5 -143.5t130.5 -51.5
q88 0 138 47q2 2 3 2q-14 45 -14 90q0 46 16.5 88t46.5 75v320q0 17 -10 31t-27 19l-48 14v9h205q153 0 265.5 -64zM989.5 -89.5q81.5 49.5 129 137.5t47.5 199q0 128 -68 228t-177.5 155t-230.5 55h-47q-15 0 -26 -19t-11 -38v-288q66 48 145 48q54 0 99.5 -26.5t72 -72
t26.5 -99.5q0 -48 -6.5 -77.5t-27.5 -29.5q-6 0 -14 3q-9 3 -9 13q0 7 5 17.5t11 21.5q10 17 15.5 29t5.5 23q0 49 -24 89.5t-64.5 64.5t-89.5 24q-41 0 -78 -14t-67 -39v-115q0 -107 -59 -161q31 -80 102.5 -129t160.5 -49q98 0 179.5 49.5zM536 73q34 49 34 127v76
q-43 -59 -43 -132q0 -36 9 -71z" />
    <glyph glyph-name="U.ss07" unicode="&#xe086;" horiz-adv-x="681" 
d="M3232.5 -552.5q18.5 -39.5 18.5 -65.5q0 -31 -28 -31q-19 0 -25.5 11t-6.5 32l1 46q0 39 -14 60q-71 76 -207.5 142.5t-313.5 107t-364 40.5q-145 0 -271 -17t-226 -41.5t-242 -65.5q-134 -38 -221 -60t-194.5 -37t-226.5 -15h-2q-232 6 -382.5 61.5t-219 138
t-68.5 173.5q0 33 7 72q-80 22 -122.5 73.5t-42.5 127.5v432q0 20 -12 36t-31 16h-35v16h277v-9l-35 -7q-19 -4 -31 -18t-12 -34v-432q0 -103 58 -155q33 90 112 151t197 116v315q0 17 -10 31t-27 19l-48 14v9h205q60 0 107.5 -19t74 -52t26.5 -73q0 -39 -26 -78.5
t-80 -77.5q-28 -20 -60.5 -36.5t-98.5 -47.5l-27 -12v-104q0 -215 -239 -215q-57 0 -100 10q-7 -29 -7 -68q0 -85 65.5 -163t211.5 -131t373 -59q118 0 225 15t196 37t218 60q141 41 242 65.5t228.5 41.5t273.5 17q193 0 373.5 -40t317.5 -107.5t208 -148.5
q22 -27 40.5 -66.5zM606 328q49 22 97 44.5t78 41.5q48 31 71.5 66.5t23.5 70.5q0 36 -24 67t-66.5 49t-95.5 18h-47q-15 0 -26 -19t-11 -38v-300zM382 177q-74 -58 -105 -144q44 -28 103 -28q88 0 138 47q25 24 38.5 62t13.5 86v88q-114 -53 -188 -111z" />
    <glyph glyph-name="Uacute" unicode="&#xda;" horiz-adv-x="681" 
d="M616 658.5q-10 -13.5 -10 -30.5v-428q0 -215 -239 -215q-135 0 -210 57t-75 158v432q0 20 -12 34t-31 18l-35 7v9h277v-9l-35 -7q-19 -4 -31 -18t-12 -34v-432q0 -92 46.5 -143.5t130.5 -51.5q88 0 138 47q25 24 38.5 62t13.5 86v427q0 17 -10 31t-27 19l-48 14v9h205v-9
l-47 -14q-17 -5 -27 -18.5zM375 869h108l-120 -120h-36z" />
    <glyph glyph-name="Ucircumflex" unicode="&#xdb;" horiz-adv-x="681" 
d="M616 658.5q-10 -13.5 -10 -30.5v-428q0 -215 -239 -215q-135 0 -210 57t-75 158v432q0 20 -12 34t-31 18l-35 7v9h277v-9l-35 -7q-19 -4 -31 -18t-12 -34v-432q0 -92 46.5 -143.5t130.5 -51.5q88 0 138 47q25 24 38.5 62t13.5 86v427q0 17 -10 31t-27 19l-48 14v9h205v-9
l-47 -14q-17 -5 -27 -18.5zM272 760l-17 12l125 118l125 -118l-17 -12l-108 60z" />
    <glyph glyph-name="Udieresis" unicode="&#xdc;" horiz-adv-x="681" 
d="M616 658.5q-10 -13.5 -10 -30.5v-428q0 -215 -239 -215q-135 0 -210 57t-75 158v432q0 20 -12 34t-31 18l-35 7v9h277v-9l-35 -7q-19 -4 -31 -18t-12 -34v-432q0 -92 46.5 -143.5t130.5 -51.5q88 0 138 47q25 24 38.5 62t13.5 86v427q0 17 -10 31t-27 19l-48 14v9h205v-9
l-47 -14q-17 -5 -27 -18.5zM336.5 775.5q-15.5 -15.5 -34.5 -15.5t-34.5 15.5t-15.5 34.5t15.5 34.5t34.5 15.5t34.5 -15.5t15.5 -34.5t-15.5 -34.5zM501.5 775.5q-15.5 -15.5 -34.5 -15.5t-34.5 15.5t-15.5 34.5t15.5 34.5t34.5 15.5t34.5 -15.5t15.5 -34.5t-15.5 -34.5z
" />
    <glyph glyph-name="Ugrave" unicode="&#xd9;" horiz-adv-x="681" 
d="M616 658.5q-10 -13.5 -10 -30.5v-428q0 -215 -239 -215q-135 0 -210 57t-75 158v432q0 20 -12 34t-31 18l-35 7v9h277v-9l-35 -7q-19 -4 -31 -18t-12 -34v-432q0 -92 46.5 -143.5t130.5 -51.5q88 0 138 47q25 24 38.5 62t13.5 86v427q0 17 -10 31t-27 19l-48 14v9h205v-9
l-47 -14q-17 -5 -27 -18.5zM408 750h-36l-120 120h108z" />
    <glyph glyph-name="Uhungarumlaut" unicode="&#x170;" horiz-adv-x="681" 
d="M616 658.5q-10 -13.5 -10 -30.5v-428q0 -215 -239 -215q-135 0 -210 57t-75 158v432q0 20 -12 34t-31 18l-35 7v9h277v-9l-35 -7q-19 -4 -31 -18t-12 -34v-432q0 -92 46.5 -143.5t130.5 -51.5q88 0 138 47q25 24 38.5 62t13.5 86v427q0 17 -10 31t-27 19l-48 14v9h205v-9
l-47 -14q-17 -5 -27 -18.5zM320 869h80l-90 -120h-30zM430 869h80l-90 -120h-30z" />
    <glyph glyph-name="Umacron" unicode="&#x16a;" horiz-adv-x="681" 
d="M616 658.5q-10 -13.5 -10 -30.5v-428q0 -215 -239 -215q-135 0 -210 57t-75 158v432q0 20 -12 34t-31 18l-35 7v9h277v-9l-35 -7q-19 -4 -31 -18t-12 -34v-432q0 -92 46.5 -143.5t130.5 -51.5q88 0 138 47q25 24 38.5 62t13.5 86v427q0 17 -10 31t-27 19l-48 14v9h205v-9
l-47 -14q-17 -5 -27 -18.5zM480 825v-35h-230v35h230z" />
    <glyph glyph-name="Uogonek" unicode="&#x172;" horiz-adv-x="681" 
d="M616 658.5q-10 -13.5 -10 -30.5v-428q0 -215 -239 -215q-135 0 -210 57t-75 158v432q0 20 -12 34t-31 18l-35 7v9h277v-9l-35 -7q-19 -4 -31 -18t-12 -34v-432q0 -92 46.5 -143.5t130.5 -51.5q88 0 138 47q25 24 38.5 62t13.5 86v427q0 17 -10 31t-27 19l-48 14v9h205v-9
l-47 -14q-17 -5 -27 -18.5zM328 -22q19 10 53 22h40q-45 -21 -76 -53q-14 -16 -14 -32q0 -15 11 -25t29 -10t32 12q5 3 13 13v-25q-11 -11 -36 -17q-12 -3 -29 -3q-37 0 -56 15.5t-19 39.5q0 34 52 63z" />
    <glyph glyph-name="Uring" unicode="&#x16e;" horiz-adv-x="681" 
d="M616 658.5q-10 -13.5 -10 -30.5v-428q0 -215 -239 -215q-135 0 -210 57t-75 158v432q0 20 -12 34t-31 18l-35 7v9h277v-9l-35 -7q-19 -4 -31 -18t-12 -34v-432q0 -92 46.5 -143.5t130.5 -51.5q88 0 138 47q25 24 38.5 62t13.5 86v427q0 17 -10 31t-27 19l-48 14v9h205v-9
l-47 -14q-17 -5 -27 -18.5zM440.5 766q-27.5 -21 -68.5 -21t-68.5 21t-27.5 54t27.5 54t68.5 21t68.5 -21t27.5 -54t-27.5 -54zM402.5 860.5q-11.5 14.5 -30.5 14.5q-18 0 -30 -14.5t-12 -40.5t12 -40.5t30 -14.5q19 0 30.5 14.5t11.5 40.5t-11.5 40.5z" />
    <glyph glyph-name="V" unicode="V" 
d="M19.5 656.5q-29.5 26.5 -67.5 34.5v9h283v-9l-8 -2q-22 -4 -35.5 -20t-13.5 -36q0 -11 5 -24l177 -447l158 447q3 11 3 20q0 19 -11 33.5t-30 20.5l-27 8v9h205v-9q-40 -12 -70 -40t-44 -68l-211 -598h-30l-238 602q-16 43 -45.5 69.5z" />
    <glyph glyph-name="V.ss01" unicode="&#xe087;" 
d="M658 700v-9q-40 -12 -70 -40t-44 -68l-211 -598h-30l-238 602q-17 44 -46.5 70.5t-66.5 26.5q-91 0 -167.5 -46t-121.5 -123.5t-45 -168.5q0 -72 35.5 -133t96.5 -96.5t133 -35.5q57 0 105.5 28t76.5 76.5t28 105.5q0 45 -22.5 83t-60.5 60.5t-83 22.5q-35 0 -65 -17.5
t-47.5 -47.5t-17.5 -65q0 -12 7.5 -20.5t21.5 -19.5q18 -14 18 -21q0 -6 -7 -12q-7 -5 -12 -5q-17 0 -32.5 27t-15.5 51q0 41 20 75.5t54.5 54.5t75.5 20q50 0 93 -25t68 -68t25 -93q0 -62 -31 -115t-84 -84t-115 -31q-77 0 -142.5 38.5t-104 104t-38.5 142.5
q0 96 47.5 177.5t129 129t177.5 47.5h283v-9l-8 -2q-22 -4 -35.5 -20t-13.5 -36q0 -11 5 -24l177 -447l158 447q3 11 3 20q0 19 -11 33.5t-30 20.5l-27 8v9h205z" />
    <glyph glyph-name="V.ss02" unicode="&#xe088;" 
d="M782.5 964.5q141.5 -94.5 223 -250t81.5 -330.5q0 -219 -99.5 -397.5t-280 -282t-414.5 -103.5q-195 0 -358.5 76.5t-260 218.5t-96.5 330q0 120 52.5 230t139.5 177t182 67q27 107 103 188.5t184.5 126t229.5 44.5q172 0 313.5 -94.5zM697 -278.5q175 100.5 271 275
t96 387.5q0 169 -78 320.5t-214.5 243t-302.5 91.5q-116 0 -219.5 -41.5t-177 -118.5t-100.5 -179h263v-11h-8q-22 0 -35.5 -15.5t-13.5 -38.5q0 -11 5 -26l177 -447l158 447q3 11 3 20q0 19 -11 34.5t-30 19.5l-26 6v11h204v-9q-40 -12 -70 -40t-44 -68l-165 -466
q42 -7 95 -7q15 0 37 20q17 15 26 15q7 0 14 -9q4 -4 4 -10q0 -14 -26 -25t-55 -11q-45 0 -101 7l-40 -112h-30l-58 147q-100 41 -169.5 114.5t-103.5 163t-34 178.5q0 49 11 99q-90 -1 -171 -67.5t-130.5 -172.5t-49.5 -221q0 -182 94 -319.5t252.5 -211.5t348.5 -74
q229 0 404 100.5zM-42 588q0 -82 30.5 -165.5t93 -153t152.5 -110.5l-169 428q-15 39 -40 65.5t-56 32.5q-11 -49 -11 -97z" />
    <glyph glyph-name="V.ss03" unicode="&#xe089;" 
d="M1823.5 -175.5q182.5 -106.5 289 -289t106.5 -397.5q0 -174 -81 -319.5t-222.5 -230.5t-314.5 -85q-139 0 -261.5 69t-196 186.5t-73.5 255.5q0 111 55 205t149 149t205 55q29 0 55 -11t26 -25q0 -6 -4 -10q-7 -9 -14 -9q-9 0 -26 15q-22 20 -37 20q-106 0 -195 -52.5
t-141.5 -141.5t-52.5 -195q0 -133 70.5 -246t188.5 -179t252 -66q168 0 304.5 82.5t215 223.5t78.5 309q0 210 -104 387.5t-282 281.5t-388 104q-101 0 -196.5 -18.5t-176.5 -45t-202 -72.5q-131 -50 -225 -81t-209.5 -52t-243.5 -21q-188 0 -330.5 71t-219 193.5
t-76.5 271.5q0 181 64 303.5t158 181t184 58.5h283v-11h-8q-22 0 -35.5 -15.5t-13.5 -38.5q0 -11 5 -26l177 -447l158 447q3 11 3 20q0 19 -11 34.5t-30 19.5l-26 6v11h204v-9q-40 -12 -70 -40t-44 -68l-211 -598h-30l-238 602q-17 44 -46.5 70.5t-66.5 26.5
q-83 0 -172.5 -55t-151.5 -173.5t-62 -298.5q0 -144 73.5 -262t211 -186t321.5 -68q127 0 241 21t207 51.5t224 80.5q121 46 203.5 73t178.5 45.5t199 18.5q216 0 398.5 -106.5z" />
    <glyph glyph-name="V.ss04" unicode="&#xe08a;" 
d="M1614.5 -114.5q82.5 -45.5 127.5 -124t45 -173.5q0 -75 -37 -138t-100.5 -100t-138.5 -37q-60 0 -111 30t-81 81t-30 112q0 48 24.5 89t65.5 65.5t89 24.5q34 0 61.5 -16.5t27.5 -35.5q0 -6 -7 -15q-6 -6 -11 -6q-6 0 -13.5 7t-14.5 15q-12 15 -22 23t-21 8
q-43 0 -79.5 -21.5t-58 -58t-21.5 -79.5q0 -55 27 -101.5t73.5 -74t101.5 -27.5q70 0 128.5 34.5t93 93t34.5 127.5q0 90 -42.5 163.5t-120.5 116.5t-179 43t-196.5 -18.5t-176.5 -45t-202 -72.5q-131 -50 -225 -81t-209.5 -52t-243.5 -21q-188 0 -330.5 71t-219 193.5
t-76.5 271.5q0 181 64 303.5t158 181t184 58.5h283v-11h-8q-22 0 -35.5 -15.5t-13.5 -38.5q0 -11 5 -26l177 -447l158 447q3 11 3 20q0 19 -11 34.5t-30 19.5l-26 6v11h204v-9q-40 -12 -70 -40t-44 -68l-211 -598h-30l-238 602q-17 44 -46.5 70.5t-66.5 26.5
q-83 0 -172.5 -55t-151.5 -173.5t-62 -298.5q0 -144 73.5 -262t211 -186t321.5 -68q127 0 241 21t207 51.5t224 80.5q121 46 203.5 73t178.5 45.5t199 18.5q107 0 189.5 -45.5z" />
    <glyph glyph-name="V.ss05" unicode="&#xe08b;" 
d="M923.5 636q112.5 -64 171.5 -168t59 -221q0 -116 -50.5 -208.5t-136.5 -145t-189 -52.5q-82 0 -151.5 41t-110.5 110.5t-41 151.5q0 66 33 122t89 89t122 33q54 0 99.5 -26.5t72 -72t26.5 -99.5q0 -48 -6.5 -77.5t-27.5 -29.5q-6 0 -14 3q-9 3 -9 13q0 7 5 17.5t11 21.5
q10 17 15.5 29t5.5 23q0 49 -24 89.5t-64.5 64.5t-89.5 24q-61 0 -112.5 -30t-81.5 -81.5t-30 -112.5q0 -77 38 -142t103 -103t142 -38q98 0 179.5 49.5t129 137.5t47.5 199q0 131 -62.5 230.5t-171 153.5t-242.5 54q-38 0 -68.5 -29.5t-45.5 -72.5l-211 -598h-30l-238 602
q-17 45 -47 73.5t-66 28.5v11h283v-11h-8q-22 0 -35.5 -15.5t-13.5 -38.5q0 -11 5 -26l177 -447l158 447q3 11 3 20q0 19 -11 34.5t-30 19.5l-26 6v11h204q153 0 265.5 -64z" />
    <glyph glyph-name="V.ss06" unicode="&#xe08c;" 
d="M2503 837q8 -16 8 -29q0 -18 -16 -18q-13 0 -16.5 7.5t-3.5 23.5q0 23 -6 32q-279 294 -743 294q-114 0 -233 -28t-226 -68t-269 -108q-153 -65 -252 -102.5t-198 -62.5q5 -33 5 -65q0 -107 -47 -238l-173 -490h-30l-238 602q-17 45 -47 73.5t-66 28.5v11h283v-11h-8
q-22 0 -35.5 -15.5t-13.5 -38.5q0 -11 5 -26l177 -447l121 340q43 122 43 220q0 26 -3 50q-119 -26 -217 -26q-77 0 -141 17.5t-102 50t-38 74.5q0 70 59 103.5t162 33.5q107 0 191 -56.5t109 -170.5q99 24 198 61.5t252 102.5q157 67 265.5 108t229 69t237.5 28
q279 0 460.5 -89t296.5 -211q12 -14 20 -30zM517 791q-14 72 -55 120t-98 71t-120 23q-94 0 -147.5 -28.5t-53.5 -88.5q0 -35 35.5 -63t95.5 -43.5t130 -15.5q102 0 213 25z" />
    <glyph glyph-name="V.ss07" unicode="&#xe08d;" 
d="M1886 1062q95 -45 143.5 -123t48.5 -175q0 -75 -37 -138t-100.5 -100t-138.5 -37q-60 0 -111 30t-81 81t-30 112q0 48 24.5 89t65.5 65.5t89 24.5q34 0 61.5 -16.5t27.5 -35.5q0 -6 -7 -15q-6 -6 -11 -6q-6 0 -13.5 7t-14.5 15q-12 15 -22 23t-21 8q-43 0 -79.5 -21.5
t-58 -58t-21.5 -79.5q0 -55 27 -101.5t73.5 -74t101.5 -27.5q70 0 128.5 34.5t93 93t34.5 127.5q0 92 -45.5 165t-136 115.5t-220.5 42.5q-114 0 -228 -23.5t-214.5 -58t-248.5 -91.5q-137 -53 -230 -85.5t-187 -53.5q5 -33 5 -63q0 -102 -47 -237l-173 -490h-30l-238 602
q-17 45 -47 73.5t-66 28.5v11h283v-11h-8q-22 0 -35.5 -15.5t-13.5 -38.5q0 -11 5 -26l177 -447l121 340q43 120 43 217q0 26 -3 50q-117 -23 -217 -23q-77 0 -141 17.5t-102 50t-38 74.5q0 70 59 103.5t162 33.5q69 0 131.5 -24.5t108 -76.5t61.5 -130q93 21 186 53t226 85
q148 58 249 92.5t216.5 58.5t233.5 24q135 0 230 -45zM518 789q-20 107 -97 161.5t-177 54.5q-94 0 -147.5 -28.5t-53.5 -88.5q0 -35 35.5 -63t95.5 -43.5t130 -15.5q107 0 214 23z" />
    <glyph glyph-name="V.ss08" unicode="&#xe08e;" 
d="M2054.5 1000.5q182.5 -106.5 289 -289t106.5 -397.5q0 -174 -81 -319.5t-222.5 -230.5t-314.5 -85q-139 0 -261.5 69t-196 186.5t-73.5 255.5q0 111 55 205t149 149t205 55q29 0 55 -11t26 -25q0 -6 -4 -10q-7 -9 -14 -9q-9 0 -26 15q-22 20 -37 20q-106 0 -195 -52.5
t-141.5 -141.5t-52.5 -195q0 -133 70.5 -246t188.5 -179t252 -66q168 0 304.5 82.5t215 223.5t78.5 309q0 210 -104 387.5t-282 281.5t-388 104q-114 0 -228 -23.5t-214.5 -58t-248.5 -91.5q-137 -53 -230 -85.5t-187 -53.5q5 -33 5 -63q0 -102 -47 -237l-173 -490h-30
l-238 602q-17 45 -47 73.5t-66 28.5v11h283v-11h-8q-22 0 -35.5 -15.5t-13.5 -38.5q0 -11 5 -26l177 -447l121 340q43 120 43 217q0 26 -3 50q-117 -23 -217 -23q-77 0 -141 17.5t-102 50t-38 74.5q0 70 59 103.5t162 33.5q69 0 131.5 -24.5t108 -76.5t61.5 -130
q93 21 186 53t226 85q148 58 249 92.5t216.5 58.5t233.5 24q216 0 398.5 -106.5zM518 789q-20 107 -97 161.5t-177 54.5q-94 0 -147.5 -28.5t-53.5 -88.5q0 -35 35.5 -63t95.5 -43.5t130 -15.5q107 0 214 23z" />
    <glyph glyph-name="V.ss09" unicode="&#xe08f;" 
d="M2494.5 -485.5q18.5 -39.5 18.5 -65.5q0 -31 -28 -31q-19 0 -25.5 11t-6.5 32l1 46q0 39 -14 60q-71 76 -207.5 142.5t-313.5 107t-364 40.5q-145 0 -271 -17t-226 -41.5t-242 -65.5q-130 -38 -219.5 -60t-197 -37t-227.5 -15q-188 0 -330.5 71t-219 193.5t-76.5 271.5
q0 181 64 303.5t158 181t184 58.5h283v-11h-8q-22 0 -35.5 -15.5t-13.5 -38.5q0 -11 5 -26l177 -447l158 447q3 11 3 20q0 19 -11 34.5t-30 19.5l-26 6v11h204v-9q-40 -12 -70 -40t-44 -68l-211 -598h-30l-238 602q-17 44 -46.5 70.5t-66.5 26.5q-83 0 -172.5 -55
t-151.5 -173.5t-62 -298.5q0 -144 73.5 -262t211 -186t321.5 -68q118 0 225 15t196 37t218 60q141 41 242 65.5t228.5 41.5t273.5 17q193 0 373.5 -40t317.5 -107.5t208 -148.5q22 -27 40.5 -66.5z" />
    <glyph glyph-name="W" unicode="W" horiz-adv-x="987" 
d="M19 655.5q-29 27.5 -67 35.5v9h283v-9l-10 -2q-22 -4 -35.5 -20t-13.5 -37q0 -11 4 -22l161 -437l183 542h30l208 -542l147 437q3 11 3 20q0 18 -11 32.5t-30 20.5l-28 8v9h205v-9q-41 -12 -71 -41t-43 -70l-198 -595h-30l-209 547l-184 -547h-29l-220 598
q-16 45 -45 72.5z" />
    <glyph glyph-name="W.ss01" unicode="&#xe090;" horiz-adv-x="987" 
d="M1048 700v-9q-41 -12 -71 -41t-43 -70l-198 -595h-30l-209 547l-184 -547h-29l-220 598q-17 46 -46 73.5t-66 27.5q-91 0 -167.5 -46t-121.5 -123.5t-45 -168.5q0 -72 35.5 -133t96.5 -96.5t133 -35.5q57 0 105.5 28t76.5 76.5t28 105.5q0 45 -22.5 83t-60.5 60.5
t-83 22.5q-35 0 -65 -17.5t-47.5 -47.5t-17.5 -65q0 -12 7.5 -20.5t21.5 -19.5q18 -14 18 -21q0 -6 -7 -12q-7 -5 -12 -5q-17 0 -32.5 27t-15.5 51q0 41 20 75.5t54.5 54.5t75.5 20q50 0 93 -25t68 -68t25 -93q0 -62 -31 -115t-84 -84t-115 -31q-77 0 -142.5 38.5t-104 104
t-38.5 142.5q0 96 47.5 177.5t129 129t177.5 47.5h283v-9l-10 -2q-22 -4 -35.5 -20t-13.5 -37q0 -11 4 -22l161 -437l183 542h30l208 -542l147 437q3 11 3 20q0 18 -11 32.5t-30 20.5l-28 8v9h205z" />
    <glyph glyph-name="W.ss02" unicode="&#xe091;" horiz-adv-x="987" 
d="M1087 384q0 -219 -99.5 -397.5t-280 -282t-414.5 -103.5q-195 0 -358.5 76.5t-260 218.5t-96.5 330q0 120 52.5 230t139.5 177t182 67q27 107 103 188.5t184.5 126t229.5 44.5q118 0 223 -45.5t187 -127t134 -186.5h35v-9q-18 -6 -26 -10q65 -142 65 -297zM249.5 997.5
q-103.5 -41.5 -177 -118.5t-100.5 -179h263v-9l-10 -2q-22 -4 -35.5 -20t-13.5 -37q0 -11 4 -22l161 -437l183 542h30l208 -542l147 437q3 11 3 20q0 18 -11 32.5t-30 20.5l-28 8v9h145q-50 100 -128.5 176.5t-178.5 119.5t-212 43q-116 0 -219.5 -41.5zM697 -278.5
q175 100.5 271 275t96 387.5q0 148 -61 286q-49 -32 -69 -90l-198 -595h-30l-209 547l-139 -412q60 -10 116 -10q15 0 37 20q17 15 26 15q7 0 14 -9q4 -4 4 -10q0 -14 -26 -25t-55 -11q-62 0 -122 11l-39 -116h-29l-57 155q-94 43 -159 115.5t-97.5 159.5t-32.5 173
q0 52 10 96q-89 -1 -170 -67t-130.5 -171.5t-49.5 -219.5q0 -182 94 -319.5t252.5 -211.5t348.5 -74q229 0 404 100.5zM-42 588q0 -80 28.5 -160.5t87 -149t143.5 -111.5l-153 416q-16 41 -40.5 67.5t-55.5 32.5q-10 -52 -10 -95z" />
    <glyph glyph-name="W.ss03" unicode="&#xe092;" horiz-adv-x="987" 
d="M1823.5 -175.5q182.5 -106.5 289 -289t106.5 -397.5q0 -174 -81 -319.5t-222.5 -230.5t-314.5 -85q-139 0 -261.5 69t-196 186.5t-73.5 255.5q0 111 55 205t149 149t205 55q29 0 55 -11t26 -25q0 -6 -4 -10q-7 -9 -14 -9q-9 0 -26 15q-22 20 -37 20q-106 0 -195 -52.5
t-141.5 -141.5t-52.5 -195q0 -133 70.5 -246t188.5 -179t252 -66q168 0 304.5 82.5t215 223.5t78.5 309q0 210 -104 387.5t-282 281.5t-388 104q-101 0 -196.5 -18.5t-176.5 -45t-202 -72.5q-131 -50 -225 -81t-209.5 -52t-243.5 -21q-188 0 -330.5 71t-219 193.5
t-76.5 271.5q0 181 64 303.5t158 181t184 58.5h283v-9l-10 -2q-22 -4 -35.5 -20t-13.5 -37q0 -11 4 -22l161 -437l183 542h30l208 -542l147 437q3 11 3 20q0 18 -11 32.5t-30 20.5l-28 8v9h205v-9q-41 -12 -71 -41t-43 -70l-198 -595h-30l-209 547l-184 -547h-29l-220 598
q-17 46 -46 73.5t-66 27.5q-83 0 -172.5 -55t-151.5 -173.5t-62 -298.5q0 -144 73.5 -262t211 -186t321.5 -68q127 0 241 21t207 51.5t224 80.5q121 46 203.5 73t178.5 45.5t199 18.5q216 0 398.5 -106.5z" />
    <glyph glyph-name="W.ss04" unicode="&#xe093;" horiz-adv-x="987" 
d="M1614.5 -114.5q82.5 -45.5 127.5 -124t45 -173.5q0 -75 -37 -138t-100.5 -100t-138.5 -37q-60 0 -111 30t-81 81t-30 112q0 48 24.5 89t65.5 65.5t89 24.5q34 0 61.5 -16.5t27.5 -35.5q0 -6 -7 -15q-6 -6 -11 -6q-6 0 -13.5 7t-14.5 15q-12 15 -22 23t-21 8
q-43 0 -79.5 -21.5t-58 -58t-21.5 -79.5q0 -55 27 -101.5t73.5 -74t101.5 -27.5q70 0 128.5 34.5t93 93t34.5 127.5q0 90 -42.5 163.5t-120.5 116.5t-179 43t-196.5 -18.5t-176.5 -45t-202 -72.5q-131 -50 -225 -81t-209.5 -52t-243.5 -21q-188 0 -330.5 71t-219 193.5
t-76.5 271.5q0 181 64 303.5t158 181t184 58.5h283v-9l-10 -2q-22 -4 -35.5 -20t-13.5 -37q0 -11 4 -22l161 -437l183 542h30l208 -542l147 437q3 11 3 20q0 18 -11 32.5t-30 20.5l-28 8v9h205v-9q-41 -12 -71 -41t-43 -70l-198 -595h-30l-209 547l-184 -547h-29l-220 598
q-17 46 -46 73.5t-66 27.5q-83 0 -172.5 -55t-151.5 -173.5t-62 -298.5q0 -144 73.5 -262t211 -186t321.5 -68q127 0 241 21t207 51.5t224 80.5q121 46 203.5 73t178.5 45.5t199 18.5q107 0 189.5 -45.5z" />
    <glyph glyph-name="W.ss05" unicode="&#xe094;" horiz-adv-x="987" 
d="M2494.5 -485.5q18.5 -39.5 18.5 -65.5q0 -31 -28 -31q-19 0 -25.5 11t-6.5 32l1 46q0 39 -14 60q-71 76 -207.5 142.5t-313.5 107t-364 40.5q-145 0 -271 -17t-226 -41.5t-242 -65.5q-130 -38 -219.5 -60t-197 -37t-227.5 -15q-188 0 -330.5 71t-219 193.5t-76.5 271.5
q0 181 64 303.5t158 181t184 58.5h283v-9l-10 -2q-22 -4 -35.5 -20t-13.5 -37q0 -11 4 -22l161 -437l183 542h30l208 -542l147 437q3 11 3 20q0 18 -11 32.5t-30 20.5l-28 8v9h205v-9q-41 -12 -71 -41t-43 -70l-198 -595h-30l-209 547l-184 -547h-29l-220 598
q-17 46 -46 73.5t-66 27.5q-83 0 -172.5 -55t-151.5 -173.5t-62 -298.5q0 -144 73.5 -262t211 -186t321.5 -68q118 0 225 15t196 37t218 60q141 41 242 65.5t228.5 41.5t273.5 17q193 0 373.5 -40t317.5 -107.5t208 -148.5q22 -27 40.5 -66.5z" />
    <glyph glyph-name="W.ss06" unicode="&#xe095;" horiz-adv-x="987" 
d="M1055 966q76 -46 119.5 -124.5t43.5 -171.5q0 -75 -37 -138.5t-100.5 -100.5t-138.5 -37q-31 0 -66 10l-140 -419h-30l-209 547l-184 -547h-29l-220 598q-18 48 -47 78t-65 30v9h283v-9l-10 -2q-22 -4 -35.5 -20t-13.5 -37q0 -11 4 -22l161 -437l183 542q26 76 73.5 143
t121 110.5t167.5 43.5q93 0 169 -46zM1070.5 448.5q58.5 34.5 93 93t34.5 128.5q0 88 -41 162t-112.5 117t-158.5 43q-95 0 -163.5 -46t-108.5 -108.5t-60 -122.5l208 -542l82 244q-56 27 -90 81t-34 118q0 49 24.5 90.5t65.5 66t90 24.5q41 0 73 -11t32 -29q0 -7 -4 -12
q-4 -7 -12 -7q-6 0 -15.5 5t-18.5 11q-17 11 -29.5 17t-25.5 6q-43 0 -80 -21.5t-58.5 -58.5t-21.5 -81q0 -58 30 -106.5t80 -73.5l59 174q3 11 3 20q0 18 -11 32.5t-30 20.5l-28 8v9h205v-9q-41 -12 -71 -41t-43 -70l-52 -157q28 -9 60 -9q70 0 128.5 34.5z" />
    <glyph glyph-name="W.ss07" unicode="&#xe096;" horiz-adv-x="987" 
d="M1255 929.5q132 -82.5 206 -224t74 -311.5q0 -166 -81 -292.5t-214 -195.5t-282 -69q-140 0 -250 60t-170 159t-60 210q0 103 51 183l-32 83l-184 -547h-29l-220 598q-18 48 -47 78t-65 30v9h283v-9l-10 -2q-22 -4 -35.5 -20t-13.5 -37q0 -11 4 -22l161 -437l183 542
q42 123 148 210t284 87q167 0 299 -82.5zM1230 -77q128 66 206.5 188t78.5 283q0 164 -71 301t-198.5 217t-289.5 80q-123 0 -207 -46t-129.5 -108.5t-65.5 -122.5l66 -173q73 46 160 46q61 0 113 -26l16 48q3 11 3 20q0 18 -11 32.5t-30 20.5l-28 8v9h205v-9
q-41 -12 -71 -41t-43 -70l-12 -35q54 -36 85.5 -93t31.5 -123q0 -49 -14.5 -86t-35.5 -37q-7 0 -16 6q-7 6 -7 12q0 7 6.5 17.5t14.5 21.5q16 21 24 35.5t8 30.5q0 60 -27.5 111.5t-75.5 85.5l-180 -541h-30l-168 440q-40 -71 -40 -159q0 -106 57.5 -200t162.5 -151.5
t240 -57.5q144 0 272 66zM762 173l124 370q-50 25 -106 25q-86 0 -153 -45z" />
    <glyph glyph-name="X" unicode="X" horiz-adv-x="584" 
d="M83 85l157 241l-171 285q-19 32 -48 52t-65 27l-4 1v9h290v-9q-20 -4 -32 -19t-12 -35q0 -21 11 -39l99 -166l107 164q11 17 11 36q0 20 -12 35t-33 22l-6 2v9h205v-9l-27 -8q-57 -16 -91 -68l-137 -211l190 -315q19 -32 48 -52t65 -27l4 -1v-9h-290v9q20 4 31.5 19
t11.5 35q0 22 -11 40l-118 196l-126 -195q-11 -16 -11 -36t12 -35t33 -22l6 -2v-9h-205v9l43 12q40 11 75 64z" />
    <glyph glyph-name="X.ss01" unicode="&#xe097;" horiz-adv-x="584" 
d="M1483.5 123q63.5 -37 100.5 -100t37 -138q0 -95 -45 -173.5t-127.5 -124t-189.5 -45.5q-287 0 -505.5 144t-379.5 417l-118 196l-126 -195q-11 -16 -11 -36t12 -35t33 -22l6 -2v-9h-205v9l43 12q40 11 75 64l157 241l-171 285q-19 32 -48 52t-65 27l-4 1v9h290v-9
q-20 -4 -32 -19t-12 -35q0 -21 11 -39l99 -166l107 164q11 17 11 36q0 20 -12 35t-33 22l-6 2v9h205v-9l-27 -8q-57 -16 -91 -68l-137 -211l190 -315q132 -223 310.5 -375t433.5 -152q101 0 179 43t120.5 116.5t42.5 163.5q0 69 -34.5 127.5t-93 93t-128.5 34.5
q-55 0 -101.5 -27.5t-73.5 -74t-27 -101.5q0 -43 21.5 -79.5t58 -58t79.5 -21.5q11 0 21 8t22 23q7 8 14.5 15t13.5 7q5 0 11 -6q7 -9 7 -15q0 -19 -27.5 -35.5t-61.5 -16.5q-48 0 -89 24.5t-65.5 65.5t-24.5 89q0 61 30 112t81 81t111 30q75 0 138.5 -37z" />
    <glyph glyph-name="X.ss02" unicode="&#xe098;" horiz-adv-x="584" 
d="M1735.5 884.5q146.5 -85.5 232 -231t85.5 -318.5q0 -215 -106.5 -397.5t-289 -289t-398.5 -106.5q-287 0 -505.5 144t-379.5 417l-118 196l-126 -195q-11 -16 -11 -36t12 -35t33 -22l6 -2v-9h-205v9l43 12q40 11 75 64l157 241l-171 285q-19 32 -48 52t-65 27l-4 1v9h290
v-9q-20 -4 -32 -19t-12 -35q0 -21 11 -39l99 -166l107 164q11 17 11 36q0 20 -12 35t-33 22l-6 2v9h205v-9l-27 -8q-57 -16 -91 -68l-137 -211l190 -315q132 -223 310.5 -375t433.5 -152q210 0 388 104t282 281.5t104 387.5q0 167 -83 308.5t-225 224t-310 82.5
q-134 0 -246.5 -66t-178.5 -178.5t-66 -246.5q0 -106 52.5 -195t141.5 -141.5t195 -52.5q15 0 37 20q17 15 26 15q7 0 14 -9q4 -4 4 -10q0 -14 -26 -25t-55 -11q-111 0 -205 55t-149 149t-55 205q0 139 69 256t186 186t256 69q174 0 320.5 -85.5z" />
    <glyph glyph-name="X.ss03" unicode="&#xe099;" horiz-adv-x="584" 
d="M2920.5 -221.5q82.5 -45.5 127.5 -124t45 -173.5q0 -75 -37 -138t-100.5 -100t-138.5 -37q-60 0 -111 30t-81 81t-30 112q0 48 24.5 89t65.5 65.5t89 24.5q34 0 61.5 -16.5t27.5 -35.5q0 -6 -7 -15q-6 -6 -11 -6q-6 0 -13.5 7t-14.5 15q-12 15 -22 23t-21 8
q-43 0 -79.5 -21.5t-58 -58t-21.5 -79.5q0 -55 27 -101.5t73.5 -74t101.5 -27.5q70 0 128.5 34.5t93 93t34.5 127.5q0 90 -42.5 163.5t-120.5 116.5t-179 43t-202 -16.5t-189.5 -40t-226.5 -65.5q-145 -45 -249 -72.5t-226 -46.5t-250 -19q-197 0 -391.5 67t-357.5 193.5
t-265 298.5l-118 196l-126 -195q-11 -16 -11 -36t12 -35t33 -22l6 -2v-9h-205v9l43 12q40 11 75 64l157 241l-171 285q-19 32 -48 52t-65 27l-4 1v9h290v-9q-20 -4 -32 -19t-12 -35q0 -21 11 -39l99 -166l107 164q11 17 11 36q0 20 -12 35t-33 22l-6 2v9h205v-9l-27 -8
q-57 -16 -91 -68l-137 -211l190 -315q71 -121 207 -242.5t311 -202t355 -80.5q127 0 247.5 19t222 46t250.5 72q140 42 228.5 66t190 40.5t204.5 16.5q107 0 189.5 -45.5z" />
    <glyph glyph-name="X.ss04" unicode="&#xe09a;" horiz-adv-x="584" 
d="M3129.5 -282.5q182.5 -106.5 289 -289t106.5 -397.5q0 -173 -85.5 -318.5t-232 -231t-320.5 -85.5q-139 0 -256 69t-186 186t-69 256q0 111 55 205t149 149t205 55q29 0 55 -11t26 -25q0 -6 -4 -10q-7 -9 -14 -9q-9 0 -26 15q-22 20 -37 20q-106 0 -195 -52.5
t-141.5 -141.5t-52.5 -195q0 -134 66 -246.5t178.5 -178.5t246.5 -66q168 0 310 82.5t225 224t83 308.5q0 210 -104 387.5t-282 281.5t-388 104q-101 0 -202 -16.5t-189.5 -40t-226.5 -65.5q-145 -45 -249 -72.5t-226 -46.5t-250 -19q-197 0 -391.5 67t-357.5 193.5
t-265 298.5l-118 196l-126 -195q-11 -16 -11 -36t12 -35t33 -22l6 -2v-9h-205v9l43 12q40 11 75 64l157 241l-171 285q-19 32 -48 52t-65 27l-4 1v9h290v-9q-20 -4 -32 -19t-12 -35q0 -21 11 -39l99 -166l107 164q11 17 11 36q0 20 -12 35t-33 22l-6 2v9h205v-9l-27 -8
q-57 -16 -91 -68l-137 -211l190 -315q71 -121 207 -242.5t311 -202t355 -80.5q127 0 247.5 19t222 46t250.5 72q140 42 228.5 66t190 40.5t204.5 16.5q216 0 398.5 -106.5z" />
    <glyph glyph-name="X.ss05" unicode="&#xe09b;" horiz-adv-x="584" 
d="M3896.5 217.5q182.5 -106.5 289 -289t106.5 -397.5q0 -173 -85.5 -318.5t-232 -231t-320.5 -85.5q-139 0 -256 69t-186 186t-69 256q0 111 55 205t149 149t205 55q29 0 55 -11t26 -25q0 -6 -4 -10q-7 -9 -14 -9q-9 0 -26 15q-22 20 -37 20q-106 0 -195 -52.5
t-141.5 -141.5t-52.5 -195q0 -134 66 -246.5t178.5 -178.5t246.5 -66q168 0 310 82.5t225 224t83 308.5q0 210 -104 387.5t-282 281.5t-388 104q-184 0 -355.5 -60t-315.5 -146.5t-355 -233.5q-206 -144 -346.5 -229t-306 -143t-341.5 -58q-289 0 -497.5 89t-347.5 233.5
t-259 346.5l-118 196l-126 -195q-11 -16 -11 -36t12 -35t33 -22l6 -2v-9h-205v9l43 12q40 11 75 64l157 241l-171 285q-19 32 -48 52t-65 27l-4 1v9h290v-9q-20 -4 -32 -19t-12 -35q0 -21 11 -39l99 -166l107 164q11 17 11 36q0 20 -12 35t-33 22l-6 2v9h205v-9l-27 -8
q-57 -16 -91 -68l-137 -211l190 -315q105 -179 207 -305t291 -228t465 -102q175 0 339.5 58t304 142.5t345.5 227.5q210 146 355 234t318 148t358 60q216 0 398.5 -106.5z" />
    <glyph glyph-name="X.ss06" unicode="&#xe09c;" horiz-adv-x="584" 
d="M2494.5 -485.5q18.5 -39.5 18.5 -65.5q0 -31 -28 -31q-19 0 -25.5 11t-6.5 32l1 46q0 39 -14 60q-71 76 -207.5 142.5t-313.5 107t-364 40.5q-145 0 -271 -17t-226 -41.5t-242 -65.5q-130 -38 -219.5 -60t-197 -37t-227.5 -15q-188 0 -330.5 71t-219 193.5t-76.5 271.5
q0 181 64 303.5t158 181t184 58.5h290v-9q-20 -4 -32 -19t-12 -35q0 -21 11 -39l99 -166l107 164q11 17 11 36q0 20 -12 35t-33 22l-6 2v9h205v-9l-27 -8q-57 -16 -91 -68l-137 -211l190 -315q19 -32 48 -52t65 -27l4 -1v-9h-290v9q20 4 31.5 19t11.5 35q0 22 -11 40
l-118 196l-126 -195q-11 -16 -11 -36t12 -35t33 -22l6 -2v-9h-205v9l43 12q40 11 75 64l157 241l-171 285q-18 30 -51 51.5t-66 21.5q-83 0 -172.5 -55t-151.5 -173.5t-62 -298.5q0 -144 73.5 -262t211 -186t321.5 -68q118 0 225 15t196 37t218 60q141 41 242 65.5
t228.5 41.5t273.5 17q193 0 373.5 -40t317.5 -107.5t208 -148.5q22 -27 40.5 -66.5z" />
    <glyph glyph-name="Y" unicode="Y" horiz-adv-x="577" 
d="M556.5 653q-19.5 -20 -35.5 -51l-162 -322v-212q0 -20 12 -34t31 -18l35 -7v-9h-277v9l35 7q19 4 31 18t12 34l1 207l-164 325q-18 37 -48.5 60t-68.5 31v9h284v-9q-23 -4 -36.5 -20t-13.5 -37q0 -13 8 -31l143 -284l143 283q7 14 7 30q0 19 -11.5 33.5t-31.5 20.5l-17 5
v9h205v-9l-42 -12q-20 -6 -39.5 -26z" />
    </font>
</defs>
</svg>
